<?xml version="1.0" encoding="UTF-8" standalone="no"?>
<!-- Created with Inkscape (http://www.inkscape.org/) -->

<svg
   version="1.1"
   id="svg2"
   width="5696.8721"
   height="5696.8721"
   viewBox="0 0 5696.8721 5696.8721"
   xmlns="http://www.w3.org/2000/svg"
   xmlns:svg="http://www.w3.org/2000/svg">
  <defs
     id="defs6" />
  <g
     id="g8"
     transform="matrix(1.3333333,0,0,-1.3333333,0,5333.3333)">
    <circle
       style="opacity:0.8;fill:#d14009;fill-opacity:1;fill-rule:evenodd;stroke:#ffffff;stroke-width:4.79;stroke-opacity:1"
       id="path709"
       cx="2136.3271"
       cy="-1863.673"
       r="2133.9321"
       transform="scale(1,-1)" />
    <g
       id="g10"
       transform="matrix(0.10791143,0,0,0.10791143,-21.389987,-286.18731)">
      <path
         d="m 35801.162,22256.883 c 0,0 97.2,-417.6 -225,-883.9 0,0 526.4,16 779.5,-329.5 0,0 -84.4,502.2 277.2,883.9 0,0 -494.2,-88.4 -831.7,329.5"
         style="fill:#ffffff;fill-opacity:1;fill-rule:nonzero;stroke:none"
         id="path50" />
      <path
         d="m 5396.3809,12608.308 c 0,0 138.09,-593.6 -319.78,-1256.3 0,0 748.05,22.9 1107.79,-468.2 0,0 -119.91,713.8 394.01,1256.2 0,0 -702.36,-125.6 -1182.02,468.3"
         style="fill:#ffffff;fill-opacity:1;fill-rule:nonzero;stroke:none"
         id="path52" />
      <path
         d="m 33809.348,10580.842 c 0,0 97.1,-417.7 -225,-883.9003 0,0 526.3,16 779.4,-329.5 0,0 -84.3,502.2 277.3,883.9003 0,0 -494.2,-88.4 -831.7,329.5"
         style="display:inline;fill:#ffffff;fill-opacity:1;fill-rule:nonzero;stroke:none"
         id="path54" />
      <path
         d="m 6417.4424,29170.521 c 0,0 97.16,-417.7 -225,-883.9 0,0 526.34,16 779.46,-329.5 0,0 -84.37,502.2 277.23,883.9 0,0 -494.19,-88.4 -831.69,329.5"
         style="display:inline;fill:#ffffff;fill-opacity:1;fill-rule:nonzero;stroke:none"
         id="path242" />
      <g
         id="g7982"
         style="display:inline"
         transform="matrix(1.3546078,0,0,1.3546078,-7099.6597,-11928.373)">
        <path
           d="m 29948.94,23564.8 c 0,-5493.5 -4453.4,-9946.9 -9946.9,-9946.9 -5493.5,0 -9946.9,4453.4 -9946.9,9946.9 0,5493.5 4453.4,9946.9 9946.9,9946.9 5493.5,0 9946.9,-4453.4 9946.9,-9946.9"
           style="display:inline;fill:#e1b303;fill-opacity:1;fill-rule:nonzero;stroke:none"
           id="path58" />
        <path
           d="m 20002,33338.3 c -5389.1,0 -9773.5,-4384.3 -9773.5,-9773.5 0,-5389.2 4384.4,-9773.6 9773.5,-9773.6 5389.2,0 9773.6,4384.4 9773.6,9773.6 0,5389.2 -4384.4,9773.5 -9773.6,9773.5 m 0,-19893.7 c -5580.3,0 -10120.22,4539.9 -10120.22,10120.2 0,5580.3 4539.92,10120.2 10120.22,10120.2 5580.3,0 10120.3,-4539.9 10120.3,-10120.2 0,-5580.3 -4540,-10120.2 -10120.3,-10120.2"
           style="display:inline;fill:#ffffff;fill-opacity:1;fill-rule:nonzero;stroke:none"
           id="path134" />
        <path
           d="m 20004.4,14551.3 c 4533.2,0 6333.1,1980.4 6333.1,1980.4 0,0 75.5,-170.6 112.3,-412.9 60.9,-401.3 -109.5,-803.8 -434,-1047.6 -713.3,-535.8 -2529.6,-1556.9 -6013.8,-1556.9 -3484.2,0 -5300.5,1021.1 -6013.7,1556.9 -324.5,243.8 -494.9,646.3 -434,1047.6 36.7,242.3 112.2,412.9 112.2,412.9 0,0 1800,-1980.4 6333.2,-1980.4 h 4.7"
           style="display:inline;fill:#ffffff;fill-opacity:1;fill-rule:nonzero;stroke:none"
           id="path136" />
        <path
           d="m 20002,13687.6 c -3378.9,0 -5152.9,953.7 -5909.6,1522.2 -212.5,159.7 -344.7,395.8 -371.9,648.9 70.6,-109.3 160.7,-207.1 267.8,-287.5 713.2,-535.8 2529.5,-1556.9 6013.7,-1556.9 3484.2,0 5300.5,1021.1 6013.8,1556.9 107,80.4 197.2,178.2 267.8,287.5 -27.2,-253.1 -159.4,-489.2 -371.9,-648.9 -756.7,-568.5 -2530.8,-1522.2 -5909.7,-1522.2"
           style="fill:#b2b2d4;fill-opacity:1;fill-rule:nonzero;stroke:none"
           id="path138" />
        <path
           d="m 20002,13340.9 c -3479.5,0 -5326.5,997.3 -6117.8,1591.7 -379.4,285.1 -571.5,749.5 -501.3,1212.1 39.8,262.4 121.7,449.3 125.1,457.1 23.8,53.6 73,91.6 130.8,101 57.8,9.4 116.5,-11.2 156,-54.5 17.4,-19 1814.3,-1923.6 6204.9,-1923.6 V 14378 c -3750,0 -5652.2,1322.8 -6250.7,1837.9 -8.6,-37.9 -16.7,-79.3 -23.4,-123.1 -51,-336.3 89.5,-674.7 366.8,-883 756.7,-568.5 2530.7,-1522.2 5909.6,-1522.2 3378.9,0 5153,953.7 5909.7,1522.2 277.2,208.3 417.7,546.6 366.7,883 -6.6,43.8 -14.7,85.2 -23.4,123.1 -598.4,-515.1 -2500.7,-1837.9 -6250.6,-1837.9 v 346.7 c 4405.5,0 6187.4,1904.3 6204.8,1923.6 39.5,43.3 98.2,63.8 156,54.5 57.9,-9.4 107.1,-47.4 130.8,-101 3.5,-7.8 85.4,-194.7 125.2,-457.1 70.2,-462.6 -121.9,-927.1 -501.3,-1212.1 -791.3,-594.4 -2638.3,-1591.7 -6117.9,-1591.7"
           style="fill:#ffffff;fill-opacity:1;fill-rule:nonzero;stroke:none"
           id="path140" />
        <path
           d="m 13040,23184.6 c 0,0 -926.5,3020.1 266.3,5737 226.7,516.4 777.1,815.4 1331,709.7 737.9,-140.7 1832,-541.9 2964.9,-1642.8 0,0 -3155.4,-796.3 -4562.2,-4803.9"
           style="fill:#fa9b27;fill-opacity:1;fill-rule:nonzero;stroke:none"
           id="path142" />
        <path
           d="m 13078.1,23767.7 c -198.2,974.2 -473.8,3123.9 386.9,5084.3 156.6,356.6 484.5,588 850.3,622.8 -340.8,-119.3 -621,-390.6 -747,-749 -560.6,-1594.1 -428.3,-3234.2 -210.5,-4351.1 -97.4,-192.4 -191,-394.7 -279.7,-607"
           style="fill:#fdd7a9;fill-opacity:1;fill-rule:nonzero;stroke:none"
           id="path144" />
        <path
           d="m 14411.7,29479.4 c -403.7,0 -776.4,-239.7 -946.7,-627.4 -860.7,-1960.4 -585.1,-4110.1 -386.9,-5084.3 748.9,1792.7 1846,2865 2668.7,3462 638.2,463.1 1199.5,712.5 1522.9,832.5 -1032.2,928.1 -2009.5,1273.9 -2664.8,1398.9 -64.7,12.3 -129.3,18.3 -193.2,18.3 M 13040,23011.3 c -1.2,0 -2.3,0 -3.5,0 -74.9,1.5 -140.3,50.9 -162.2,122.5 -38.7,125.8 -931.6,3113.2 273.3,5857.5 262.6,598 888.6,931 1522.2,810.3 746.6,-142.4 1882.3,-550.9 3053.1,-1688.7 45.1,-43.8 62.9,-108.6 46.7,-169.2 -16.3,-60.7 -64.1,-107.8 -125,-123.2 -7.5,-1.9 -779.3,-204 -1708,-881.4 -855.4,-623.9 -2024,-1791.8 -2733.1,-3811.9 -24.4,-69.5 -90,-115.9 -163.5,-115.9"
           style="fill:#ffffff;fill-opacity:1;fill-rule:nonzero;stroke:none"
           id="path146" />
        <path
           d="m 13736.5,24171.5 c 0,0 -643.8,2098.5 185,3986.3 157.5,358.8 540,566.5 924.9,493.1 512.7,-97.8 1272.9,-376.6 2060.1,-1141.5 0,0 -2192.5,-553.3 -3170,-3337.9"
           style="fill:#ffb380;fill-opacity:1;fill-rule:nonzero;stroke:none"
           id="path148" />
        <path
           d="m 13727.6,24783.5 c -127.5,743.3 -235.5,2088.3 307.3,3324.5 117.7,268.2 375.5,434 654.7,434 44.1,0 88.9,-4.2 133.6,-12.7 444.4,-84.8 1102,-315.8 1800.4,-927.2 -62.6,-30.7 -124.2,-62.2 -184.8,-94.5 -479,297.3 -914.2,436.3 -1245.8,499.5 -51.8,9.9 -103.6,14.7 -154.9,14.7 -328.9,0 -633.6,-197.4 -769.9,-507.8 -381.2,-868.1 -450.9,-1780.7 -415,-2513.4 -43.5,-72.6 -85.3,-144.9 -125.6,-217.1"
           style="fill:#c87137;fill-opacity:1;fill-rule:nonzero;stroke:none"
           id="path150" />
        <path
           d="m 14689.6,28542 c -279.2,0 -537,-165.8 -654.7,-434 -594.4,-1353.6 -408.4,-2837.6 -271,-3519.4 857,2051.9 2353.8,2771.5 2904.3,2974 -714.9,641 -1391.2,880.1 -1845,966.7 -44.7,8.5 -89.5,12.7 -133.6,12.7 m -953.1,-4494.4 -2.5,0.1 c -53.5,1 -100.2,36.3 -115.9,87.4 -26.8,87.5 -647.6,2164.5 190.1,4072.4 183,417 619.3,649.3 1061.4,565 519.1,-99 1308.9,-383 2123.1,-1174.3 32.2,-31.2 44.9,-77.5 33.3,-120.8 -11.6,-43.3 -45.7,-77 -89.3,-88 -21.1,-5.4 -2141.2,-574.9 -3083.4,-3259 -17.5,-49.6 -64.4,-82.8 -116.8,-82.8"
           style="fill:#a05a2c;fill-opacity:1;fill-rule:nonzero;stroke:none"
           id="path152" />
        <path
           d="m 26959.4,23184.6 c 0,0 926.5,3020.1 -266.4,5737 -226.7,516.4 -777.1,815.4 -1331,709.7 -737.9,-140.7 -1832,-541.9 -2964.8,-1642.8 0,0 3155.4,-796.3 4562.2,-4803.9"
           style="fill:#fa9b27;fill-opacity:1;fill-rule:nonzero;stroke:none"
           id="path154" />
        <path
           d="m 26921.2,23767.7 c -88.7,212.4 -182.2,414.5 -279.7,607.1 217.8,1116.8 350.1,2756.9 -210.4,4351 -126.1,358.5 -406.3,629.7 -747.1,749 365.8,-34.8 693.8,-266.2 850.3,-622.8 860.7,-1960.4 585.1,-4110.1 386.9,-5084.3"
           style="fill:#fdd7a9;fill-opacity:1;fill-rule:nonzero;stroke:none"
           id="path156" />
        <path
           d="m 22729.7,28062.2 c 323.3,-120 884.6,-369.4 1522.8,-832.5 822.7,-597 1919.9,-1669.3 2668.7,-3462 198.2,974.2 473.8,3123.9 -386.9,5084.3 -197.1,449 -665.7,699.4 -1139.8,609.1 -655.4,-125 -1632.6,-470.8 -2664.8,-1398.9 m 4229.6,-5050.9 c -73.4,0 -139.1,46.4 -163.5,115.9 -709.1,2020.1 -1877.7,3188 -2733.1,3811.9 -928.6,677.4 -1700.5,879.5 -1708.1,881.4 -60.8,15.6 -108.6,62.7 -124.8,123.4 -16.2,60.6 1.6,125.2 46.6,169 1170.8,1137.8 2306.6,1546.3 3053.1,1688.7 634,120.8 1259.7,-212.3 1522.3,-810.3 1204.8,-2744.3 311.9,-5731.7 273.3,-5857.5 -22,-71.6 -87.4,-121 -162.3,-122.5 -1.1,0 -2.3,0 -3.5,0"
           style="fill:#ffffff;fill-opacity:1;fill-rule:nonzero;stroke:none"
           id="path158" />
        <path
           d="m 26262.9,24171.5 c 0,0 643.8,2098.5 -185.1,3986.3 -157.5,358.8 -540,566.5 -924.8,493.1 -512.7,-97.8 -1273,-376.6 -2060.1,-1141.5 0,0 2192.5,-553.3 3170,-3337.9"
           style="fill:#ffb380;fill-opacity:1;fill-rule:nonzero;stroke:none"
           id="path160" />
        <path
           d="m 26271.7,24783.5 c -40.3,72.2 -82,144.5 -125.6,217.1 35.9,732.6 -33.8,1645.3 -414.9,2513.4 -136.3,310.4 -441,507.8 -770,507.8 -51.2,0 -103,-4.8 -154.9,-14.7 -331.6,-63.2 -766.8,-202.2 -1245.8,-499.5 -60.6,32.3 -122.2,63.8 -184.7,94.5 698.3,611.4 1356,842.4 1800.4,927.2 44.7,8.5 89.4,12.6 133.5,12.6 279.3,0 537,-165.6 654.8,-433.9 542.7,-1236.2 434.7,-2581.2 307.2,-3324.5"
           style="fill:#c87137;fill-opacity:1;fill-rule:nonzero;stroke:none"
           id="path162" />
        <path
           d="m 23331.1,27562.6 c 550.6,-202.5 2047.3,-922.1 2904.3,-2974 137.4,681.8 323.4,2165.8 -270.9,3519.4 -136.4,310.6 -460.3,483.7 -788.3,421.3 -453.9,-86.6 -1130.2,-325.7 -1845.1,-966.7 m 2931.8,-3515 c -52.5,0 -99.4,33.2 -116.8,82.8 -942.2,2684.1 -3062.4,3253.6 -3083.7,3259 -43.4,11.1 -77.5,44.8 -89.1,88.1 -11.5,43.3 1.2,89.5 33.3,120.7 814.2,791.2 1604,1075.3 2123.2,1174.3 441.7,84.2 878.4,-147.9 1061.4,-565 837.7,-1907.9 216.9,-3984.9 190.1,-4072.4 -15.7,-51.1 -62.5,-86.4 -115.9,-87.4 l -2.5,-0.1"
           style="fill:#a05a2c;fill-opacity:1;fill-rule:nonzero;stroke:none"
           id="path164" />
        <path
           d="m 19999.7,14551.4 c -5381.6,0 -8947.2,2881.4 -7438.5,6983.1 38.4,104.4 80.1,209.3 124.9,315.2 49,114.9 83.8,235.1 106.5,357.9 189.2,1038 1412.7,6119.1 7207.1,6119.1 5794.3,0 7017.8,-5081.1 7207.1,-6119.1 22.6,-122.8 57.4,-243 106.5,-357.9 1813.9,-4268.8 -1795,-7298.3 -7313.6,-7298.3"
           style="fill:#fa9b27;fill-opacity:1;fill-rule:nonzero;stroke:none"
           id="path166" />
        <path
           d="m 27438.2,21534.5 c 0,0 -837.1,73.8 -1506.1,-1146 -525.5,-957.3 -2102.2,-963.1 -2952,-375.4 -849.2,587.3 -1901.1,909.1 -2978.1,909.1 -1076.9,0 -2133.6,-321.8 -2982.8,-909.1 -849.7,-587.7 -2426.4,-581.9 -2952,375.4 -668.9,1219.8 -1506,1146 -1506,1146 -1508.7,-4101.7 2056.9,-6983.1 7438.5,-6983.1 5381.6,0 8947.2,2881.4 7438.5,6983.1"
           style="fill:#ffffff;fill-opacity:1;fill-rule:nonzero;stroke:none"
           id="path168" />
        <path
           d="m 19999.7,14551.4 v 0 c 1.6,0 3,0 4.7,0 v 0 c -1.7,0 -3.1,0 -4.7,0"
           style="fill:#b2b2d4;fill-opacity:1;fill-rule:nonzero;stroke:none"
           id="path170" />
        <path
           d="m 19999.7,14551.4 c -2.6,0 -5.3,0 -7.9,0 2.6,0 5.2,0 7.9,0 v 0 0 0 m 4.7,0 v 0 c 1,0 2.2,0 3.1,0 -0.9,0 -2.2,0 -3.1,0 m -16.6,0 c -1.3,0 -2.5,0 -3.8,0 1.3,0 2.5,0 3.8,0 m 23.8,0 h 0.3 c 1.3,0 2.1,0 3.4,0 -1.3,0 -2.4,0 -3.7,0 m 8.8,0 c 1,0 1.8,0 2.8,0 -1,0 -1.8,0 -2.8,0 m -43,0 c -0.3,0 -0.9,0 -1.2,0 0.3,0 0.9,0 1.2,0 m 49.8,0 h 0.2 c 1.3,0 2.4,0 3.7,0 -1.3,0 -2.6,0 -3.9,0 m -55.8,0 c -0.9,0 -2.1,0 -3.1,0 1,0 2.2,0 3.1,0 m 63.6,0.1 c 0.3,0 0.3,0 0.6,0 1,0 2.4,0 3.4,0 -1.3,0 -2.7,0 -4,0 m -70.8,0 c -1.3,0 -2.4,0 -3.7,0 1.3,0 2.4,0 3.7,0 m -6.9,0 c -1.6,0 -3.1,0 -4.7,0 1.6,0 3.1,0 4.7,0 m 85.9,0 c 0.3,0 0.3,0 0.7,0 1,0 1.9,0 2.9,0 -1,0 -2.7,0 -3.6,0 m -93.3,0 c -1.6,0 -3.5,0 -5.1,0 1.6,0 3.5,0 5.1,0 m 101.4,0 c 0.3,0 0.3,0 0.6,0 1,0 1.8,0 2.7,0 -0.9,0 -2.3,0 -3.3,0 m -109.8,0 c -1.3,0 -3.2,0 -4.5,0 1.6,0 2.8,0 4.5,0 m 117.4,0 h 0.6 c 0.9,0 2,0 3,0 -1,0 -2.7,0 -3.6,0 m -125.8,0.1 c -1.3,0 -2.7,0 -4,0 1.4,0 2.7,0 4,0 m 133.9,0 h 0.6 c 1,0 1.7,0 2.7,0 -1,0 -2.3,0 -3.3,0 m -141.2,0 c -1.3,0 -3.3,0 -4.6,0 1.7,0 2.9,0 4.6,0 m 149,0 c 0.3,0 0.4,0 0.7,0 1,0 1.7,0 2.7,0 -1,0 -2.4,0 -3.4,0 m -157.1,0 c -1.3,0 -2.9,0.1 -4.2,0.1 1.7,0 2.5,-0.1 4.2,-0.1 m 165.1,0 c 0.4,0 0.4,0 0.8,0.1 0.9,0 1.4,0 2.4,0 -1,0 -2.2,0 -3.2,-0.1 m -173.7,0.1 c -0.9,0 -2.4,0 -3.3,0 1.3,0 2,0 3.3,0 m 181.6,0 c 0.3,0 0.2,0 0.6,0 1,0 1.5,0 2.5,0 -1,0 -2.2,0 -3.1,0 m -189.4,0 c -0.9,0 -2.4,0.1 -3.4,0.1 1.3,0 2.1,-0.1 3.4,-0.1 m 197.5,0 c 0.3,0 0.3,0 0.6,0 1,0.1 1.2,0.1 2.2,0.1 -1,0 -1.8,-0.1 -2.8,-0.1 m -204.6,0.1 c -1.7,0 -2.6,0 -4.2,0 1.6,0 2.5,0 4.2,0 m 212.4,0 c 0.4,0 0.5,0 0.9,0 0.6,0 1.4,0 2,0 -0.9,0 -1.9,0 -2.9,0 m -220.2,0 c -1.7,0.1 -2.6,0.1 -4.2,0.1 1.3,0 2.8,0 4.2,-0.1 m 228.3,0.1 c 0.3,0 0.5,0 0.8,0 0.7,0 1.2,0 1.8,0 -0.9,0 -1.7,0 -2.6,0 m -236.4,0 c -1,0 -2.9,0 -3.8,0 1.3,0 2.5,0 3.8,0 m 244.1,0 c 0.3,0 0.5,0 0.9,0 0.6,0 1.2,0 1.8,0 -1,0 -1.7,0 -2.7,0 m -252.4,0.1 c -0.9,0 -2.3,0 -3.3,0 1,0 2.4,0 3.3,0 m 260.6,0 c 0.4,0 0.5,0 0.8,0 0.7,0 0.8,0 1.5,0 -1,0 -1.3,0 -2.3,0 m -268.4,0 c -1.3,0.1 -2,0.1 -3.3,0.1 1,0 2.3,0 3.3,-0.1 m 276.2,0.1 c 0.3,0 0.6,0 1,0 0.6,0 0.8,0 1.4,0 -1,0 -1.4,0 -2.4,0 m -284.3,0 c -0.9,0 -2,0 -2.9,0.1 1,-0.1 2,-0.1 2.9,-0.1 m 292.2,0 c 0.4,0 0.7,0 1.1,0 0.6,0 0.6,0 1.2,0.1 -0.6,-0.1 -1.6,-0.1 -2.3,-0.1 m -299.8,0.1 c -1.3,0 -1.9,0 -3.2,0 1,0 2.2,0 3.2,0 m 307.6,0 c 0.3,0 0.8,0 1.1,0 0.7,0 0.6,0 1.2,0 -0.6,0 -1.6,0 -2.3,0 m -315.6,0.1 c -1,0 -1.9,0 -2.9,0 1,0 1.9,0 2.9,0 m 323.8,0 c 0.6,0 0.4,0 1,0 0.4,0 0.6,0 0.9,0 -0.6,0 -1.3,0 -1.9,0 m -331.5,0.1 c -1,0 -2,0 -3,0 1,0 2,0 3,0 m 339.1,0 c 0.4,0 0.9,0 1.2,0 0.3,0 0.7,0 1,0 -0.7,0 -1.5,0 -2.2,0 m -347,0.1 c -1,0 -1.9,0 -2.9,0 1,0 1.9,0 2.9,0 m 355.1,0 c 0.4,0 0.8,0 1.2,0 0.3,0 0.3,0 0.7,0 -0.7,0 -1.2,0 -1.9,0 m -362.6,0 c -1.3,0.1 -1.9,0.1 -3.2,0.1 1,0 2.2,0 3.2,-0.1 m 370.4,0.1 c 0.3,0 0.9,0 1.2,0 0.4,0 0.3,0 0.7,0 -0.7,0 -1.2,0 -1.9,0 m -378.5,0 c -0.9,0.1 -1.9,0.1 -2.8,0.1 1,0 1.9,0 2.8,-0.1 m 386.7,0.1 c 0.3,0 0.9,0 1.2,0 0.3,0 -0.1,0 0.3,0 -0.3,0 -1.2,0 -1.5,0 m -394.4,0.1 c -1,0 -1.9,0 -2.9,0 1,0 1.9,0 2.9,0 m 402.1,0 c 0.4,0 1,0 1.3,0 0.3,0 0,0 0.3,0 -0.3,0 -1.2,0 -1.6,0 m -410,0.1 c -0.9,0 -1.8,0 -2.8,0 1,0 1.8,0 2.8,0 m 418,0 c 0.3,0 1,0 1.3,0 0.4,0 -0.2,0 0.1,0 -0.3,0 -1.1,0 -1.4,0 m -425.6,0.1 c -0.9,0 -2,0 -3,0 1,0 2.1,0 3,0 m 433.3,0 c 0.7,0 0.8,0 1.5,0 h 0.1 c -0.3,0 -1.2,0 -1.6,0 m -441.2,0.1 c -1,0 -1.8,0 -2.8,0 1,0 1.8,0 2.8,0 m -7.8,0.1 c -0.9,0 -1.8,0 -2.7,0 0.9,0 1.8,0 2.7,0 m -8,0.1 c -1,0 -1.4,0.1 -2.4,0.1 1,-0.1 1.4,-0.1 2.4,-0.1 m 485.7,0.1 c 1,0.1 1.6,0.1 2.6,0.1 -0.9,0 -1.7,0 -2.6,-0.1 m -493.4,0.1 c -0.9,0 -1.5,0 -2.5,0 1,0 1.6,0 2.5,0 m -8.2,0.1 c -0.7,0 -1.2,0 -1.9,0 0.7,0 1.2,0 1.9,0 m 517.7,0.1 c 0.7,0 1.4,0 2.1,0.1 -0.6,-0.1 -1.5,-0.1 -2.1,-0.1 m -525.3,0 c -1,0 -1.1,0 -2.1,0.1 0.7,-0.1 1.4,-0.1 2.1,-0.1 m 532.9,0.2 c 0.7,0 1.6,0 2.3,0 -0.7,0 -1.6,0 -2.3,0 m -540.7,0 c -0.6,0 -1.4,0 -2,0 0.6,0 1.4,0 2,0 m 547.9,0.1 c 1,0 2.1,0 3.1,0 -1.3,0 -1.8,0 -3.1,0 m -555.4,0 c -1,0 -1.4,0 -2.3,0 0.6,0 1.6,0 2.3,0 m 563.7,0.1 c 1,0.1 1.4,0.1 2.4,0.1 -0.7,0 -1.8,0 -2.4,-0.1 m -571.9,0.1 c -0.6,0 -1,0 -1.7,0 0.7,0 1.1,0 1.7,0 m 579.6,0.1 c 1,0 1.6,0 2.6,0 -0.9,0 -1.7,0 -2.6,0 m -587.2,0 c -0.7,0 -1.2,0 -1.9,0 0.7,0 1.2,0 1.9,0 m 594.7,0.1 c 1,0.1 2,0.1 3,0.1 -1,0 -2,0 -3,-0.1 m -602.4,0.1 c -0.7,0 -1.3,0 -1.9,0 0.6,0 1.2,0 1.9,0 m 609.9,0.1 c 1.4,0 2.1,0 3.5,0.1 -1,-0.1 -2.5,-0.1 -3.5,-0.1 m -617.5,0 c -0.7,0 -1.5,0 -2.1,0.1 0.7,-0.1 1.4,-0.1 2.1,-0.1 m 625.5,0.2 c 1,0 2.1,0 3.1,0 -1,0 -2.1,0 -3.1,0 m -633.5,0 c -0.6,0 -1.1,0 -1.7,0 0.6,0 1.1,0 1.7,0 m 641.4,0.1 c 1,0.1 2.1,0.1 3.1,0.1 -1,0 -2.1,0 -3.1,-0.1 m -649.3,0.1 c -0.6,0 -0.8,0 -1.4,0 0.6,0 0.8,0 1.4,0 m 656.9,0.1 c 1,0 2.4,0.1 3.4,0.1 -1,0 -2.4,-0.1 -3.4,-0.1 m -664.7,0 c -0.3,0 -1,0 -1.3,0.1 0.6,-0.1 0.6,-0.1 1.3,-0.1 m 672.5,0.2 c 1,0 2.4,0 3.4,0.1 -1.3,-0.1 -2.1,-0.1 -3.4,-0.1 m -680.3,0 c -0.3,0 -0.8,0 -1.2,0 0.4,0 0.9,0 1.2,0 m 688.3,0.2 c 1,0 2,0 3,0 -1,0 -2,0 -3,0 m -696.3,0 h -0.7 c 0.3,0 0.4,0 0.7,0 m 704.1,0.1 c 1.3,0.1 1.9,0.1 3.2,0.1 -1.3,0 -1.9,0 -3.2,-0.1 m -711.6,0.1 c -0.3,0 -0.7,0 -1.1,0 0.4,0 0.8,0 1.1,0 m 719.4,0.1 c 1,0.1 2.1,0.1 3,0.1 -0.9,0 -2,0 -3,-0.1 m -727.1,0.1 c -0.3,0 -0.7,0 -1.1,0 0.4,0 0.8,0 1.1,0 m 734.8,0.1 c 1,0.1 2.4,0.1 3.4,0.1 -1,0 -2.4,0 -3.4,-0.1 m -742.5,0 c -0.3,0.1 -0.7,0.1 -1,0.1 0.3,0 0.7,0 1,-0.1 m 750.4,0.2 c 1,0.1 2,0.1 3,0.1 -1,0 -2,0 -3,-0.1 m -758.3,0 -0.7,0.1 c 0.3,0 0.4,0 0.7,-0.1 m 766.3,0.2 c 1,0.1 1.6,0.1 2.6,0.1 -0.9,0 -1.7,0 -2.6,-0.1 m -774,0 -0.7,0.1 c 0.4,0 0.4,0 0.7,-0.1 m 781.7,0.2 c 0.7,0.1 2,0.1 2.7,0.1 -1,0 -1.7,0 -2.7,-0.1 m -789.6,0.1 h -0.3 c 0.3,0 0,0 0.3,0 m 797.4,0.2 c 0.7,0 2,0 2.7,0 -1,0 -1.7,0 -2.7,0 m -804.8,0 h -0.8 c 0.3,0 0.4,0 0.8,0 m 812.6,0.2 c 1,0 1.5,0 2.5,0 -1,0 -1.5,0 -2.5,0 m -820.6,0 h -0.3 c 0.3,0 0,0 0.3,0 m 828.5,0.2 c 1,0 1.3,0 2.3,0 -1,0 -1.4,0 -2.3,0 m -836.3,0 v 0 0 m 844,0.2 c 0.9,0 1.4,0 2.4,0.1 -0.9,-0.1 -1.5,-0.1 -2.4,-0.1 m 7.8,0.2 c 0.6,0 1.4,0.1 2,0.1 -0.6,0 -1.4,-0.1 -2,-0.1 m 7.9,0.3 c 0.3,0 0.3,0 0.6,0 -0.3,0 -0.3,0 -0.6,0 m 60.5,1.9 c 0.3,0 0.7,0 1,0 -0.3,0 -0.7,0 -1,0 m 8.1,0.3 c 0.3,0 0.1,0 0.5,0 h -0.5 m 7.3,0.2 c 0.3,0 0.6,0.1 0.9,0.1 -0.3,0 -0.6,-0.1 -0.9,-0.1 m 7.3,0.3 c 0.7,0 0.7,0 1.4,0 -0.3,0 -1.1,0 -1.4,0 m 7.7,0.3 c 0.4,0 1,0 1.4,0 -0.3,0 -1.1,0 -1.4,0 m 7.7,0.2 c 0.3,0.1 1,0.1 1.3,0.1 -0.3,0 -1,0 -1.3,-0.1 m 7.8,0.3 c 0.3,0.1 0.9,0.1 1.2,0.1 -0.3,0 -0.9,0 -1.2,-0.1 m 7.4,0.3 c 0.7,0 0.9,0.1 1.6,0.1 -0.6,0 -1,-0.1 -1.6,-0.1 m 7.7,0.3 c 0.6,0 0.9,0 1.6,0.1 -0.7,-0.1 -1,-0.1 -1.6,-0.1 m 7.7,0.3 c 0.3,0 1.2,0.1 1.5,0.1 -0.6,-0.1 -0.9,-0.1 -1.5,-0.1 m 7.7,0.3 c 0.4,0 1.2,0.1 1.5,0.1 -0.6,-0.1 -0.8,-0.1 -1.5,-0.1 m 7.6,0.3 c 0.6,0 1,0 1.6,0.1 -0.6,-0.1 -1,-0.1 -1.6,-0.1 m 7.8,0.3 c 0.7,0.1 0.7,0.1 1.3,0.1 -0.6,0 -0.6,0 -1.3,-0.1 m 7.7,0.3 c 0.3,0 1,0.1 1.3,0.1 -0.6,0 -0.7,0 -1.3,-0.1 m 7.7,0.4 c 0.3,0 1,0 1.3,0 -0.6,0 -0.7,0 -1.3,0 m 7.5,0.3 c 0.6,0 0.9,0 1.6,0 -0.6,0 -1,0 -1.6,0 m 7.8,0.3 c 0.7,0 0.4,0 1.1,0 -0.3,0 -0.8,0 -1.1,0 m 7.9,0.3 c 0.3,0.1 0,0 0.4,0.1 l -0.4,-0.1 m 15.3,0.7 v 0 0"
           style="fill:#000072;fill-opacity:1;fill-rule:nonzero;stroke:none"
           id="path172" />
        <path
           d="m 20010.3,14551.4 c 0.4,0 1.2,0 1.6,0 h -0.3 c -0.3,0 -0.9,0 -1.3,0 m 16.4,0 c 0.3,0 0.3,0 0.7,0 h -0.2 -0.5 m 6.6,0.1 c 0.9,0 1.4,0 2.3,0 -0.3,0 -0.3,0 -0.6,0 -0.6,0 -1.1,0 -1.7,0 m 7.7,0 c 0.9,0 1.9,0 2.9,0 -0.4,0 -0.4,0 -0.7,0 -1,0 -1.3,0 -2.2,0 m 8.4,0 c 0.9,0 1.5,0 2.5,0 -0.3,0 -0.3,0 -0.6,0 -0.6,0 -1.3,0 -1.9,0 m 7.6,0 c 1,0 1.5,0 2.5,0 h -0.6 c -0.7,0 -1.2,0 -1.9,0 m 8.1,0.1 c 0.9,0 1.5,0 2.5,0 h -0.6 c -0.7,0 -1.3,0 -1.9,0 m 7.7,0 c 0.9,0 1.8,0 2.7,0 -0.3,0 -0.4,0 -0.7,0 -0.6,0 -1.4,0 -2,0 m 7.5,0 c 1,0 2.3,0 3.3,0.1 -0.4,-0.1 -0.4,-0.1 -0.8,-0.1 -0.6,0 -1.8,0 -2.5,0 m 8.3,0.1 c 1,0 1.7,0 2.7,0 -0.4,0 -0.3,0 -0.6,0 -0.7,0 -1.5,0 -2.1,0 m 8.3,0 c 0.6,0 1.9,0 2.5,0 -0.3,0 -0.3,0 -0.6,0 -0.7,0 -1.3,0 -1.9,0 m 7.4,0.1 c 1.3,0 1.9,0 3.2,0 -0.4,0 -0.5,0 -0.9,0 -0.9,0 -1.3,0 -2.3,0 m 7.5,0 c 1.3,0 2.4,0.1 3.7,0.1 -0.3,0 -0.5,0 -0.8,0 -1,-0.1 -1.9,-0.1 -2.9,-0.1 m 7.9,0.1 c 1.3,0 2.2,0 3.6,0 -0.4,0 -0.6,0 -0.9,0 -1,0 -1.7,0 -2.7,0 m 8.3,0.1 c 1,0 2.4,0 3.4,0 -0.3,0 -0.4,0 -0.8,0 -0.6,0 -2,0 -2.6,0 m 7.6,0 c 1.3,0 2.5,0.1 3.8,0.1 -0.4,0 -0.7,0 -1,0 -1,-0.1 -1.8,-0.1 -2.8,-0.1 m 7.5,0.1 c 1.3,0 3,0 4.3,0 -0.4,0 -0.7,0 -1.1,0 -1.2,0 -1.9,0 -3.2,0 m 7.7,0.1 c 1.3,0 3.1,0 4.4,0 -0.3,0 -0.8,0 -1.1,0 -1.3,0 -2,0 -3.3,0 m 8,0.1 c 1.6,0 2.9,0 4.5,0 -0.6,0 -0.4,0 -1,0 -1.3,0 -2.2,0 -3.5,0 m 7.7,0 c 1.6,0.1 3,0.1 4.6,0.1 -0.3,0 -0.8,0 -1.2,0 -1.2,0 -2.2,0 -3.4,-0.1 m 7.8,0.1 c 1.6,0.1 3.2,0.1 4.9,0.1 -0.4,0 -0.8,0 -1.2,0 -1.3,0 -2.4,-0.1 -3.7,-0.1 m 7.8,0.1 c 1.6,0 3.3,0.1 4.9,0.1 -0.3,0 -0.9,0 -1.2,0 -1.3,0 -2.4,-0.1 -3.7,-0.1 m 7.9,0.1 c 1.6,0 3.6,0.1 5.2,0.1 -0.3,0 -0.9,0 -1.2,0 -1.7,0 -2.4,-0.1 -4,-0.1 m 7.7,0.1 c 1.6,0 3.7,0.1 5.3,0.1 -0.3,0 -0.9,0 -1.3,0 -1.6,0 -2.4,-0.1 -4,-0.1 m 7.8,0.1 c 1.6,0.1 3.9,0.1 5.5,0.1 -0.3,0 -1,0 -1.3,0 -1.7,0 -2.6,0 -4.2,-0.1 m 7.5,0.1 c 2.2,0.1 3.6,0.1 5.9,0.1 -0.7,0 -0.8,0 -1.5,0 -1.6,0 -2.8,0 -4.4,-0.1 m 7.7,0.1 c 2.3,0.1 3.9,0.1 6.1,0.1 -2.2,0 -3.9,0 -6.1,-0.1 m 7.6,0.2 c 2.3,0 4.1,0 6.4,0.1 -2.3,-0.1 -4.2,-0.1 -6.4,-0.1 m 7.7,0.1 c 2.3,0 4.2,0 6.5,0.1 -2.3,-0.1 -4.2,-0.1 -6.5,-0.1 m 7.6,0.1 c 2.3,0 4.4,0.1 6.7,0.1 -0.6,0 -0.9,0 -1.6,0 -1,0 -1.6,0 -2.6,-0.1 -0.7,0 -1.8,0 -2.5,0 m 7.9,0.1 c 2.3,0.1 4.3,0.1 6.6,0.1 -2.3,0 -4.4,0 -6.6,-0.1 m 7.6,0.2 c 2.3,0 4.6,0 6.9,0.1 -0.6,0 -1.1,0 -1.7,0 -0.7,-0.1 -1.4,-0.1 -2.1,-0.1 -1,0 -2.1,0 -3.1,0 m 7.6,0.1 c 2.6,0 4.6,0.1 7.2,0.1 -0.7,0 -1.2,0 -1.8,0 -0.7,0 -1.6,0 -2.3,0 -0.9,-0.1 -2.2,-0.1 -3.1,-0.1 m 7.5,0.1 c 2.6,0.1 4.8,0.1 7.4,0.2 -0.3,0 -1.2,0 -1.5,-0.1 -1,0 -2.1,0 -3.1,0 -0.7,0 -2.1,-0.1 -2.8,-0.1 m 7.9,0.2 c 2.6,0 4.7,0.1 7.3,0.1 -0.7,0 -1.1,0 -1.7,0 -1,0 -1.4,0 -2.4,-0.1 -1,0 -2.2,0 -3.2,0 m 7.9,0.1 c 2.6,0.1 4.7,0.1 7.2,0.2 -0.3,0 -1.2,0 -1.6,-0.1 -1,0 -1.6,0 -2.6,0 -1,0 -2,0 -3,-0.1 m 7.5,0.2 c 2858.9,57.2 5174.1,939.6 6438.8,2388.7 -1212.6,-1389.5 -3391.3,-2257.9 -6089,-2377.5 v 0 c -5.1,-0.2 -9.9,-0.4 -14.9,-0.6 -0.4,-0.1 -0.1,0 -0.4,-0.1 -2.2,-0.1 -4.6,-0.2 -6.8,-0.3 -0.7,0 -0.4,0 -1.1,0 -2.2,-0.1 -4,-0.2 -6.2,-0.3 -0.7,0 -1,0 -1.6,0 -2,-0.1 -4.3,-0.2 -6.2,-0.3 -0.3,0 -1,0 -1.3,0 -1.9,-0.1 -4.5,-0.2 -6.4,-0.3 -0.3,0 -1,-0.1 -1.3,-0.1 -1.9,0 -4.5,-0.1 -6.4,-0.2 -0.6,0 -0.6,0 -1.3,-0.1 -1.9,-0.1 -4.3,-0.1 -6.2,-0.2 -0.6,-0.1 -1,-0.1 -1.6,-0.1 -1.9,-0.1 -4.2,-0.2 -6.1,-0.2 -0.3,0 -1.1,-0.1 -1.5,-0.1 -1.9,-0.1 -4.3,-0.2 -6.2,-0.2 -0.3,0 -1.2,-0.1 -1.5,-0.1 -1.9,-0.1 -4.2,-0.2 -6.1,-0.2 -0.7,-0.1 -1,-0.1 -1.6,-0.1 -1.9,-0.1 -4.2,-0.1 -6.1,-0.2 -0.7,0 -0.9,-0.1 -1.6,-0.1 -2.2,-0.1 -4,-0.1 -6.2,-0.2 -0.3,0 -0.9,0 -1.2,-0.1 -2.2,0 -4.2,-0.1 -6.5,-0.2 -0.3,0 -1,0 -1.3,-0.1 -2.2,0 -4.1,-0.1 -6.3,-0.2 -0.4,0 -1,0 -1.4,0 -2.2,-0.1 -4.1,-0.2 -6.3,-0.3 -0.7,0 -0.7,0 -1.4,0 -2.2,-0.1 -4.1,-0.2 -6.4,-0.2 -0.3,0 -0.6,-0.1 -0.9,-0.1 -2.3,0 -4.6,-0.1 -6.8,-0.2 -0.4,0 -0.2,0 -0.5,0 -2.5,-0.1 -4.6,-0.2 -7.1,-0.3 -0.3,0 -0.7,0 -1,0 -19.8,-0.7 -40,-1.3 -59.9,-1.9 -0.3,0 -0.3,0 -0.6,0 -1.9,-0.1 -4,-0.2 -5.9,-0.2 -0.6,0 -1.4,-0.1 -2,-0.1 -1.9,0 -3.5,-0.1 -5.4,-0.1 -1,-0.1 -1.5,-0.1 -2.4,-0.1 -1.6,0 -3.8,-0.1 -5.4,-0.2 -1,0 -1.3,0 -2.3,0 -1.6,-0.1 -3.8,-0.1 -5.4,-0.2 -1,0 -1.5,0 -2.5,0 -1.6,-0.1 -3.5,-0.1 -5.1,-0.2 -0.7,0 -2,0 -2.7,0 -1.6,-0.1 -3.5,-0.1 -5.1,-0.2 -0.7,0 -2,0 -2.7,-0.1 -1.6,0 -3.5,-0.1 -5.1,-0.1 -1,0 -1.6,0 -2.6,-0.1 -1.6,0 -3.4,-0.1 -5,-0.1 -1,0 -2,0 -3,-0.1 -1.6,0 -2.9,0 -4.5,-0.1 -1,0 -2.4,0 -3.4,-0.1 -1.6,0 -3,0 -4.7,-0.1 -0.9,0 -2,0 -3,-0.1 -1.6,0 -3,0 -4.6,-0.1 -1.3,0 -1.9,0 -3.2,-0.1 -1.6,0 -3.2,0 -4.8,-0.1 -1,0 -2,0 -3,0 -1.3,-0.1 -3.3,-0.1 -4.6,-0.1 -1,-0.1 -2.4,-0.1 -3.4,-0.1 -1.6,-0.1 -2.8,-0.1 -4.4,-0.1 -1,0 -2.4,-0.1 -3.4,-0.1 -1.6,0 -2.9,-0.1 -4.5,-0.1 -1,0 -2.1,0 -3.1,-0.1 -1.6,0 -3.2,0 -4.8,-0.1 -1,0 -2.1,0 -3.1,0 -1.6,-0.1 -2.9,-0.1 -4.5,-0.1 -1.4,-0.1 -2.1,-0.1 -3.5,-0.1 -1.6,0 -2.9,-0.1 -4.5,-0.1 -1,0 -2,0 -3,-0.1 -1,0 -2,0 -3,0 m 6439.6,2389.6 c 0.8,0.9 1.6,1.8 2.5,2.8 -0.8,-0.8 -1.8,-2 -2.5,-2.8 m 4,4.6 c 0.6,0.7 1.1,1.2 1.6,1.9 -0.5,-0.7 -1,-1.2 -1.6,-1.9 m 4,4.5 c 0.2,0.4 0.6,0.8 0.9,1.1 -0.4,-0.5 -0.5,-0.6 -0.9,-1.1"
           style="fill:#af6c3e;fill-opacity:1;fill-rule:nonzero;stroke:none"
           id="path174" />
        <path
           d="m 19999.7,14551.4 c -2.7,0 -5.3,0 -7.9,0 -1.3,0 -2.7,0 -4,0 -1.3,0 -2.5,0 -3.8,0 -2.3,0 -4.3,0 -6.6,0 -0.3,0 -0.9,0 -1.2,0 -1.6,0 -3.1,0 -4.8,0 -0.9,0 -2.1,0 -3.1,0 -1.3,0.1 -2.8,0.1 -4.1,0.1 -1.3,0 -2.4,0 -3.7,0 -1,0 -2.2,0 -3.2,0 -1.6,0 -3.1,0 -4.7,0 -1,0 -1.7,0 -2.7,0 -1.6,0 -3.5,0 -5.1,0 -1.3,0 -2,0 -3.3,0 -1.7,0 -2.9,0 -4.5,0 -1.3,0.1 -2.6,0.1 -3.9,0.1 -1.3,0 -2.6,0 -4,0 -1.3,0 -2,0 -3.3,0 -1.7,0 -2.9,0 -4.6,0 -1.3,0 -2.2,0 -3.5,0 -1.7,0 -2.5,0.1 -4.2,0.1 -1.6,0 -2.7,0 -4.4,0 -1.3,0 -2,0 -3.3,0 -1.7,0 -2.8,0 -4.5,0 -1.3,0 -2.1,0.1 -3.4,0.1 -1.3,0 -2.4,0 -3.7,0 -1.7,0 -2.6,0 -4.2,0 -1,0 -2.7,0 -3.6,0 -1.4,0.1 -2.9,0.1 -4.2,0.1 -1.3,0 -2.6,0 -3.9,0 -1.3,0 -2.5,0 -3.8,0 -1.7,0.1 -2.8,0.1 -4.5,0.1 -0.9,0 -2.3,0 -3.3,0 -1.6,0 -2.9,0 -4.5,0 -1,0.1 -2.3,0.1 -3.3,0.1 -1.3,0 -3.5,0 -4.8,0 -0.9,0 -1.9,0 -2.9,0.1 -1.6,0 -3.1,0 -4.7,0 -1,0 -2.2,0 -3.2,0 -1.6,0 -3.2,0.1 -4.8,0.1 -1,0 -1.9,0 -2.9,0 -1.6,0 -3.2,0 -4.8,0.1 -1,0 -2,0 -3,0 -1.6,0 -3.3,0 -4.9,0.1 -1,0 -1.9,0 -2.9,0 -1.3,0 -3.3,0 -4.6,0 -1,0.1 -2.2,0.1 -3.2,0.1 -1.6,0 -3.2,0 -4.9,0 -0.9,0.1 -1.8,0.1 -2.8,0.1 -1.6,0 -3.3,0 -4.9,0.1 -1,0 -1.9,0 -2.9,0 -1.6,0 -3.4,0 -5,0.1 -1,0 -1.8,0 -2.8,0 -1.6,0 -3.2,0 -4.8,0.1 -0.9,0 -2,0 -3,0 -1.6,0 -3.3,0.1 -4.9,0.1 -1,0 -1.8,0 -2.8,0 -1.6,0 -3.4,0.1 -5,0.1 -0.9,0 -1.8,0 -2.7,0 -1.6,0.1 -3.7,0.1 -5.3,0.1 -1,0 -1.4,0 -2.4,0.1 -1.6,0 -3.6,0 -5.3,0.1 -0.9,0 -1.5,0 -2.5,0 -1.9,0 -3.8,0.1 -5.7,0.1 -0.7,0 -1.2,0 -1.9,0 -1.6,0.1 -4.1,0.1 -5.7,0.1 -0.7,0 -1.4,0 -2.1,0.1 -1.9,0 -3.8,0 -5.7,0.1 -0.6,0 -1.4,0 -2,0 -1.6,0 -3.9,0.1 -5.5,0.1 -0.7,0 -1.7,0 -2.3,0 -1.9,0.1 -4,0.1 -5.9,0.2 -0.6,0 -1,0 -1.7,0 -1.9,0 -4,0.1 -5.9,0.1 -0.7,0 -1.2,0 -1.9,0 -1.9,0.1 -3.9,0.1 -5.8,0.2 -0.7,0 -1.3,0 -1.9,0 -2,0 -3.8,0.1 -5.7,0.1 -0.7,0 -1.4,0 -2.1,0.1 -1.9,0 -3.9,0 -5.9,0.1 -0.6,0 -1.1,0 -1.7,0 -1.9,0.1 -4.2,0.1 -6.2,0.2 -0.6,0 -0.8,0 -1.4,0 -1.9,0 -4.5,0.1 -6.4,0.1 -0.7,0 -0.7,0 -1.3,0.1 -2.3,0 -4.2,0.1 -6.5,0.1 -0.3,0 -0.8,0 -1.2,0 -2.5,0.1 -4.2,0.1 -6.8,0.2 -0.3,0 -0.4,0 -0.7,0 -2.3,0.1 -4.5,0.1 -6.8,0.2 -0.3,0 -0.7,0 -1.1,0 -2.2,0 -4.3,0.1 -6.6,0.2 -0.3,0 -0.7,0 -1.1,0 -2.2,0 -4.3,0.1 -6.6,0.1 -0.3,0.1 -0.7,0.1 -1,0.1 -2.6,0 -4.3,0.1 -6.9,0.1 -0.3,0.1 -0.4,0.1 -0.7,0.1 -2.6,0 -4.5,0.1 -7,0.1 -0.3,0.1 -0.3,0.1 -0.7,0.1 -2.5,0 -4.6,0.1 -7.2,0.2 -0.3,0 0,0 -0.3,0 -2.6,0 -4.6,0.1 -7.1,0.2 -0.4,0 -0.5,0 -0.8,0 -2.5,0 -4.6,0.1 -7.2,0.2 -0.3,0 0,0 -0.3,0 -2.5,0.1 -5,0.1 -7.5,0.2 v 0 c -4200.2,118.8 -7198.7,2031 -7360.5,4901.6 22,400.1 96.5,816.5 228.1,1247.5 -76,-3070.1 3095.6,-5106.1 7550.7,-5106.1 4456,0 7627.5,2036.3 7550.3,5107.2 131.7,-430 206.6,-845.7 228.9,-1245 20.8,374.3 -6.5,764.6 -85.6,1169.5 280.7,-1434.2 -88.7,-2687.7 -947.3,-3677.8 -0.3,-0.3 -0.7,-0.7 -0.9,-1.1 -0.7,-0.8 -1.7,-1.8 -2.4,-2.6 -0.5,-0.7 -1,-1.2 -1.6,-1.9 -0.5,-0.6 -1,-1.1 -1.5,-1.8 -0.9,-1 -1.7,-1.9 -2.5,-2.8 -0.3,-0.4 -0.5,-0.6 -0.8,-0.9 -1264.7,-1449.1 -3579.9,-2331.5 -6438.8,-2388.7 -0.3,0 0.1,0 -0.3,0 -2.5,-0.1 -4.6,-0.1 -7.2,-0.2 -0.3,0 -0.3,0 -0.6,0 -2.6,0 -4.7,-0.1 -7.3,-0.1 -0.3,0 -0.2,0 -0.5,0 -2.6,-0.1 -4.8,-0.1 -7.4,-0.2 -0.3,0 0,0 -0.3,0 -2.6,0 -4.6,-0.1 -7.2,-0.1 -0.4,0 -0.4,0 -0.7,0 -2.3,-0.1 -4.6,-0.1 -6.9,-0.1 -0.3,0 -0.7,0 -1,-0.1 -2.3,0 -4.3,0 -6.6,-0.1 -0.3,0 -0.9,0 -1.2,0 -2.3,0 -4.4,-0.1 -6.7,-0.1 -0.3,0 -0.8,0 -1.1,0 -2.3,-0.1 -4.2,-0.1 -6.5,-0.1 -0.3,0 -1,0 -1.3,0 -2.3,-0.1 -4.1,-0.1 -6.4,-0.1 -0.3,0 -1.1,-0.1 -1.5,-0.1 -2.2,0 -3.8,0 -6.1,-0.1 -0.7,0 -1.1,0 -1.7,0 h -0.1 c -2.3,0 -3.7,0 -5.9,-0.1 -0.7,0 -1.2,0 -1.9,0 -0.3,0 0.3,0 -0.1,0 -1.6,0 -3.9,0 -5.5,-0.1 -0.7,0 -1.6,0 -2.2,0 -0.3,0 0,0 -0.3,0 -1.6,0 -3.7,-0.1 -5.3,-0.1 -0.7,0 -1.6,0 -2.2,0 -0.4,0 0,0 -0.3,0 -1.6,0 -3.6,-0.1 -5.2,-0.1 -0.7,0 -1.7,0 -2.3,0 -0.4,0 -0.3,0 -0.7,0 -1.6,0 -3.3,-0.1 -4.9,-0.1 -0.7,0 -1.6,0 -2.2,0 -0.4,0 -0.4,0 -0.7,0 -1.7,0 -3.3,0 -4.9,-0.1 -0.6,0 -1.6,0 -2.2,0 -0.3,0 -0.7,0 -1,0 -1.6,0 -3,0 -4.6,-0.1 -0.7,0 -1.6,0 -2.3,0 -0.3,0 -0.5,0 -0.9,0 -1.6,0 -2.9,0 -4.5,0 -0.7,0 -1.7,-0.1 -2.4,-0.1 -0.6,0 -0.5,0 -1.2,0 -1.3,0 -3.1,0 -4.4,0 -0.7,0 -1.5,0 -2.2,0 -0.6,-0.1 -0.6,-0.1 -1.2,-0.1 -1.3,0 -3,0 -4.3,0 -0.7,0 -1.6,0 -2.3,0 -0.6,0 -0.8,0 -1.4,0 -1.3,0 -2.5,-0.1 -3.8,-0.1 -0.6,0 -2.1,0 -2.7,0 -0.7,0 -0.8,0 -1.5,0 -1,0 -2.4,0 -3.4,0 -1,0 -1.9,-0.1 -2.9,-0.1 -0.6,0 -1.2,0 -1.8,0 -1.4,0 -2.3,0 -3.6,0 -0.7,0 -1.7,0 -2.4,0 -0.6,0 -1.1,0 -1.8,0 -1.3,0 -2.4,-0.1 -3.7,-0.1 -0.7,0 -1.6,0 -2.3,0 -0.6,0 -1.4,0 -2,0 -1.3,0 -1.9,0 -3.2,0 -0.6,0 -2,0 -2.7,0 -1,0 -1.2,0 -2.2,-0.1 -0.6,0 -1.9,0 -2.5,0 -1.3,0 -1.8,0 -3.1,0 -1,0 -1.5,0 -2.5,0 -1,0 -1.7,0 -2.7,0 -1,0 -1.6,0 -2.6,0 -1,0 -1.5,0 -2.4,0 -1,-0.1 -2.3,-0.1 -3.3,-0.1 -0.9,0 -1.1,0 -2.1,0 -1,0 -1.7,0 -2.7,0 -0.9,0 -1.8,0 -2.7,0 -1,0 -1.5,0 -2.5,0 -1,0 -1.7,0 -2.7,0 -1,0 -1.6,0 -2.5,0 -1,0 -1.6,0 -2.6,-0.1 -1,0 -2.1,0 -3,0 -1,0 -1.5,0 -2.5,0 -1,0 -1.4,0 -2.4,0 -0.9,0 -1.7,0 -2.7,0 -1,0 -1.6,0 -2.5,0 -1,0 -1.6,0 -2.6,0 -1,0 -1.9,0 -2.9,0 -1,0 -2,0 -2.9,0 -0.7,0 -1.4,0 -2,0 -1,0 -2.4,0 -3.4,0 -0.9,0 -1.4,0 -2.3,0 -0.7,0 -1.5,-0.1 -2.2,-0.1 -1.3,0 -2.4,0 -3.7,0 -0.4,0 -0.4,0 -0.7,0 -1.3,0 -2.2,0 -3.5,0 -1,0 -1.8,0 -2.8,0 -1.6,0 -3.4,0 -5.1,0 -1.3,0 -2.1,0 -3.4,0 -0.4,0 -1.2,0 -1.6,0 -0.9,0 -1.8,0 -2.8,0 -0.9,0 -2.1,0 -3.1,0 -1.7,0 -3.1,0 -4.7,0 v 0 m 7693.3,6082.3 c 0,0.2 -0.1,0.3 -0.1,0.5 l 0.1,-0.5"
           style="fill:#b2b2d4;fill-opacity:1;fill-rule:nonzero;stroke:none"
           id="path176" />
        <path
           d="m 18672.6,20756.8 c 372.1,277.5 1112.6,294.5 1288.8,294.5 24.7,0 38.3,-0.3 38.3,-0.3 0,0 13.6,0.3 38.2,0.3 176.1,0 914.7,-17 1287.4,-293.4 -428.1,108.2 -873.5,164.3 -1323.3,164.3 -451.3,0 -899,-56.5 -1329.4,-165.4"
           style="fill:#af6c3e;fill-opacity:1;fill-rule:nonzero;stroke:none"
           id="path178" />
        <path
           d="m 20002,15883.9 c -1730.1,0 -2505.7,1958.8 -2668.8,2435.4 -22.9,66.8 -61.7,126.4 -111.3,176.8 -582.3,592 -202.8,1302.2 -202.8,1302.2 0,0 274.1,-646 1066.3,-646 31.7,0 64.4,1 97.8,3.2 334.2,21.6 575.7,105.4 749.9,209.3 66.7,39.8 72.3,135.8 9.9,181.9 -355.9,263.3 -567,630 -464.8,953.1 32.9,104 102.4,188.5 194.4,257 430.4,108.9 878.1,165.4 1329.4,165.4 449.8,0 895.2,-56.1 1323.3,-164.3 92.7,-68.7 162.7,-153.5 195.8,-258.1 102,-322.5 -108.1,-688.4 -462.8,-951.6 -62.2,-46.1 -56.6,-141.8 9.8,-181.7 174.4,-104.7 416.8,-189.3 752.7,-211 33.5,-2.2 66.1,-3.2 97.9,-3.2 792,0 1066.3,646 1066.3,646 0,0 379.5,-710.2 -202.9,-1302.2 -49.5,-50.4 -88.3,-110 -111.2,-176.8 -163.1,-476.6 -938.8,-2435.4 -2668.9,-2435.4 m -260.4,183.7 c 82.8,-12.9 168.8,-19.6 258.1,-19.6 0.8,0 1.6,0 2.4,0 0.2,0 0.5,0 0.7,0 0.6,0 1.2,0 1.7,0 0.4,0 0.6,0 0.9,0 0.5,0 1,0 1.5,0 0.4,0 0.7,0 1,0 0.5,0 1,0 1.4,0 0.3,0 0.8,0 1.1,0 0.5,0 0.9,0 1.4,0 0.3,0 0.6,0 1,0 0.5,0 1,0 1.6,0 0.2,0 0.6,0 0.8,0 0.8,0 1.6,0.1 2.3,0.1 0.3,0 0.6,0 0.8,0 0.5,0 1.1,0 1.6,0 0.4,0 0.7,0 1.2,0 0.4,0 0.8,0 1.2,0 0.3,0 0.9,0 1.2,0 0.4,0 0.7,0 1.1,0.1 0.5,0 0.9,0 1.3,0 0.4,0 0.8,0 1.2,0 0.3,0 0.9,0 1.2,0 0.4,0 0.7,0 1.1,0 0.4,0 0.9,0 1.3,0 0.3,0.1 0.6,0.1 0.9,0.1 0.8,0 1.6,0 2.4,0 0.4,0 0.8,0 1.3,0 0.4,0 0.9,0.1 1.3,0.1 0.3,0 0.7,0 1,0 0.4,0 1,0 1.5,0 0.2,0 0.5,0 0.8,0 0.5,0 1,0.1 1.5,0.1 0.3,0 0.6,0 0.9,0 0.5,0 0.9,0 1.4,0 0.3,0 0.6,0 0.9,0 0.4,0.1 1.1,0.1 1.5,0.1 0.2,0 0.4,0 0.6,0 2,0.1 4,0.1 6,0.2 0,0 0.1,0 0.2,0 0.6,0 1.3,0 1.9,0 0.1,0 0.2,0 0.3,0.1 0.6,0 1.3,0 1.9,0 0.1,0 0.3,0 0.4,0 0.6,0 1.3,0.1 1.9,0.1 0.1,0 0.2,0 0.3,0 0.6,0 1.4,0 2,0.1 h 0.1 c 1704.2,60.6 2177.3,2608.2 2177.3,2608.2 0,0 -307.3,-134.7 -723.6,-134.7 -461.3,0 -1056.6,165.5 -1515.7,863.2 -459.2,-697.7 -1054.4,-863.2 -1515.8,-863.2 -416.2,0 -723.5,134.7 -723.5,134.7 0,0 154.9,-835.5 607.8,-1560.8 v 0 0 c 306.6,-491.5 749.7,-932.4 1373.4,-1028.9"
           style="fill:#b2b2d4;fill-opacity:1;fill-rule:nonzero;stroke:none"
           id="path180" />
        <path
           d="m 12546.7,21494.9 c 0.3,0.6 0.4,1.1 0.6,1.7 -0.1,-0.5 -0.4,-1.2 -0.6,-1.7 m 1.8,4.9 c 0.3,0.7 0.5,1.5 0.8,2.2 -0.3,-0.8 -0.5,-1.5 -0.8,-2.2 m 2.3,6.3 c 0.4,1.1 0.8,2.3 1.3,3.5 -0.5,-1.3 -0.9,-2.3 -1.3,-3.5 m 2,5.4 c 0.4,1.3 0.8,2.5 1.3,3.7 -0.5,-1.2 -0.9,-2.4 -1.3,-3.7 m 1.9,5.5 c 0.7,1.7 1.3,3.4 1.9,5.1 -0.6,-1.7 -1.2,-3.4 -1.9,-5.1 m 2.3,6.3 c 0.6,1.4 1.1,2.8 1.6,4.3 -0.5,-1.5 -1,-2.8 -1.6,-4.3 m 2.2,5.8 c 0.6,1.8 1.3,3.6 2,5.4 -0.7,-1.8 -1.4,-3.6 -2,-5.4 m 14831.6,130.5 c -0.3,0.8 -0.7,1.8 -1,2.5 0.3,-0.8 0.7,-1.6 1,-2.5 m -1.7,4.3 c -24.2,61.8 -49.4,123.5 -75.8,185.8 -24.6,57.5 -45.5,116.2 -63.2,176 17.7,-59.8 38.6,-118.5 63.2,-176 26.4,-62.2 51.7,-124.1 75.8,-185.8 M 12812,22309.1 c 34.6,173.6 90.6,417.9 177,709.8 v 0 c -86.4,-291.9 -142.4,-536.2 -177,-709.8"
           style="fill:#b9e4ff;fill-opacity:1;fill-rule:nonzero;stroke:none"
           id="path182" />
        <path
           d="m 12989,23018.9 v 0 c 119,401.4 295.4,892.4 553.2,1412.1 v 0 c -257.8,-519.7 -434.2,-1010.7 -553.2,-1412.1"
           style="fill:#9999c7;fill-opacity:1;fill-rule:nonzero;stroke:none"
           id="path184" />
        <path
           d="m 13853.2,25000.6 v 0 c 260.3,433.9 580.3,872.5 972.6,1282.2 l -0.1,-0.1 c -392.3,-409.7 -712.2,-848.2 -972.5,-1282.1"
           style="fill:#ffc3d9;fill-opacity:1;fill-rule:nonzero;stroke:none"
           id="path186" />
        <path
           d="m 13727.6,24783.5 v 0 c 40.3,72.2 82.1,144.5 125.6,217.1 v 0 c -43.5,-72.6 -85.3,-144.9 -125.6,-217.1"
           style="fill:#e0b6d3;fill-opacity:1;fill-rule:nonzero;stroke:none"
           id="path188" />
        <path
           d="m 15816.2,27128.7 c 195.1,134.8 402.5,261.8 622.6,378.9 v 0 c -220.1,-117.1 -427.4,-244 -622.4,-378.8 -0.1,0 -0.2,0 -0.2,-0.1"
           style="fill:#ffc3d9;fill-opacity:1;fill-rule:nonzero;stroke:none"
           id="path190" />
        <path
           d="m 16438.8,27507.6 v 0 c 60.6,32.3 122.2,63.8 184.8,94.5 v 0 c -62.6,-30.7 -124.2,-62.2 -184.8,-94.5"
           style="fill:#e0b6d3;fill-opacity:1;fill-rule:nonzero;stroke:none"
           id="path192" />
        <path
           d="m 22230.9,28037.4 c -655.9,183.8 -1395.9,289.3 -2231.2,289.3 -835,0 -1575.5,-105.6 -2231.2,-289.3 v 0 c 655.9,183.8 1395.8,289.3 2231.2,289.3 835.3,0 1575.3,-105.5 2231.2,-289.3 v 0"
           style="fill:#b9e4ff;fill-opacity:1;fill-rule:nonzero;stroke:none"
           id="path194" />
        <path
           d="m 16867.9,27715.8 v 0 c 280.8,123.6 580.9,232 900.6,321.6 v 0 c -320,-89.7 -619.6,-197.9 -900.6,-321.6"
           style="fill:#9999c7;fill-opacity:1;fill-rule:nonzero;stroke:none"
           id="path196" />
        <path
           d="m 13542.2,24431 v 0 c 57.6,116.2 119.4,234.2 185.4,352.5 v 0 c -66,-118.3 -127.8,-236.3 -185.4,-352.5 m 1283.5,1851.7 0.1,0.1 c 289.1,302 617.5,588.3 990.4,845.9 0,0.1 0.1,0.1 0.2,0.1 -372.9,-257.6 -701.6,-544.2 -990.7,-846.1 m 1797.9,1319.4 v 0 c 79.9,39.3 161.1,77.1 244.3,113.7 v 0 c -83.2,-36.6 -164.4,-74.4 -244.3,-113.7"
           style="fill:#9999c7;fill-opacity:1;fill-rule:nonzero;stroke:none"
           id="path198" />
        <path
           d="m 23131.5,27715.8 c -280.8,123.6 -580.9,232 -900.6,321.6 v 0 c 319.7,-89.6 619.8,-198 900.6,-321.6 v 0"
           style="fill:#9999c7;fill-opacity:1;fill-rule:nonzero;stroke:none"
           id="path200" />
        <path
           d="m 24183.2,27128.7 c -0.1,0 0,0 -0.1,0 -195.1,134.8 -402.4,261.8 -622.6,378.9 v 0 c 220.2,-117.1 427.6,-244.1 622.7,-378.9"
           style="fill:#ffc3d9;fill-opacity:1;fill-rule:nonzero;stroke:none"
           id="path202" />
        <path
           d="m 23560.5,27507.6 c -60.6,32.3 -122.2,63.8 -184.7,94.5 v 0 c 62.5,-30.7 124.1,-62.2 184.7,-94.5 v 0"
           style="fill:#e0b6d3;fill-opacity:1;fill-rule:nonzero;stroke:none"
           id="path204" />
        <path
           d="m 24799.8,26643.6 c -190.7,170 -395.8,332.6 -616.7,485.1 0.1,0 0,0 0.1,0 220.8,-152.6 425.9,-315.1 616.6,-485.1 m -1424,958.5 c -80,39.3 -161.2,77.1 -244.3,113.7 v 0 c 83.1,-36.6 164.3,-74.4 244.3,-113.7 v 0"
           style="fill:#9999c7;fill-opacity:1;fill-rule:nonzero;stroke:none"
           id="path206" />
        <path
           d="m 27487.9,21394.5 c -15.9,46.5 -32.5,93.2 -49.7,140 0,0 -9.8,0.8 -28,0.8 -30.5,0 -84.8,-2.4 -157,-15.2 -19,63.1 -34.4,127.3 -46.4,192.3 -189.3,1038 -1412.8,6119.1 -7207.1,6119.1 -262.8,0 -515.8,-10.8 -760,-30.8 6.1,-11.7 10.8,-23.7 13.1,-36.4 30.9,-176.6 -335.7,-388.3 -818.9,-472.8 -135.1,-23.6 -265,-34.8 -382.7,-34.8 -303.2,0 -525.7,74.3 -548,201.4 -0.2,1.1 0.1,2.1 -0.1,3.1 -3670.5,-1188 -4552.3,-4881 -4710.5,-5748.8 -12,-65 -27.4,-129.2 -46.5,-192.3 -72.1,12.8 -126.4,15.2 -157,15.2 -18.2,0 -27.9,-0.8 -27.9,-0.8 38.4,104.4 80.1,209.3 124.9,315.2 49,114.9 83.8,235.1 106.5,357.9 5.5,30.5 11.9,64.3 19.4,101.5 34.6,173.6 90.6,417.9 177,709.8 119,401.4 295.4,892.4 553.2,1412.1 57.6,116.2 119.4,234.2 185.4,352.5 40.3,72.2 82.1,144.5 125.6,217.1 260.3,433.9 580.2,872.4 972.5,1282.1 289.1,301.9 617.8,588.5 990.7,846.1 195,134.8 402.3,261.7 622.4,378.8 60.6,32.3 122.2,63.8 184.8,94.5 79.9,39.3 161.1,77.1 244.3,113.7 281,123.7 580.6,231.9 900.6,321.6 655.7,183.7 1396.2,289.3 2231.2,289.3 835.3,0 1575.3,-105.5 2231.2,-289.3 319.7,-89.6 619.8,-198 900.6,-321.6 83.1,-36.6 164.3,-74.4 244.3,-113.7 62.5,-30.7 124.1,-62.2 184.7,-94.5 220.2,-117.1 427.5,-244.1 622.6,-378.9 220.9,-152.5 426,-315.1 616.7,-485.1 1770.8,-1578.5 2289.2,-3790.1 2407,-4436 11.3,-61.4 25.7,-122.1 43.3,-181.9 17.7,-59.8 38.6,-118.5 63.2,-176 26.4,-62.3 51.6,-124 75.8,-185.8 0.2,-0.6 0.5,-1.2 0.7,-1.8 0.3,-0.7 0.7,-1.7 1,-2.5 34.7,-88.9 67.1,-177.3 97.1,-265.1"
           style="fill:#fdd7a9;fill-opacity:1;fill-rule:nonzero;stroke:none"
           id="path208" />
        <path
           d="m 12220.9,19458.6 c -35.8,635 66.4,1316.6 325.8,2036.3 0.2,0.5 0.5,1.2 0.6,1.7 0.4,1 0.8,2.1 1.2,3.2 0.3,0.7 0.5,1.4 0.8,2.2 0.5,1.4 1,2.7 1.5,4.1 0.4,1.2 0.8,2.2 1.3,3.5 0.2,0.6 0.4,1.3 0.7,1.9 0.4,1.3 0.8,2.5 1.3,3.7 0.2,0.6 0.4,1.2 0.6,1.8 0.7,1.7 1.3,3.4 1.9,5.1 0.2,0.5 0.3,0.8 0.4,1.2 0.6,1.5 1.1,2.8 1.6,4.3 0.2,0.5 0.4,1 0.6,1.5 0.6,1.8 1.3,3.6 2,5.4 v 0 0 c 0,0 9.7,0.8 27.9,0.8 30.6,0 84.9,-2.4 157,-15.2 -17,-56.2 -36.9,-111.5 -60,-165.6 -44.8,-106 -86.5,-210.9 -124.9,-315.3 -41.2,-111.9 -78.5,-222.8 -112.2,-332.8 5.9,235.4 30.8,476.9 75.7,724 -242.6,-695.9 -338.5,-1355.6 -303.8,-1971.5 0,-0.1 0,-0.2 0,-0.3 M 27693.3,20632 c -0.1,0.7 -0.2,1 -0.3,1.7 0.1,-0.5 0.2,-1.1 0.3,-1.7 m -0.4,2.2 c -51.3,261.3 -124.1,528.5 -219.5,801.3 45.5,-248.4 70.7,-491.4 76.6,-728 -64.9,212.3 -143.7,428 -236.7,647 -23.1,54.1 -43.1,109.4 -60.1,165.6 72.2,12.8 126.5,15.2 157,15.2 18.2,0 28,-0.8 28,-0.8 17.2,-46.8 33.8,-93.5 49.7,-140 88.4,-258.6 156.4,-512.1 205,-760.3"
           style="fill:#ffffff;fill-opacity:1;fill-rule:nonzero;stroke:none"
           id="path210" />
        <path
           d="m 12220.9,19458.9 c -34.7,615.9 61.2,1275.6 303.8,1971.5 -44.9,-247.1 -69.8,-488.6 -75.7,-724 -131.6,-431 -206.1,-847.4 -228.1,-1247.5 m 15558,3.6 c -22.3,399.3 -97.2,815 -228.9,1245 -5.9,236.6 -31.1,479.6 -76.6,728 95.4,-272.8 168.2,-540 219.5,-801.3 0,-0.2 0.1,-0.3 0.1,-0.5 0.1,-0.7 0.2,-1 0.3,-1.7 79.1,-404.9 106.4,-795.2 85.6,-1169.5"
           style="fill:#e0e0ee;fill-opacity:1;fill-rule:nonzero;stroke:none"
           id="path212" />
        <path
           d="m 17546.5,21243.9 -88.2,86.7 c -31.9,32 -66.1,62.8 -99.7,94.2 -68.2,61.8 -138.1,122.7 -210.7,180 -145.5,114.2 -298,220.5 -463,305.2 -82.9,41 -167.5,80.5 -255.5,111.9 -88.2,29.6 -178.4,59.3 -271.7,77.5 -186.2,41.1 -382.1,52.7 -585.4,46.1 l -3.1,-0.1 c -55.2,-1.8 -101.4,41.5 -103.2,96.8 -1.4,42.2 23.9,79.2 60.3,95 203.2,87.7 427.7,140.6 658.1,151.9 230.5,11.1 466.1,-18 690.8,-83.5 225.1,-64.7 440.6,-162.6 635.9,-289.5 97.6,-63.5 190.9,-133.4 278.3,-210.8 44.3,-38.1 86,-79.2 127.3,-121.6 20.6,-21.2 40.4,-43.4 60.5,-66.3 10.1,-11.2 19.8,-23.5 29.7,-35.5 l 33.1,-42.3 c 107.6,-137 83.8,-335.2 -53.2,-442.8 -126.2,-99.1 -304.5,-86.7 -415.9,23 l -24.4,24.1"
           style="fill:#000072;fill-opacity:1;fill-rule:nonzero;stroke:none"
           id="path214" />
        <path
           d="m 21959.3,21639.6 33.2,42.3 c 9.9,12 19.6,24.3 29.6,35.5 20.2,22.9 40,45.1 60.5,66.3 41.4,42.4 83,83.5 127.3,121.6 87.4,77.4 180.7,147.3 278.4,210.8 195.2,126.9 410.8,224.8 635.9,289.5 224.7,65.5 460.2,94.6 690.7,83.5 230.5,-11.3 454.9,-64.2 658.1,-151.9 50.7,-21.9 74.1,-80.7 52.2,-131.5 -16.7,-38.7 -55,-61.5 -94.8,-60.3 l -3.3,0.1 c -203.4,6.6 -399.2,-5 -585.5,-46.1 -93.3,-18.2 -183.4,-47.9 -271.6,-77.5 -88.1,-31.4 -172.6,-70.9 -255.5,-111.9 -165.1,-84.7 -317.6,-191 -463,-305.2 -72.6,-57.3 -142.5,-118.2 -210.8,-180 -33.6,-31.4 -67.7,-62.2 -99.6,-94.2 l -88.3,-86.7 -24.4,-24 c -124.2,-122.1 -323.9,-120.4 -446,3.8 -112.5,114.5 -119.8,293 -23.1,415.9"
           style="fill:#000072;fill-opacity:1;fill-rule:nonzero;stroke:none"
           id="path216" />
        <path
           d="m 19999.7,19386 c 822.7,0 1617.2,689 1442.1,1242.5 -175.1,553.5 -1442.1,522.5 -1442.1,522.5 0,0 -1267.1,31 -1442.1,-522.5 C 18382.5,20075 19177,19386 19999.7,19386"
           style="fill:#000072;fill-opacity:1;fill-rule:nonzero;stroke:none"
           id="path218" />
        <path
           d="m 20183.2,19415.9 c -12.7,-31.4 -21.3,-49.9 -32.4,-73.3 -10.5,-22.2 -21.4,-43.7 -32.6,-65 -22.4,-42.5 -46.3,-83.7 -72,-123.7 -51.6,-79.8 -107.8,-156.6 -170.6,-228.5 -125.7,-143.1 -272.4,-271.8 -440.5,-369.3 -333.8,-202.3 -739.7,-268.7 -1109.6,-223.8 -185.5,22.8 -365.1,63 -542.2,131.5 -175.5,68.7 -344.8,168.5 -485.5,302.7 -141.3,132.3 -252.7,301.5 -301.3,485.7 -49,182.7 -50.9,375.8 17.9,546.8 1.5,3.7 5.7,5.5 9.4,4 2.1,-0.9 3.6,-2.6 4.2,-4.7 l 0.2,-0.7 c 48.6,-170.9 109.9,-322.6 186.4,-457.8 77.6,-134 168.4,-252.7 284.9,-345.5 115.6,-93.1 252.6,-160.3 399.8,-204.2 145.7,-45.3 304.2,-72.5 459.3,-81.7 155.1,-8.3 307.7,2.4 453.4,35.2 72.8,16.8 143.8,38.9 212,67.6 69,26.8 135.1,60.4 198.1,99.4 126.4,77.3 241.6,175.3 342.3,288.5 50.3,56.6 97.9,116.3 140.7,179.2 21,31.6 42.3,63.3 61.3,95.6 9.7,16 19,32.3 27.6,48.3 8.2,14.8 18.1,34.8 22.2,42.9 l 6.4,12.8 c 48.6,97.9 167.4,137.7 265.2,89.1 92.9,-46.2 133.3,-156.4 95.4,-251.1"
           style="fill:#000072;fill-opacity:1;fill-rule:nonzero;stroke:none"
           id="path220" />
        <path
           d="m 20183.2,19565.1 c 4,-8.1 13.9,-28.1 22.1,-42.9 8.7,-16 18,-32.3 27.6,-48.3 19.1,-32.3 40.4,-64 61.4,-95.6 42.8,-62.9 90.3,-122.6 140.7,-179.2 100.6,-113.2 215.8,-211.2 342.2,-288.5 63,-39 129.2,-72.6 198.1,-99.4 68.2,-28.7 139.3,-50.8 212,-67.6 145.8,-32.8 298.4,-43.5 453.4,-35.2 155.1,9.2 313.7,36.4 459.4,81.7 147.1,43.9 284.1,111.1 399.7,204.2 116.5,92.8 207.4,211.5 285,345.5 76.4,135.2 137.7,286.9 186.3,457.8 l 0.2,0.7 c 1.1,3.8 5.1,6 8.9,4.9 2.2,-0.6 3.9,-2.2 4.8,-4.2 68.7,-171 66.8,-364.1 17.9,-546.8 -48.6,-184.2 -160,-353.4 -301.3,-485.7 -140.8,-134.2 -310.1,-234 -485.5,-302.7 -177.2,-68.5 -356.8,-108.7 -542.2,-131.5 -370,-44.9 -775.8,21.5 -1109.7,223.8 -168.1,97.5 -314.8,226.2 -440.5,369.3 -62.7,71.9 -119,148.7 -170.6,228.5 -25.7,40 -49.6,81.2 -71.9,123.7 -11.3,21.3 -22.2,42.8 -32.7,65 -11.1,23.4 -19.7,41.9 -32.3,73.3 -40.9,101.3 8.1,216.6 109.5,257.4 96.2,38.9 205.1,-3.5 250.8,-94.7 l 6.7,-13.5"
           style="fill:#000072;fill-opacity:1;fill-rule:nonzero;stroke:none"
           id="path222" />
        <path
           d="m 22239,18657.3 c 0,0 -484.5,-2609.3 -2239.3,-2609.3 -761.7,0 -1284.1,491.8 -1631.5,1048.5 -452.9,725.3 -607.8,1560.8 -607.8,1560.8 0,0 1365.8,-598.8 2239.3,728.5 873.4,-1327.3 2239.3,-728.5 2239.3,-728.5"
           style="fill:#000072;fill-opacity:1;fill-rule:nonzero;stroke:none"
           id="path224" />
        <path
           d="m 19999.7,17991 c -1320,0 -1631.5,-894.5 -1631.5,-894.5 347.4,-556.7 869.8,-1048.5 1631.5,-1048.5 761.7,0 1284.1,491.8 1631.5,1048.5 0,0 -311.6,894.5 -1631.5,894.5"
           style="fill:#ff4a94;fill-opacity:1;fill-rule:nonzero;stroke:none"
           id="path226" />
        <path
           d="m 21631.2,17096.5 c 0,0 -0.2,0.6 -0.6,1.6 0.4,-1.1 0.6,-1.6 0.6,-1.6 v 0 m -3263,0 v 0 c 0,0 0.2,0.5 0.6,1.6 -0.4,-1 -0.6,-1.6 -0.6,-1.6"
           style="fill:#000072;fill-opacity:1;fill-rule:nonzero;stroke:none"
           id="path228" />
        <path
           d="m 19999.7,16048 c -89.3,0 -175.3,6.7 -258.1,19.6 -623.7,96.5 -1066.8,537.4 -1373.4,1028.9 0,0 0.2,0.6 0.6,1.6 6.4,17.4 66,171.6 223.2,347.1 361.8,-358 823.7,-609.8 1407.7,-609.8 583.9,0 1045.8,251.8 1407.7,609.8 157.1,-175.5 216.8,-329.7 223.2,-347.1 0.4,-1 0.6,-1.6 0.6,-1.6 -306.7,-491.5 -749.8,-932.4 -1373.5,-1028.9 -82.8,-12.9 -168.8,-19.6 -258,-19.6"
           style="fill:#b2348a;fill-opacity:1;fill-rule:nonzero;stroke:none"
           id="path230" />
        <path
           d="m 17999.6,18406.3 c 179.9,-648.2 739.7,-2184.9 2000.1,-2184.9 1260.2,0 1820,1536.6 2000.1,2184.9 -457,-99.4 -1331,-145.8 -2000.1,685.3 -669.1,-831.1 -1543.1,-784.6 -2000.1,-685.3 z m 2000.1,-2531.6 c -1877.2,0 -2389.1,2638.8 -2410,2751.1 -11.7,63.1 12.4,127.6 62.7,167.5 50.3,39.9 118.5,48.8 177.3,22.9 50.1,-21.6 1245.2,-520.1 2025.2,665.1 32.1,48.7 86.5,78 144.8,78 58.3,0 112.7,-29.3 144.8,-78 779.9,-1185.2 1975.1,-686.7 2025.6,-664.9 58.7,25.4 126.9,16.4 177,-23.5 50,-40 74.2,-104.1 62.5,-167.1 -20.9,-112.3 -532.8,-2751.1 -2409.9,-2751.1"
           style="fill:#000072;fill-opacity:1;fill-rule:nonzero;stroke:none"
           id="path232" />
        <path
           d="m 20601,20786.1 c 0,-75.2 -268.2,-136.1 -599,-136.1 -330.8,0 -598.9,60.9 -598.9,136.1 0,75.2 268.1,136.1 598.9,136.1 330.8,0 599,-60.9 599,-136.1"
           style="fill:#ffffff;fill-opacity:1;fill-rule:nonzero;stroke:none"
           id="path234" />
        <path
           d="m 18352.5,22890.3 c -136.9,-192.5 -513,-159.9 -840.1,72.7 -327.1,232.6 -481.4,577.1 -344.6,769.6 136.8,192.4 512.9,159.8 840.1,-72.8 327.1,-232.6 481.4,-577.1 344.6,-769.5"
           style="fill:#ffffff;fill-opacity:1;fill-rule:nonzero;stroke:none"
           id="path236" />
        <path
           d="m 21646.9,22890.3 c 136.8,-192.5 512.9,-159.9 840,72.7 327.2,232.6 481.5,577.1 344.6,769.6 -136.8,192.4 -463.4,159.8 -790.5,-72.8 -327.1,-232.6 -530.9,-577.1 -394.1,-769.5"
           style="fill:#ffffff;fill-opacity:1;fill-rule:nonzero;stroke:none"
           id="path238" />
        <path
           d="m 19999.7,28153.4 c -5659.2,0 -6854.6,-4979 -7036.7,-5977.1 -25.1,-137.5 -64.6,-270.2 -117.3,-394.4 -671.8,-1580.7 -604.2,-3055 195.4,-4263.7 1157.3,-1749.2 3758.6,-2793.5 6958.6,-2793.5 3199.9,0 5801.3,1044.3 6958.5,2793.5 799.6,1208.7 867.2,2683 195.5,4263.7 -52.7,124 -92.2,256.7 -117.3,394.4 -182.2,998.1 -1377.5,5977.1 -7036.7,5977.1 z m 0,-13775.4 c -3316.7,0 -6026.1,1102.4 -7247.7,2949 -866.9,1310.3 -944.8,2897.7 -225.4,4590.4 42.8,100.7 74.8,208.7 95.3,321.1 190.9,1045.6 1443.4,6261.6 7377.8,6261.6 5934.4,0 7186.9,-5216 7377.7,-6261.6 20.5,-112.5 52.6,-220.5 95.3,-321.1 719.5,-1692.7 641.5,-3280.1 -225.4,-4590.4 -1221.6,-1846.6 -3931,-2949 -7247.6,-2949"
           style="fill:#ffffff;fill-opacity:1;fill-rule:nonzero;stroke:none"
           id="path240" />
      </g>
    </g>
    <text
       xml:space="preserve"
       style="font-size:500px;font-family:'Work Sans';-inkscape-font-specification:'Work Sans';opacity:1;fill:#ffffff;fill-opacity:1;fill-rule:evenodd;stroke:#ffffff;stroke-width:75;stroke-opacity:1"
       x="1969.827"
       y="67.154083"
       id="text8145"
       transform="scale(1,-1)"><tspan
         id="tspan8143"
         style="font-weight:bold;font-size:500px;fill:#ffffff;stroke:none;stroke-width:75;stroke-opacity:1"
         x="1969.827"
         y="67.154083">X</tspan></text>
  </g>
</svg>
