<?xml version="1.0" encoding="UTF-8" standalone="no"?>
<!-- Created with Inkscape (http://www.inkscape.org/) -->

<svg
   version="1.1"
   id="svg2"
   width="3944.9492"
   height="3965.137"
   viewBox="0 0 3944.9492 3965.137"
   xmlns="http://www.w3.org/2000/svg"
   xmlns:svg="http://www.w3.org/2000/svg">
  <defs
     id="defs6" />
  <g
     id="g8"
     transform="matrix(1.3333333,0,0,-1.3333333,-875.96142,4467.4659)">
    <circle
       style="display:none;opacity:0.8;fill:#d14009;fill-opacity:1;fill-rule:evenodd;stroke:#ffffff;stroke-width:4.79;stroke-opacity:1"
       id="path709"
       cx="2136.3271"
       cy="-1863.673"
       r="2133.9321"
       transform="scale(1,-1)" />
    <g
       id="g10"
       transform="matrix(0.10791143,0,0,0.10791143,-21.389987,-286.18731)">
      <path
         d="m 35801.162,22256.883 c 0,0 97.2,-417.6 -225,-883.9 0,0 526.4,16 779.5,-329.5 0,0 -84.4,502.2 277.2,883.9 0,0 -494.2,-88.4 -831.7,329.5"
         style="fill:#ffffff;fill-opacity:1;fill-rule:nonzero;stroke:none"
         id="path50" />
      <path
         d="m 5396.3809,12608.308 c 0,0 138.09,-593.6 -319.78,-1256.3 0,0 748.05,22.9 1107.79,-468.2 0,0 -119.91,713.8 394.01,1256.2 0,0 -702.36,-125.6 -1182.02,468.3"
         style="fill:#ffffff;fill-opacity:1;fill-rule:nonzero;stroke:none"
         id="path52" />
      <path
         d="m 33809.348,10580.842 c 0,0 97.1,-417.7 -225,-883.9003 0,0 526.3,16 779.4,-329.5 0,0 -84.3,502.2 277.3,883.9003 0,0 -494.2,-88.4 -831.7,329.5"
         style="display:inline;fill:#ffffff;fill-opacity:1;fill-rule:nonzero;stroke:none"
         id="path54" />
      <path
         d="m 6417.4424,29170.521 c 0,0 97.16,-417.7 -225,-883.9 0,0 526.34,16 779.46,-329.5 0,0 -84.37,502.2 277.23,883.9 0,0 -494.19,-88.4 -831.69,329.5"
         style="display:inline;fill:#ffffff;fill-opacity:1;fill-rule:nonzero;stroke:none"
         id="path242" />
      <g
         id="g7925"
         style="display:none">
        <path
           d="m 10423.3,21617.6 c -127.7,629.3 -194.8,1280.8 -194.8,1947.2 0,5389.2 4384.4,9773.5 9773.5,9773.5 2407.8,0 4615.1,-875.2 6320.4,-2324.2 -1678.9,1294.4 -3782.9,2064.3 -6066.8,2064.3 -5493.5,0 -9946.9,-4453.4 -9946.9,-9946.9 0,-514.7 39.1,-1020.3 114.6,-1513.9"
           style="display:inline;fill:#96d7ff;fill-opacity:1;fill-rule:nonzero;stroke:none"
           id="path60" />
        <path
           d="M 26462.8,7564.3 H 13537.2 c -594.6,0 -1076.6,482 -1076.6,1076.6 v 6814.2 c 0,594.5 482,1076.6 1076.6,1076.6 h 12925.6 c 594.6,0 1076.6,-482.1 1076.6,-1076.6 V 8640.9 c 0,-594.6 -482,-1076.6 -1076.6,-1076.6"
           style="display:inline;fill:#ffffff;fill-opacity:1;fill-rule:nonzero;stroke:none"
           id="path62" />
        <path
           d="m 12634,11249.8 v 1505 c 82.6,-127 191.3,-235.6 318.4,-318 0.8,-341 22.7,-695.6 73.1,-1057.5 -26,-0.3 -53.2,-2.1 -81.3,-5.9 -90.2,-11.9 -199.2,-45.3 -310.2,-123.6 m 14732,2.8 c -109.6,76.4 -217.1,109 -306.1,120.8 -29.7,4 -58.2,5.8 -85.4,5.9 50.4,361.9 72.3,716.5 73.1,1057.5 127.1,82.4 235.8,191 318.4,318 v -1502.2"
           style="display:inline;fill:#b2b2d4;fill-opacity:1;fill-rule:nonzero;stroke:none"
           id="path64" />
        <path
           d="m 13537.2,16358.3 c -498,0 -903.2,-405.2 -903.2,-903.2 V 8640.9 c 0,-498.1 405.2,-903.3 903.2,-903.3 h 12925.6 c 498,0 903.2,405.2 903.2,903.3 v 6814.2 c 0,498 -405.2,903.2 -903.2,903.2 H 13537.2 M 26462.8,7390.9 H 13537.2 c -689.2,0 -1249.9,560.8 -1249.9,1250 v 6814.2 c 0,689.2 560.7,1249.9 1249.9,1249.9 h 12925.6 c 689.2,0 1249.9,-560.7 1249.9,-1249.9 V 8640.9 c 0,-689.2 -560.7,-1250 -1249.9,-1250"
           style="display:inline;fill:#000072;fill-opacity:1;fill-rule:nonzero;stroke:none"
           id="path66" />
        <path
           d="m 30308.5,6109 c -486,-563.5 -1199,-880.5 -1943.5,-880.5 H 11635 c -744.5,0 -1457.5,317 -1943.51,880.5 C 9423,6420.5 9224.5,6767.5 9091,7122.5 l -0.5,0.5 c -420,1114 -206,2309.5 464,2739.5 1125,723 1992.5,-160.5 1992.5,-160.5 96,225.5 226,421 371.5,588.5 548,633 1316,874 1316,874 -417.5,2394.5 514.5,4564 514.5,4564 0,0 2296.5,-1735.5 6251,-1735.5 3954.5,0 6251,1735.5 6251,1735.5 0,0 932,-2169.5 514.5,-4564 0,0 1229.5,-386 1687.5,-1462.5 0,0 867.5,883.5 1992.5,160.5 883.5,-567.5 974,-2466 -137,-3753.5"
           style="display:inline;fill:#ffffff;fill-opacity:1;fill-rule:nonzero;stroke:none"
           id="path68" />
        <path
           d="m 12214,7554 c 116.7,1129.4 -320.2,1775.6 -543.4,2026.1 15.1,15.3 27.4,33.5 36,53.8 83.5,196.3 195.9,368.4 322.2,518.1 1106,-1459.2 185.2,-2598 185.2,-2598"
           style="display:inline;fill:#b2b2d4;fill-opacity:1;fill-rule:nonzero;stroke:none"
           id="path70" />
        <path
           d="m 27790,7554 c 0,0 -919.8,1137.8 183.6,2595.9 125.2,-149.1 236.6,-320.5 319.8,-516 9,-21.3 22.1,-40.2 38.1,-55.9 -223.7,-252 -657.8,-897.7 -541.5,-2024"
           style="display:inline;fill:#b2b2d4;fill-opacity:1;fill-rule:nonzero;stroke:none"
           id="path72" />
        <path
           d="m 28365,5401.9 h -4099.5 c 180.4,240.9 359,533.2 531.1,887 178.4,360 414.8,898 568.3,1484.2 3.5,-0.8 7,-1.6 10.5,-2.2 -13.7,-105.5 -24.5,-253.4 -12.8,-424.2 43,-630.2 569.8,-1110.8 1191.5,-1110.8 30,0 60.3,1.1 90.7,3.4 438.8,32.9 737.9,62.5 911.8,81.6 35.6,3.9 71.2,5.8 106.8,5.8 86.5,0 172.8,-11.3 257.2,-32.3 300.6,-74.8 579.8,-106.4 837.3,-106.4 855.3,0 1470,348.7 1818.9,620.3 -110.9,-209.2 -244.7,-406.8 -399.4,-586.1 -449.9,-521.3 -1110.5,-820.3 -1812.4,-820.3 m -7265.8,0 H 19998 18904.8 c 51.6,114.6 91.6,237.5 118.2,368.1 18.3,89.8 32.5,181.8 42.8,275.9 100.9,-0.6 203,-1.1 306.4,-1.6 l -294.7,131 c 6.5,90 9.6,181.7 9.6,274.8 0.1,147.3 -7.6,298.2 -22.1,451.9 v 0.5 c -30.9,330.7 -93.4,674.3 -178.9,1022 -156.9,785.3 -441.3,1785.7 -955.1,2896.7 37.7,26.2 64.1,66.7 72.1,113.1 3.6,20.9 33.6,199.7 55.4,475.7 475.2,-253.1 1181.4,-528 2008.4,-528 580.1,0 1219.7,135.4 1880.2,508.4 21.7,-264.9 50.3,-435.7 53.8,-456.1 7.4,-42.8 30.3,-80.5 63.4,-106.6 -361.1,-773.3 -811.7,-1927.8 -1017.4,-3217.3 -49.4,-240.2 -86.3,-477.2 -107.9,-707.9 v -0.5 c -14.5,-153.7 -22.2,-304.6 -22.1,-451.9 0.1,-137.7 6.9,-272.4 21.2,-403 0,-0.4 0,-0.8 0,-1.1 v 0 c 10.4,-94.1 24.6,-186.2 42.9,-276 26.6,-130.6 66.7,-253.5 118.2,-368.1 m -5360.7,0 H 11635 c -701.9,0 -1362.5,299 -1812.4,820.3 -156.01,180.8 -290.76,380.2 -402.16,591.3 347.76,-272.3 964.76,-625.5 1825.66,-625.5 257.5,0 536.8,31.6 837.3,106.4 84.4,21 170.7,32.3 257.2,32.3 35.6,0 71.2,-1.9 106.8,-5.8 173.9,-19.1 473.2,-48.8 912.2,-81.7 30.5,-2.3 60.8,-3.4 90.9,-3.4 609.4,0.1 1136.1,460.4 1188.3,1076.5 15.7,185.3 4.5,346 -10.2,458.6 3.5,0.6 7,1.4 10.5,2.2 154.2,-589 392.1,-1129.2 570.8,-1489.3 171.3,-351.5 349.1,-642.1 528.6,-881.9"
           style="display:inline;fill:#b2b2d4;fill-opacity:1;fill-rule:nonzero;stroke:none"
           id="path74" />
        <path
           d="m 19998,5401.9 h 8367 c 701.9,0 1362.5,299 1812.4,820.3 581.2,673.6 867.8,1606.2 748,2434.1 -70.2,484.7 -279.2,871.3 -573.4,1060.4 -995,639.6 -1744.1,-104.4 -1775.5,-136.4 -40.5,-41.3 -98.9,-59.7 -155.9,-48.8 -56.9,10.7 -104.6,49.2 -127.2,102.4 -421.9,991.7 -1568.4,1361.4 -1579.9,1365 -83,26 -133.8,109.5 -118.9,195.2 332,1902.8 -216.4,3683.2 -426.4,4266.6 -628.8,-411.1 -2792.4,-1641.2 -6168.2,-1641.2 -3375.8,0 -5539.4,1230.1 -6168.2,1641.2 -210,-583.4 -758.4,-2363.8 -426.4,-4266.6 14.9,-85.7 -35.9,-169.2 -118.9,-195.2 -11.3,-3.6 -1159.7,-377.2 -1579.9,-1365 -22.6,-53.2 -70.4,-91.7 -127.2,-102.4 -56.9,-10.9 -115.4,7.5 -155.9,48.8 -31.3,31.4 -786.9,772 -1775.47,136.4 C 9353.79,9527.6 9144.77,9141 9074.64,8656.3 8954.81,7828.4 9241.4,6895.7 9822.6,6222.2 c 449.9,-521.3 1110.5,-820.3 1812.4,-820.3 h 8363 m 8367,-346.7 H 11635 c -802.8,0 -1559,342.9 -2074.84,940.6 -644.9,747.3 -962.41,1785.8 -828.62,2710.2 85.77,592.7 344.68,1055.2 729.03,1302.3 914.73,588 1686.53,204 2025.73,-35.2 430.2,787.7 1228.3,1174 1554.1,1304.5 -362.8,2358.9 511.2,4430.7 549.3,4519.4 21,49 63.4,85.5 114.9,99.1 51.5,13.7 106.4,2.9 148.9,-29.2 22.4,-16.9 2302.9,-1700.7 6146.5,-1700.7 3843.6,0 6124.1,1683.8 6146.7,1700.8 42.5,32 97.5,42.7 148.8,29.1 51.5,-13.7 93.8,-50.2 114.8,-99.1 38.2,-88.7 912.1,-2160.5 549.3,-4519.4 325.8,-130.5 1124,-516.8 1554.1,-1304.5 339.2,239.2 1110.9,623.4 2025.7,35.2 384.4,-247.1 643.3,-709.6 729.1,-1302.3 133.8,-924.4 -183.7,-1962.9 -828.7,-2710.2 -515.8,-597.7 -1272,-940.6 -2074.8,-940.6"
           style="display:inline;fill:#000072;fill-opacity:1;fill-rule:nonzero;stroke:none"
           id="path76" />
        <path
           d="m 11647.5,9843.2 c 19,-13 27.8,-20.2 40.9,-29.8 12.5,-9.2 22.5,-18 33.8,-27.1 22.5,-18.2 41.6,-37.4 62,-56.3 20.9,-18.6 38.1,-39.1 56.8,-58.9 18.9,-19.7 36.6,-40.1 53.2,-61.1 69.1,-82.8 127.2,-172 178.9,-264.1 103.8,-184.3 172.8,-383 220.7,-583 46.7,-200.9 64,-404.8 64,-606.2 0.4,-100.6 -10.9,-200.9 -17.7,-300.1 -15,-99.1 -31.3,-197.3 -52,-294.1 -4,-18.5 -22.2,-30.3 -40.6,-26.3 -14.1,3 -24.2,14.2 -26.6,27.5 l -0.4,2.4 c -17,97.3 -27.6,193.2 -40.3,288.2 l -24.9,141.5 c -9,46.8 -12.4,94 -24.9,139.9 -23.3,91.9 -35.7,184.7 -65.1,273.5 -12.8,44.7 -22.9,89.9 -36.8,133.9 l -44.7,130.4 c -61.7,172.2 -137,336.8 -227.8,489 -23.6,37.3 -45.7,75.9 -71.4,111.2 l -37.1,54.2 -39.8,51.5 c -25.3,35.5 -54.5,66.7 -81.9,98.8 -14.2,15.2 -28.2,31.7 -42.5,45.3 -6.8,6.9 -14.1,15.2 -20.6,21.2 -5.8,5.6 -15.2,14.4 -15.8,15.7 l -37.5,75.1 c -40.1,80.7 -7.3,178.7 73.4,218.9 54.7,27.2 117.5,20.7 164.7,-11.2"
           style="display:inline;fill:#000072;fill-opacity:1;fill-rule:nonzero;stroke:none"
           id="path78" />
        <path
           d="m 28549.1,9560.4 c -0.6,-1.3 -10.1,-10.1 -15.9,-15.7 -6.4,-6 -13.8,-14.3 -20.6,-21.2 -14.3,-13.6 -28.3,-30.1 -42.4,-45.3 -27.4,-32.1 -56.7,-63.3 -81.9,-98.8 l -39.8,-51.5 -37.2,-54.2 c -25.6,-35.3 -47.8,-73.9 -71.4,-111.2 -90.8,-152.2 -166.1,-316.8 -227.7,-489 l -44.7,-130.4 c -14,-44 -24,-89.2 -36.8,-133.9 -29.4,-88.8 -41.9,-181.6 -65.2,-273.5 -12.4,-45.9 -15.8,-93.1 -24.9,-139.9 l -24.8,-141.5 c -12.8,-95 -23.4,-190.9 -40.4,-288.2 l -0.4,-2.4 c -3.2,-18.6 -20.9,-31 -39.6,-27.8 -14.1,2.5 -24.7,13.3 -27.5,26.6 -20.8,96.8 -37.1,195 -52,294.1 -6.9,99.2 -18.1,199.5 -17.8,300.1 0.1,201.4 17.3,405.3 64.1,606.2 47.9,200 116.8,398.7 220.6,583 51.8,92.1 109.9,181.3 178.9,264.1 16.6,21 34.4,41.4 53.2,61.1 18.8,19.8 36,40.3 56.9,58.9 20.4,18.9 39.4,38.1 61.9,56.3 11.4,9.1 21.4,17.9 33.8,27.1 13.1,9.6 22,16.8 41,29.8 74.5,50.7 176,31.5 226.8,-43 34.4,-50.5 36.6,-113.4 11.3,-164.5 l -37.5,-75.3"
           style="display:inline;fill:#000072;fill-opacity:1;fill-rule:nonzero;stroke:none"
           id="path80" />
        <path
           d="m 13406.8,11184.9 14.1,-138.5 17.6,-154.9 c 6.2,-52.8 14.5,-105.8 19.1,-161.4 5.1,-55.4 8.1,-112.9 5.3,-174.9 v -0.3 c -0.5,-9.8 -8.8,-17.3 -18.5,-16.9 -3.5,0.2 -6.7,1.4 -9.4,3.3 -50.9,35.8 -94.7,76.9 -132.7,121.8 -38.8,44.5 -70.6,93.1 -101.6,142.9 -30.3,50.1 -57.9,102.2 -81.9,156.8 -11.3,27.5 -23,55.2 -32.1,84.4 -4.9,14.4 -9.3,29.3 -13.3,44.6 -4.3,16.5 -7.1,28.5 -10.9,51.9 -15,94.6 49.5,183.5 144.1,198.5 94.6,15.1 183.5,-49.4 198.5,-144.1 0.5,-3 0.9,-6 1.2,-9 l 0.5,-4.2"
           style="display:inline;fill:#000072;fill-opacity:1;fill-rule:nonzero;stroke:none"
           id="path82" />
        <path
           d="m 26941.5,11143.7 c -3.7,-23.4 -6.6,-35.4 -10.9,-51.9 -3.9,-15.3 -8.4,-30.2 -13.3,-44.6 -9.1,-29.2 -20.8,-56.9 -32.1,-84.4 -24,-54.6 -51.6,-106.7 -81.9,-156.8 -31,-49.8 -62.8,-98.4 -101.6,-142.9 -37.9,-44.9 -81.7,-86 -132.7,-121.8 -7.9,-5.7 -19,-3.7 -24.6,4.2 -2,2.9 -3.1,6.2 -3.2,9.4 v 0.3 c -2.8,62 0.2,119.5 5.3,174.9 4.5,55.6 12.8,108.6 19,161.4 l 17.7,154.9 14.1,138.5 0.4,3.6 c 9.7,95.3 94.8,164.7 190.1,155 95.3,-9.7 164.7,-94.9 155,-190.2 -0.4,-3 -0.8,-6.6 -1.3,-9.6"
           style="display:inline;fill:#000072;fill-opacity:1;fill-rule:nonzero;stroke:none"
           id="path84" />
        <path
           d="m 14247.8,9466.8 c 0,0 -793.5,615.3 -1013.2,1697.5 0,0 -456.4,230.7 -771.9,-393.6 0,0 363.9,-1905.7 2134.9,-2829.3 0,0 -255.9,981.1 -349.8,1525.4"
           style="display:inline;fill:#0096f2;fill-opacity:1;fill-rule:nonzero;stroke:none"
           id="path86" />
        <path
           d="m 12646,10745.9 c 71.5,-291 456.4,-1619.9 1681.4,-2442.7 -77.5,314.5 -180.3,749.2 -239.2,1070.9 -183.7,159.2 -781.8,735.3 -1001.5,1656.5 -99.8,17.2 -279.5,-2.9 -440.7,-284.7 m 1951.6,-2977.8 c -27.4,0 -54.9,6.5 -80.2,19.6 -1824.3,951.4 -2209.5,2869.4 -2225,2950.5 -7.2,37.6 -1.7,76.5 15.6,110.7 197,389.9 454.7,500.5 636.2,524.5 200.8,26.8 352,-46 368.6,-54.4 47.4,-24 81.2,-68.3 91.7,-120.3 203.4,-1002.1 942.3,-1589.3 949.7,-1595.1 34,-26.5 57.1,-64.9 64.4,-107.3 91.6,-530.8 344.2,-1501.4 346.7,-1511.1 17.3,-66.3 -6.1,-136.6 -59.7,-179.4 -31.4,-24.9 -69.6,-37.7 -108,-37.7"
           style="display:inline;fill:#000072;fill-opacity:1;fill-rule:nonzero;stroke:none"
           id="path88" />
        <path
           d="m 25756.3,9466.8 c 0,0 793.5,615.3 1013.1,1697.5 0,0 456.5,230.7 772,-393.6 0,0 -363.9,-1905.7 -2134.9,-2829.3 0,0 255.9,981.1 349.8,1525.4"
           style="display:inline;fill:#0096f2;fill-opacity:1;fill-rule:nonzero;stroke:none"
           id="path90" />
        <path
           d="m 25915.8,9374.1 c -58.9,-321.8 -161.6,-756.4 -239.2,-1070.9 1225,822.8 1609.9,2151.5 1681.4,2442.8 -97.6,171.1 -213.1,266.5 -343.7,283.8 -36.6,4.8 -70.2,2.8 -97.5,-1.5 -220.1,-919.9 -817.4,-1495.1 -1001,-1654.2 m -509.3,-1606 c -38.5,0 -76.7,12.8 -108,37.7 -53.6,42.8 -77,113.1 -59.8,179.4 2.6,9.7 255.2,980.3 346.8,1511.1 7.3,42.5 30.2,80.8 64.3,107.3 7.4,5.8 746.3,593 949.7,1595.1 10.6,52 44.4,96.3 91.7,120.3 16.6,8.4 167.8,81.3 368.7,54.4 181.4,-24 439.1,-134.6 636.2,-524.5 17.3,-34.2 22.7,-73.1 15.6,-110.7 -15.5,-81.1 -400.7,-1999.1 -2225.1,-2950.5 -25.2,-13.1 -52.7,-19.6 -80.1,-19.6"
           style="display:inline;fill:#000072;fill-opacity:1;fill-rule:nonzero;stroke:none"
           id="path92" />
        <path
           d="m 16638.5,13894.5 c 0,0 297.9,-844.5 212.2,-2076.6 l 981.6,-854.2 c 0,0 256.6,1488.6 -180.4,2725 l -1013.4,205.8"
           style="display:inline;fill:#0096f2;fill-opacity:1;fill-rule:nonzero;stroke:none"
           id="path94" />
        <path
           d="m 17029.1,11892.4 671.2,-584 c 45.5,475 84.2,1406.3 -180.7,2230.3 l -637.5,129.5 c 82.4,-342.8 192.3,-973.5 147,-1775.8 m 803.2,-1102 c -41.1,0 -81.7,14.7 -113.7,42.6 l -981.6,854.1 c -41.1,35.7 -63,88.5 -59.2,142.8 81.9,1177.4 -199.9,1999 -202.8,2007.1 -20.6,58.9 -8.1,124.3 32.9,171.3 41,47 104.2,68.2 165.1,56.1 l 1013.4,-205.8 c 59.7,-12.1 108.7,-54.7 129,-112.1 446.8,-1264.5 198.5,-2749.6 187.7,-2812.2 -10.6,-61.7 -53.7,-112.8 -112.6,-133.8 -19,-6.8 -38.6,-10.1 -58.2,-10.1"
           style="display:inline;fill:#000072;fill-opacity:1;fill-rule:nonzero;stroke:none"
           id="path96" />
        <path
           d="m 23365.5,13894.5 c 0,0 -297.9,-844.5 -212.2,-2076.6 l -981.6,-854.2 c 0,0 -256.5,1488.6 180.4,2725 l 1013.4,205.8"
           style="display:inline;fill:#0096f2;fill-opacity:1;fill-rule:nonzero;stroke:none"
           id="path98" />
        <path
           d="m 22484.4,13538.7 c -265.4,-825.4 -226.5,-1756 -180.9,-2230.5 l 671.5,584.2 c -45.4,802.3 64.6,1433 147,1775.8 l -637.6,-129.5 m -312.7,-2748.3 c -19.5,0 -39.2,3.3 -58.1,10.1 -59,21 -102.1,72.1 -112.7,133.8 -10.8,62.6 -259.1,1547.7 187.8,2812.2 20.3,57.4 69.2,100 128.9,112.1 l 1013.4,205.8 c 61.2,12.6 124.3,-9.1 165.3,-56.1 40.9,-47.1 53.4,-112.5 32.7,-171.4 -4.5,-13 -284.4,-833.2 -202.8,-2007 3.8,-54.3 -18.1,-107.1 -59.1,-142.8 l -981.6,-854.1 c -32,-27.9 -72.6,-42.6 -113.8,-42.6"
           style="display:inline;fill:#000072;fill-opacity:1;fill-rule:nonzero;stroke:none"
           id="path100" />
        <path
           d="M 19023,5770 C 18776,4557 17368,4002 16378.5,4745.5 15604,5327 14753.5,6657 14228,9573.5 c -50,279.5 -97.5,574 -141.5,883.5 l 334.5,317 2217.5,2103 c 0,0 2184.5,-3382 2426.5,-5974.5 v -0.5 c 38,-401.5 29,-784 -42,-1132"
           style="display:inline;fill:#ffffff;fill-opacity:1;fill-rule:nonzero;stroke:none"
           id="path102" />
        <path
           d="m 14197.5,9747.9 c -229.4,231.3 -644.8,732.3 -791.4,1443 -0.3,2.4 -0.6,4.8 -1,7.2 -0.8,5.1 -1.8,10 -3,14.8 -112.7,657 -120.8,1298.9 -74.5,1881.5 161.2,-1186 681,-1797.8 923.8,-2024.9 84.4,-79 143.4,-180.8 169.2,-293.6 l 0.4,-1.9 -334.5,-317 c 34.9,-245.8 72.1,-482.2 111,-709.1"
           style="display:inline;fill:#b2b2d4;fill-opacity:1;fill-rule:nonzero;stroke:none"
           id="path104" />
        <path
           d="m 13402.1,11212.9 c -17.7,71.4 -78.3,122.8 -149.4,130.5 -15.9,5.4 -34.5,11 -55.5,16.1 -250.8,1443.7 86.3,2728 86.3,2728 -13.9,-368.4 4,-698.5 44.1,-993.1 -46.3,-582.6 -38.2,-1224.5 74.5,-1881.5"
           style="display:inline;fill:#000072;fill-opacity:1;fill-rule:nonzero;stroke:none"
           id="path106" />
        <path
           d="m 13406.1,11190.9 c -0.5,2.6 -1,5.2 -1.6,7.8 -10.5,52 -44.3,96.3 -91.7,120.3 -5.6,2.8 -26.8,13.1 -60.1,24.4 71.1,-7.7 131.7,-59.1 149.4,-130.5 1.2,-4.8 2.2,-9.7 3,-14.8 0.4,-2.4 0.7,-4.8 1,-7.2"
           style="display:inline;fill:#000072;fill-opacity:1;fill-rule:nonzero;stroke:none"
           id="path108" />
        <path
           d="m 14645.5,7774.8 c -153.6,519.8 -294.4,1115.7 -417.5,1798.7 -739.5,445.5 -993.5,1591 -993.5,1591 -13.7,65.3 -26.1,130.3 -37.3,195 21,-5.1 39.6,-10.7 55.5,-16.1 33.3,-11.3 54.5,-21.6 60.1,-24.4 47.4,-24 81.2,-68.3 91.7,-120.3 0.6,-2.6 1.1,-5.2 1.6,-7.8 146.6,-710.7 562,-1211.7 791.4,-1443 10,-58.8 20.2,-116.9 30.5,-174.4 123.1,-683 263.9,-1278.9 417.5,-1798.7 v 0"
           style="display:inline;fill:#000072;fill-opacity:1;fill-rule:nonzero;stroke:none"
           id="path110" />
        <path
           d="m 17372.3,4409.3 c -340.1,0 -687.1,105.7 -993.8,336.2 -593.1,445.3 -1230.8,1329.7 -1733,3029.3 -153.6,519.8 -294.4,1115.7 -417.5,1798.7 -10.3,57.5 -20.5,115.6 -30.5,174.4 -38.9,226.9 -76.1,463.3 -111,709.1 l 334.5,317 c 541.5,-2396 1448.5,-5315 2764.5,-5524 72.6,-11.5 143,-17 210.9,-17 1120.8,0 1610.6,1481.8 1668.6,1669 14.5,-153.7 22.2,-304.6 22.1,-451.9 0,-93.1 -3.1,-184.8 -9.6,-274.8 -10,-139.4 -27.9,-274.8 -54.5,-405.3 -26.6,-130.6 -66.6,-253.5 -118.2,-368.1 -56.7,-126.1 -127.4,-242 -209.4,-346.7 -289.2,-369.1 -719,-597.7 -1173.8,-639.1 -49.5,-4.5 -99.3,-6.8 -149.3,-6.8"
           style="display:inline;fill:#b2b2d4;fill-opacity:1;fill-rule:nonzero;stroke:none"
           id="path112" />
        <path
           d="m 16828.6,13038.7 c 252.5,-275 452.1,-581.7 633.1,-898.6 89.9,-158.8 171.8,-321.7 253.2,-484.9 81.4,-163.2 161.2,-327.3 238.9,-492.4 311.2,-660.1 594.6,-1335.1 829.9,-2030.7 235.6,-694.7 425.3,-1412.5 494.5,-2159.8 33.3,-373.1 35.3,-754.8 -28.1,-1137 -13.7,-93.8 -33.8,-194.5 -64.6,-291.5 -28,-97.6 -67.7,-191.8 -110.7,-284.2 -89.8,-183.2 -209.4,-352.1 -352,-498.2 -288.1,-289.3 -668.8,-484.4 -1073.1,-541.7 -201.6,-31.6 -408.6,-24.7 -609.5,10.9 -200.8,38.2 -394.7,110.3 -571.9,209.5 -86.7,51.3 -174,107.7 -249.4,169.8 l -112.9,92.7 c -38.2,30.4 -70.9,65.8 -106.6,98.5 -34.4,33.8 -71,65.8 -103.5,101.2 l -96.6,106.5 c -66.8,69.4 -122.1,146.5 -182,220.6 -231.4,301.7 -415.9,629.9 -577.9,964.4 -164.7,334.3 -290.6,681.9 -412.5,1029.4 -113.2,350.2 -216.2,702.7 -301,1058.8 -41.9,178.2 -86.9,355.7 -121.1,535.1 -35.2,179.2 -77.4,357.2 -103,538 -56.7,360.5 -83.3,726.1 -52.1,1096.8 1.7,21 20.2,36.5 41.1,34.8 14.6,-1.3 26.6,-10.6 31.9,-23.2 l 0.5,-1.1 c 72.1,-172.3 126.6,-346.2 173.6,-520.9 46.3,-174.9 94.3,-348.7 130.6,-524.7 34.8,-176.3 75.5,-350.8 113.9,-526.1 36.4,-175.7 83.4,-348.4 127.2,-522 88.5,-346.9 194.5,-688 309.4,-1025 123.2,-333.2 249.8,-665.9 410.8,-979 157.7,-314.3 337.5,-615.9 548.9,-887.5 54.6,-66.1 105.2,-136.4 164.9,-196.8 l 86.5,-94 c 28.9,-31.2 61.1,-58.3 91.4,-87.7 31.3,-28.1 60.2,-59.5 93.2,-85.1 l 97.6,-78.7 c 64.7,-52.7 130.8,-93.5 199.8,-134.3 139.3,-76.2 289.4,-130.5 444.6,-158.9 155.3,-25.7 315.2,-30.6 471.3,-4.5 313.3,46.3 608.1,202.2 829.5,426.4 110.3,112.7 202.9,242.6 272.9,384.3 33.1,71.7 64.7,144.5 86.5,221 24.4,75.5 40.1,152.8 52.7,238 56.2,332.4 56.7,680.6 26.4,1027.7 -30.7,347.7 -92.4,695.8 -172.3,1040.8 -79.5,345.3 -178.7,687.7 -289.2,1026.9 -221.5,678.7 -492.2,1344.2 -791.5,1996.9 -74.7,163.2 -151.4,325.6 -229.9,487.2 -78,161.8 -160.2,321.5 -236.3,484.4 -153.7,325.1 -298.6,655.5 -412.8,1004.7 l -0.4,1.2 c -10.8,33 7.2,68.5 40.2,79.3 24.2,7.9 49.7,0.3 65.9,-17.3"
           style="display:inline;fill:#000072;fill-opacity:1;fill-rule:nonzero;stroke:none"
           id="path114" />
        <path
           d="m 14713.1,7380.8 c -46.7,0 -93.2,18.7 -127.4,55.7 -64.9,70.4 -60.6,179.9 9.7,244.8 64.3,59.5 1601.7,1458.1 3955.7,1634.1 95.2,7.7 178.6,-64.5 185.7,-159.9 7.2,-95.5 -64.4,-178.7 -159.9,-185.8 -2229,-166.7 -3731.4,-1529.3 -3746.3,-1543 -33.3,-30.7 -75.5,-45.9 -117.5,-45.9"
           style="display:inline;fill:#000072;fill-opacity:1;fill-rule:nonzero;stroke:none"
           id="path116" />
        <path
           d="m 20981,5770 c 247.1,-1213 1655,-1768 2644.6,-1024.5 774.4,581.5 1624.9,1911.5 2150.4,4828 50,279.5 97.6,574 141.6,883.5 l -334.6,317 -2217.5,2103 c 0,0 -2184.5,-3382 -2426.5,-5974.5 v -0.5 c -38,-401.5 -29,-784 42,-1132"
           style="display:inline;fill:#ffffff;fill-opacity:1;fill-rule:nonzero;stroke:none"
           id="path118" />
        <path
           d="m 25806.6,9747.9 c 38.8,226.9 76,463.3 111,709.1 l -334.6,317 0.5,1.9 c 25.7,112.8 84.7,214.6 169.2,293.6 241.5,225.9 757,832.6 921.2,2006.2 45,-583.3 35.3,-1225.1 -79.3,-1881.6 -1.8,-10.5 -2.7,-20.9 -2.6,-31.1 -151.5,-696 -559.1,-1186.9 -785.4,-1415.1"
           style="display:inline;fill:#b2b2d4;fill-opacity:1;fill-rule:nonzero;stroke:none"
           id="path120" />
        <path
           d="m 23972.8,5055.2 v 0 c 97.6,101.7 195.4,216.8 292.7,346.7 v 0 c -97.3,-129.9 -195.1,-245 -292.7,-346.7 M 26592,11163 c -0.1,10.2 0.8,20.6 2.6,31.1 114.6,656.5 124.3,1298.3 79.3,1881.6 41.9,299.4 60.9,635.5 46.6,1011.8 0,0 337.1,-1284.3 86.4,-2728 -21.1,-5.1 -39.7,-10.7 -55.6,-16.1 -78.9,-8.6 -143.9,-70.8 -153.4,-152.5 -1.9,-9.3 -3.9,-18.7 -5.9,-27.9"
           style="display:inline;fill:#000072;fill-opacity:1;fill-rule:nonzero;stroke:none"
           id="path122" />
        <path
           d="m 26597.9,11190.9 c 9.5,81.7 74.5,143.9 153.4,152.5 -33.3,-11.3 -54.5,-21.6 -60.1,-24.4 -47.3,-24 -81.1,-68.3 -91.7,-120.3 -0.5,-2.6 -1,-5.2 -1.6,-7.8"
           style="display:inline;fill:#000072;fill-opacity:1;fill-rule:nonzero;stroke:none"
           id="path124" />
        <path
           d="m 25358.6,7774.8 v 0 c 153.5,519.8 294.4,1115.7 417.4,1798.7 10.3,57.5 20.5,115.6 30.6,174.4 226.3,228.2 633.9,719.1 785.4,1415.1 2,9.2 4,18.6 5.9,27.9 0.6,2.6 1.1,5.2 1.6,7.8 10.6,52 44.4,96.3 91.7,120.3 5.6,2.8 26.8,13.1 60.1,24.4 15.9,5.4 34.5,11 55.6,16.1 -11.2,-64.7 -23.7,-129.7 -37.4,-195 0,0 -253.9,-1145.5 -993.5,-1591 -123,-683 -263.9,-1278.9 -417.4,-1798.7"
           style="display:inline;fill:#000072;fill-opacity:1;fill-rule:nonzero;stroke:none"
           id="path126" />
        <path
           d="m 22631.7,4409.3 c -50,0 -100.1,2.3 -149.7,6.9 -454.7,41.4 -884.3,270 -1173.4,639 -156.4,199.7 -271.7,440.4 -327.6,714.8 -18.3,90.1 -32.6,182.6 -42.9,277.1 -14.3,130.6 -21.1,265.3 -21.2,403 -0.1,147.3 7.6,298.2 22.1,451.9 58,-187.2 547.9,-1669.2 1668.6,-1669 67.9,0 138.4,5.5 210.9,17 1316.1,209 2223.1,3128 2764.5,5524 v 0 l 334.6,-317 c -35,-245.8 -72.2,-482.2 -111,-709.1 -10.1,-58.8 -20.3,-116.9 -30.6,-174.4 -123,-683 -263.9,-1278.9 -417.4,-1798.7 -324.1,-1096.6 -704.6,-1854 -1093.1,-2372.9 -97.3,-129.9 -195.1,-245 -292.7,-346.7 -116.6,-121.4 -232.7,-223.7 -347.2,-309.7 -306.8,-230.5 -653.7,-336.2 -993.9,-336.2"
           style="display:inline;fill:#b2b2d4;fill-opacity:1;fill-rule:nonzero;stroke:none"
           id="path128" />
        <path
           d="m 23281.2,12975.5 c -114.3,-349.2 -259.1,-679.6 -412.8,-1004.7 -76.2,-162.9 -158.4,-322.6 -236.4,-484.4 -78.4,-161.6 -155.2,-324 -229.9,-487.2 -299.2,-652.7 -569.9,-1318.2 -791.4,-1996.9 -110.5,-339.2 -209.8,-681.6 -289.2,-1026.9 -79.9,-345 -141.7,-693.1 -172.4,-1040.8 -30.3,-347.1 -29.7,-695.3 26.5,-1027.7 12.6,-85.2 28.2,-162.5 52.7,-238 21.7,-76.5 53.3,-149.3 86.5,-221 70,-141.7 162.6,-271.6 272.9,-384.3 221.4,-224.2 516.1,-380.1 829.5,-426.4 156.1,-26.1 315.9,-21.2 471.3,4.5 155.1,28.4 305.2,82.7 444.6,158.9 69,40.8 135,81.6 199.7,134.3 l 97.6,78.7 c 33,25.6 62,57 93.3,85.1 30.3,29.4 62.5,56.5 91.4,87.7 l 86.5,94 c 59.7,60.4 110.3,130.7 164.9,196.8 211.3,271.6 391.2,573.2 548.9,887.5 160.9,313.1 287.5,645.8 410.7,979 114.9,337 220.9,678.1 309.5,1025 43.8,173.6 90.7,346.3 127.1,522 38.4,175.3 79.2,349.8 113.9,526.1 36.4,176 84.4,349.8 130.7,524.7 47,174.7 101.5,348.6 173.6,520.9 l 0.4,1 c 8.1,19.4 30.4,28.6 49.8,20.5 13.6,-5.7 22.1,-18.3 23.3,-32 31.2,-370.7 4.6,-736.3 -52.2,-1096.8 -25.5,-180.8 -67.8,-358.8 -103,-538 -34.1,-179.4 -79.2,-356.9 -121.1,-535.1 -84.7,-356.1 -187.8,-708.6 -300.9,-1058.8 -122,-347.5 -247.8,-695.1 -412.5,-1029.4 -162,-334.5 -346.6,-662.7 -578,-964.4 -59.9,-74.1 -115.2,-151.2 -181.9,-220.6 l -96.7,-106.5 c -32.4,-35.4 -69,-67.4 -103.5,-101.2 -35.6,-32.7 -68.4,-68.1 -106.5,-98.5 l -113,-92.7 c -75.3,-62.1 -162.6,-118.5 -249.3,-169.8 -177.3,-99.2 -371.2,-171.3 -571.9,-209.5 -200.9,-35.6 -408,-42.5 -609.6,-10.9 -404.2,57.3 -784.9,252.4 -1073.1,541.7 -142.6,146.1 -262.2,315 -351.9,498.2 -43,92.4 -82.7,186.6 -110.7,284.2 -30.9,97 -50.9,197.7 -64.7,291.5 -63.4,382.2 -61.3,763.9 -28,1137 69.1,747.3 258.8,1465.1 494.4,2159.8 235.4,695.6 518.8,1370.6 830,2030.7 77.7,165.1 157.4,329.2 238.8,492.4 81.5,163.2 163.4,326.1 253.2,484.9 181.1,316.9 380.7,623.6 633.2,898.6 23.5,25.6 63.2,27.3 88.8,3.9 18.7,-17.3 24.7,-43.2 17.3,-65.9 l -0.4,-1.2"
           style="display:inline;fill:#000072;fill-opacity:1;fill-rule:nonzero;stroke:none"
           id="path130" />
        <path
           d="m 25291,7380.7 c -42.1,0 -84.2,15.2 -117.6,46 -14.9,13.7 -1517.2,1376.3 -3746.3,1543 -95.4,7.1 -167,90.3 -159.9,185.8 7.1,95.4 90.5,167.5 185.8,159.9 2353.9,-176 3891.4,-1574.6 3955.7,-1634.1 70.3,-65 74.6,-174.6 9.6,-244.9 -34.2,-37 -80.7,-55.7 -127.3,-55.7"
           style="display:inline;fill:#000072;fill-opacity:1;fill-rule:nonzero;stroke:none"
           id="path132" />
      </g>
      <g
         id="g7982"
         style="display:inline"
         transform="matrix(1.3546078,0,0,1.3546078,-7099.6597,-11928.373)">
        <path
           d="m 29948.94,23564.8 c 0,-5493.5 -4453.4,-9946.9 -9946.9,-9946.9 -5493.5,0 -9946.9,4453.4 -9946.9,9946.9 0,5493.5 4453.4,9946.9 9946.9,9946.9 5493.5,0 9946.9,-4453.4 9946.9,-9946.9"
           style="display:inline;fill:#e1b303;fill-opacity:1;fill-rule:nonzero;stroke:none"
           id="path58" />
        <path
           d="m 20002,33338.3 c -5389.1,0 -9773.5,-4384.3 -9773.5,-9773.5 0,-5389.2 4384.4,-9773.6 9773.5,-9773.6 5389.2,0 9773.6,4384.4 9773.6,9773.6 0,5389.2 -4384.4,9773.5 -9773.6,9773.5 m 0,-19893.7 c -5580.3,0 -10120.22,4539.9 -10120.22,10120.2 0,5580.3 4539.92,10120.2 10120.22,10120.2 5580.3,0 10120.3,-4539.9 10120.3,-10120.2 0,-5580.3 -4540,-10120.2 -10120.3,-10120.2"
           style="display:inline;fill:#ffffff;fill-opacity:1;fill-rule:nonzero;stroke:none"
           id="path134" />
        <path
           d="m 20004.4,14551.3 c 4533.2,0 6333.1,1980.4 6333.1,1980.4 0,0 75.5,-170.6 112.3,-412.9 60.9,-401.3 -109.5,-803.8 -434,-1047.6 -713.3,-535.8 -2529.6,-1556.9 -6013.8,-1556.9 -3484.2,0 -5300.5,1021.1 -6013.7,1556.9 -324.5,243.8 -494.9,646.3 -434,1047.6 36.7,242.3 112.2,412.9 112.2,412.9 0,0 1800,-1980.4 6333.2,-1980.4 h 4.7"
           style="display:inline;fill:#ffffff;fill-opacity:1;fill-rule:nonzero;stroke:none"
           id="path136" />
        <path
           d="m 20002,13687.6 c -3378.9,0 -5152.9,953.7 -5909.6,1522.2 -212.5,159.7 -344.7,395.8 -371.9,648.9 70.6,-109.3 160.7,-207.1 267.8,-287.5 713.2,-535.8 2529.5,-1556.9 6013.7,-1556.9 3484.2,0 5300.5,1021.1 6013.8,1556.9 107,80.4 197.2,178.2 267.8,287.5 -27.2,-253.1 -159.4,-489.2 -371.9,-648.9 -756.7,-568.5 -2530.8,-1522.2 -5909.7,-1522.2"
           style="fill:#b2b2d4;fill-opacity:1;fill-rule:nonzero;stroke:none"
           id="path138" />
        <path
           d="m 20002,13340.9 c -3479.5,0 -5326.5,997.3 -6117.8,1591.7 -379.4,285.1 -571.5,749.5 -501.3,1212.1 39.8,262.4 121.7,449.3 125.1,457.1 23.8,53.6 73,91.6 130.8,101 57.8,9.4 116.5,-11.2 156,-54.5 17.4,-19 1814.3,-1923.6 6204.9,-1923.6 V 14378 c -3750,0 -5652.2,1322.8 -6250.7,1837.9 -8.6,-37.9 -16.7,-79.3 -23.4,-123.1 -51,-336.3 89.5,-674.7 366.8,-883 756.7,-568.5 2530.7,-1522.2 5909.6,-1522.2 3378.9,0 5153,953.7 5909.7,1522.2 277.2,208.3 417.7,546.6 366.7,883 -6.6,43.8 -14.7,85.2 -23.4,123.1 -598.4,-515.1 -2500.7,-1837.9 -6250.6,-1837.9 v 346.7 c 4405.5,0 6187.4,1904.3 6204.8,1923.6 39.5,43.3 98.2,63.8 156,54.5 57.9,-9.4 107.1,-47.4 130.8,-101 3.5,-7.8 85.4,-194.7 125.2,-457.1 70.2,-462.6 -121.9,-927.1 -501.3,-1212.1 -791.3,-594.4 -2638.3,-1591.7 -6117.9,-1591.7"
           style="fill:#ffffff;fill-opacity:1;fill-rule:nonzero;stroke:none"
           id="path140" />
        <path
           d="m 13040,23184.6 c 0,0 -926.5,3020.1 266.3,5737 226.7,516.4 777.1,815.4 1331,709.7 737.9,-140.7 1832,-541.9 2964.9,-1642.8 0,0 -3155.4,-796.3 -4562.2,-4803.9"
           style="fill:#fa9b27;fill-opacity:1;fill-rule:nonzero;stroke:none"
           id="path142" />
        <path
           d="m 13078.1,23767.7 c -198.2,974.2 -473.8,3123.9 386.9,5084.3 156.6,356.6 484.5,588 850.3,622.8 -340.8,-119.3 -621,-390.6 -747,-749 -560.6,-1594.1 -428.3,-3234.2 -210.5,-4351.1 -97.4,-192.4 -191,-394.7 -279.7,-607"
           style="fill:#fdd7a9;fill-opacity:1;fill-rule:nonzero;stroke:none"
           id="path144" />
        <path
           d="m 14411.7,29479.4 c -403.7,0 -776.4,-239.7 -946.7,-627.4 -860.7,-1960.4 -585.1,-4110.1 -386.9,-5084.3 748.9,1792.7 1846,2865 2668.7,3462 638.2,463.1 1199.5,712.5 1522.9,832.5 -1032.2,928.1 -2009.5,1273.9 -2664.8,1398.9 -64.7,12.3 -129.3,18.3 -193.2,18.3 M 13040,23011.3 c -1.2,0 -2.3,0 -3.5,0 -74.9,1.5 -140.3,50.9 -162.2,122.5 -38.7,125.8 -931.6,3113.2 273.3,5857.5 262.6,598 888.6,931 1522.2,810.3 746.6,-142.4 1882.3,-550.9 3053.1,-1688.7 45.1,-43.8 62.9,-108.6 46.7,-169.2 -16.3,-60.7 -64.1,-107.8 -125,-123.2 -7.5,-1.9 -779.3,-204 -1708,-881.4 -855.4,-623.9 -2024,-1791.8 -2733.1,-3811.9 -24.4,-69.5 -90,-115.9 -163.5,-115.9"
           style="fill:#ffffff;fill-opacity:1;fill-rule:nonzero;stroke:none"
           id="path146" />
        <path
           d="m 13736.5,24171.5 c 0,0 -643.8,2098.5 185,3986.3 157.5,358.8 540,566.5 924.9,493.1 512.7,-97.8 1272.9,-376.6 2060.1,-1141.5 0,0 -2192.5,-553.3 -3170,-3337.9"
           style="fill:#ffb380;fill-opacity:1;fill-rule:nonzero;stroke:none"
           id="path148" />
        <path
           d="m 13727.6,24783.5 c -127.5,743.3 -235.5,2088.3 307.3,3324.5 117.7,268.2 375.5,434 654.7,434 44.1,0 88.9,-4.2 133.6,-12.7 444.4,-84.8 1102,-315.8 1800.4,-927.2 -62.6,-30.7 -124.2,-62.2 -184.8,-94.5 -479,297.3 -914.2,436.3 -1245.8,499.5 -51.8,9.9 -103.6,14.7 -154.9,14.7 -328.9,0 -633.6,-197.4 -769.9,-507.8 -381.2,-868.1 -450.9,-1780.7 -415,-2513.4 -43.5,-72.6 -85.3,-144.9 -125.6,-217.1"
           style="fill:#c87137;fill-opacity:1;fill-rule:nonzero;stroke:none"
           id="path150" />
        <path
           d="m 14689.6,28542 c -279.2,0 -537,-165.8 -654.7,-434 -594.4,-1353.6 -408.4,-2837.6 -271,-3519.4 857,2051.9 2353.8,2771.5 2904.3,2974 -714.9,641 -1391.2,880.1 -1845,966.7 -44.7,8.5 -89.5,12.7 -133.6,12.7 m -953.1,-4494.4 -2.5,0.1 c -53.5,1 -100.2,36.3 -115.9,87.4 -26.8,87.5 -647.6,2164.5 190.1,4072.4 183,417 619.3,649.3 1061.4,565 519.1,-99 1308.9,-383 2123.1,-1174.3 32.2,-31.2 44.9,-77.5 33.3,-120.8 -11.6,-43.3 -45.7,-77 -89.3,-88 -21.1,-5.4 -2141.2,-574.9 -3083.4,-3259 -17.5,-49.6 -64.4,-82.8 -116.8,-82.8"
           style="fill:#a05a2c;fill-opacity:1;fill-rule:nonzero;stroke:none"
           id="path152" />
        <path
           d="m 26959.4,23184.6 c 0,0 926.5,3020.1 -266.4,5737 -226.7,516.4 -777.1,815.4 -1331,709.7 -737.9,-140.7 -1832,-541.9 -2964.8,-1642.8 0,0 3155.4,-796.3 4562.2,-4803.9"
           style="fill:#fa9b27;fill-opacity:1;fill-rule:nonzero;stroke:none"
           id="path154" />
        <path
           d="m 26921.2,23767.7 c -88.7,212.4 -182.2,414.5 -279.7,607.1 217.8,1116.8 350.1,2756.9 -210.4,4351 -126.1,358.5 -406.3,629.7 -747.1,749 365.8,-34.8 693.8,-266.2 850.3,-622.8 860.7,-1960.4 585.1,-4110.1 386.9,-5084.3"
           style="fill:#fdd7a9;fill-opacity:1;fill-rule:nonzero;stroke:none"
           id="path156" />
        <path
           d="m 22729.7,28062.2 c 323.3,-120 884.6,-369.4 1522.8,-832.5 822.7,-597 1919.9,-1669.3 2668.7,-3462 198.2,974.2 473.8,3123.9 -386.9,5084.3 -197.1,449 -665.7,699.4 -1139.8,609.1 -655.4,-125 -1632.6,-470.8 -2664.8,-1398.9 m 4229.6,-5050.9 c -73.4,0 -139.1,46.4 -163.5,115.9 -709.1,2020.1 -1877.7,3188 -2733.1,3811.9 -928.6,677.4 -1700.5,879.5 -1708.1,881.4 -60.8,15.6 -108.6,62.7 -124.8,123.4 -16.2,60.6 1.6,125.2 46.6,169 1170.8,1137.8 2306.6,1546.3 3053.1,1688.7 634,120.8 1259.7,-212.3 1522.3,-810.3 1204.8,-2744.3 311.9,-5731.7 273.3,-5857.5 -22,-71.6 -87.4,-121 -162.3,-122.5 -1.1,0 -2.3,0 -3.5,0"
           style="fill:#ffffff;fill-opacity:1;fill-rule:nonzero;stroke:none"
           id="path158" />
        <path
           d="m 26262.9,24171.5 c 0,0 643.8,2098.5 -185.1,3986.3 -157.5,358.8 -540,566.5 -924.8,493.1 -512.7,-97.8 -1273,-376.6 -2060.1,-1141.5 0,0 2192.5,-553.3 3170,-3337.9"
           style="fill:#ffb380;fill-opacity:1;fill-rule:nonzero;stroke:none"
           id="path160" />
        <path
           d="m 26271.7,24783.5 c -40.3,72.2 -82,144.5 -125.6,217.1 35.9,732.6 -33.8,1645.3 -414.9,2513.4 -136.3,310.4 -441,507.8 -770,507.8 -51.2,0 -103,-4.8 -154.9,-14.7 -331.6,-63.2 -766.8,-202.2 -1245.8,-499.5 -60.6,32.3 -122.2,63.8 -184.7,94.5 698.3,611.4 1356,842.4 1800.4,927.2 44.7,8.5 89.4,12.6 133.5,12.6 279.3,0 537,-165.6 654.8,-433.9 542.7,-1236.2 434.7,-2581.2 307.2,-3324.5"
           style="fill:#c87137;fill-opacity:1;fill-rule:nonzero;stroke:none"
           id="path162" />
        <path
           d="m 23331.1,27562.6 c 550.6,-202.5 2047.3,-922.1 2904.3,-2974 137.4,681.8 323.4,2165.8 -270.9,3519.4 -136.4,310.6 -460.3,483.7 -788.3,421.3 -453.9,-86.6 -1130.2,-325.7 -1845.1,-966.7 m 2931.8,-3515 c -52.5,0 -99.4,33.2 -116.8,82.8 -942.2,2684.1 -3062.4,3253.6 -3083.7,3259 -43.4,11.1 -77.5,44.8 -89.1,88.1 -11.5,43.3 1.2,89.5 33.3,120.7 814.2,791.2 1604,1075.3 2123.2,1174.3 441.7,84.2 878.4,-147.9 1061.4,-565 837.7,-1907.9 216.9,-3984.9 190.1,-4072.4 -15.7,-51.1 -62.5,-86.4 -115.9,-87.4 l -2.5,-0.1"
           style="fill:#a05a2c;fill-opacity:1;fill-rule:nonzero;stroke:none"
           id="path164" />
        <path
           d="m 19999.7,14551.4 c -5381.6,0 -8947.2,2881.4 -7438.5,6983.1 38.4,104.4 80.1,209.3 124.9,315.2 49,114.9 83.8,235.1 106.5,357.9 189.2,1038 1412.7,6119.1 7207.1,6119.1 5794.3,0 7017.8,-5081.1 7207.1,-6119.1 22.6,-122.8 57.4,-243 106.5,-357.9 1813.9,-4268.8 -1795,-7298.3 -7313.6,-7298.3"
           style="fill:#fa9b27;fill-opacity:1;fill-rule:nonzero;stroke:none"
           id="path166" />
        <path
           d="m 27438.2,21534.5 c 0,0 -837.1,73.8 -1506.1,-1146 -525.5,-957.3 -2102.2,-963.1 -2952,-375.4 -849.2,587.3 -1901.1,909.1 -2978.1,909.1 -1076.9,0 -2133.6,-321.8 -2982.8,-909.1 -849.7,-587.7 -2426.4,-581.9 -2952,375.4 -668.9,1219.8 -1506,1146 -1506,1146 -1508.7,-4101.7 2056.9,-6983.1 7438.5,-6983.1 5381.6,0 8947.2,2881.4 7438.5,6983.1"
           style="fill:#ffffff;fill-opacity:1;fill-rule:nonzero;stroke:none"
           id="path168" />
        <path
           d="m 19999.7,14551.4 v 0 c 1.6,0 3,0 4.7,0 v 0 c -1.7,0 -3.1,0 -4.7,0"
           style="fill:#b2b2d4;fill-opacity:1;fill-rule:nonzero;stroke:none"
           id="path170" />
        <path
           d="m 19999.7,14551.4 c -2.6,0 -5.3,0 -7.9,0 2.6,0 5.2,0 7.9,0 v 0 0 0 m 4.7,0 v 0 c 1,0 2.2,0 3.1,0 -0.9,0 -2.2,0 -3.1,0 m -16.6,0 c -1.3,0 -2.5,0 -3.8,0 1.3,0 2.5,0 3.8,0 m 23.8,0 h 0.3 c 1.3,0 2.1,0 3.4,0 -1.3,0 -2.4,0 -3.7,0 m 8.8,0 c 1,0 1.8,0 2.8,0 -1,0 -1.8,0 -2.8,0 m -43,0 c -0.3,0 -0.9,0 -1.2,0 0.3,0 0.9,0 1.2,0 m 49.8,0 h 0.2 c 1.3,0 2.4,0 3.7,0 -1.3,0 -2.6,0 -3.9,0 m -55.8,0 c -0.9,0 -2.1,0 -3.1,0 1,0 2.2,0 3.1,0 m 63.6,0.1 c 0.3,0 0.3,0 0.6,0 1,0 2.4,0 3.4,0 -1.3,0 -2.7,0 -4,0 m -70.8,0 c -1.3,0 -2.4,0 -3.7,0 1.3,0 2.4,0 3.7,0 m -6.9,0 c -1.6,0 -3.1,0 -4.7,0 1.6,0 3.1,0 4.7,0 m 85.9,0 c 0.3,0 0.3,0 0.7,0 1,0 1.9,0 2.9,0 -1,0 -2.7,0 -3.6,0 m -93.3,0 c -1.6,0 -3.5,0 -5.1,0 1.6,0 3.5,0 5.1,0 m 101.4,0 c 0.3,0 0.3,0 0.6,0 1,0 1.8,0 2.7,0 -0.9,0 -2.3,0 -3.3,0 m -109.8,0 c -1.3,0 -3.2,0 -4.5,0 1.6,0 2.8,0 4.5,0 m 117.4,0 h 0.6 c 0.9,0 2,0 3,0 -1,0 -2.7,0 -3.6,0 m -125.8,0.1 c -1.3,0 -2.7,0 -4,0 1.4,0 2.7,0 4,0 m 133.9,0 h 0.6 c 1,0 1.7,0 2.7,0 -1,0 -2.3,0 -3.3,0 m -141.2,0 c -1.3,0 -3.3,0 -4.6,0 1.7,0 2.9,0 4.6,0 m 149,0 c 0.3,0 0.4,0 0.7,0 1,0 1.7,0 2.7,0 -1,0 -2.4,0 -3.4,0 m -157.1,0 c -1.3,0 -2.9,0.1 -4.2,0.1 1.7,0 2.5,-0.1 4.2,-0.1 m 165.1,0 c 0.4,0 0.4,0 0.8,0.1 0.9,0 1.4,0 2.4,0 -1,0 -2.2,0 -3.2,-0.1 m -173.7,0.1 c -0.9,0 -2.4,0 -3.3,0 1.3,0 2,0 3.3,0 m 181.6,0 c 0.3,0 0.2,0 0.6,0 1,0 1.5,0 2.5,0 -1,0 -2.2,0 -3.1,0 m -189.4,0 c -0.9,0 -2.4,0.1 -3.4,0.1 1.3,0 2.1,-0.1 3.4,-0.1 m 197.5,0 c 0.3,0 0.3,0 0.6,0 1,0.1 1.2,0.1 2.2,0.1 -1,0 -1.8,-0.1 -2.8,-0.1 m -204.6,0.1 c -1.7,0 -2.6,0 -4.2,0 1.6,0 2.5,0 4.2,0 m 212.4,0 c 0.4,0 0.5,0 0.9,0 0.6,0 1.4,0 2,0 -0.9,0 -1.9,0 -2.9,0 m -220.2,0 c -1.7,0.1 -2.6,0.1 -4.2,0.1 1.3,0 2.8,0 4.2,-0.1 m 228.3,0.1 c 0.3,0 0.5,0 0.8,0 0.7,0 1.2,0 1.8,0 -0.9,0 -1.7,0 -2.6,0 m -236.4,0 c -1,0 -2.9,0 -3.8,0 1.3,0 2.5,0 3.8,0 m 244.1,0 c 0.3,0 0.5,0 0.9,0 0.6,0 1.2,0 1.8,0 -1,0 -1.7,0 -2.7,0 m -252.4,0.1 c -0.9,0 -2.3,0 -3.3,0 1,0 2.4,0 3.3,0 m 260.6,0 c 0.4,0 0.5,0 0.8,0 0.7,0 0.8,0 1.5,0 -1,0 -1.3,0 -2.3,0 m -268.4,0 c -1.3,0.1 -2,0.1 -3.3,0.1 1,0 2.3,0 3.3,-0.1 m 276.2,0.1 c 0.3,0 0.6,0 1,0 0.6,0 0.8,0 1.4,0 -1,0 -1.4,0 -2.4,0 m -284.3,0 c -0.9,0 -2,0 -2.9,0.1 1,-0.1 2,-0.1 2.9,-0.1 m 292.2,0 c 0.4,0 0.7,0 1.1,0 0.6,0 0.6,0 1.2,0.1 -0.6,-0.1 -1.6,-0.1 -2.3,-0.1 m -299.8,0.1 c -1.3,0 -1.9,0 -3.2,0 1,0 2.2,0 3.2,0 m 307.6,0 c 0.3,0 0.8,0 1.1,0 0.7,0 0.6,0 1.2,0 -0.6,0 -1.6,0 -2.3,0 m -315.6,0.1 c -1,0 -1.9,0 -2.9,0 1,0 1.9,0 2.9,0 m 323.8,0 c 0.6,0 0.4,0 1,0 0.4,0 0.6,0 0.9,0 -0.6,0 -1.3,0 -1.9,0 m -331.5,0.1 c -1,0 -2,0 -3,0 1,0 2,0 3,0 m 339.1,0 c 0.4,0 0.9,0 1.2,0 0.3,0 0.7,0 1,0 -0.7,0 -1.5,0 -2.2,0 m -347,0.1 c -1,0 -1.9,0 -2.9,0 1,0 1.9,0 2.9,0 m 355.1,0 c 0.4,0 0.8,0 1.2,0 0.3,0 0.3,0 0.7,0 -0.7,0 -1.2,0 -1.9,0 m -362.6,0 c -1.3,0.1 -1.9,0.1 -3.2,0.1 1,0 2.2,0 3.2,-0.1 m 370.4,0.1 c 0.3,0 0.9,0 1.2,0 0.4,0 0.3,0 0.7,0 -0.7,0 -1.2,0 -1.9,0 m -378.5,0 c -0.9,0.1 -1.9,0.1 -2.8,0.1 1,0 1.9,0 2.8,-0.1 m 386.7,0.1 c 0.3,0 0.9,0 1.2,0 0.3,0 -0.1,0 0.3,0 -0.3,0 -1.2,0 -1.5,0 m -394.4,0.1 c -1,0 -1.9,0 -2.9,0 1,0 1.9,0 2.9,0 m 402.1,0 c 0.4,0 1,0 1.3,0 0.3,0 0,0 0.3,0 -0.3,0 -1.2,0 -1.6,0 m -410,0.1 c -0.9,0 -1.8,0 -2.8,0 1,0 1.8,0 2.8,0 m 418,0 c 0.3,0 1,0 1.3,0 0.4,0 -0.2,0 0.1,0 -0.3,0 -1.1,0 -1.4,0 m -425.6,0.1 c -0.9,0 -2,0 -3,0 1,0 2.1,0 3,0 m 433.3,0 c 0.7,0 0.8,0 1.5,0 h 0.1 c -0.3,0 -1.2,0 -1.6,0 m -441.2,0.1 c -1,0 -1.8,0 -2.8,0 1,0 1.8,0 2.8,0 m -7.8,0.1 c -0.9,0 -1.8,0 -2.7,0 0.9,0 1.8,0 2.7,0 m -8,0.1 c -1,0 -1.4,0.1 -2.4,0.1 1,-0.1 1.4,-0.1 2.4,-0.1 m 485.7,0.1 c 1,0.1 1.6,0.1 2.6,0.1 -0.9,0 -1.7,0 -2.6,-0.1 m -493.4,0.1 c -0.9,0 -1.5,0 -2.5,0 1,0 1.6,0 2.5,0 m -8.2,0.1 c -0.7,0 -1.2,0 -1.9,0 0.7,0 1.2,0 1.9,0 m 517.7,0.1 c 0.7,0 1.4,0 2.1,0.1 -0.6,-0.1 -1.5,-0.1 -2.1,-0.1 m -525.3,0 c -1,0 -1.1,0 -2.1,0.1 0.7,-0.1 1.4,-0.1 2.1,-0.1 m 532.9,0.2 c 0.7,0 1.6,0 2.3,0 -0.7,0 -1.6,0 -2.3,0 m -540.7,0 c -0.6,0 -1.4,0 -2,0 0.6,0 1.4,0 2,0 m 547.9,0.1 c 1,0 2.1,0 3.1,0 -1.3,0 -1.8,0 -3.1,0 m -555.4,0 c -1,0 -1.4,0 -2.3,0 0.6,0 1.6,0 2.3,0 m 563.7,0.1 c 1,0.1 1.4,0.1 2.4,0.1 -0.7,0 -1.8,0 -2.4,-0.1 m -571.9,0.1 c -0.6,0 -1,0 -1.7,0 0.7,0 1.1,0 1.7,0 m 579.6,0.1 c 1,0 1.6,0 2.6,0 -0.9,0 -1.7,0 -2.6,0 m -587.2,0 c -0.7,0 -1.2,0 -1.9,0 0.7,0 1.2,0 1.9,0 m 594.7,0.1 c 1,0.1 2,0.1 3,0.1 -1,0 -2,0 -3,-0.1 m -602.4,0.1 c -0.7,0 -1.3,0 -1.9,0 0.6,0 1.2,0 1.9,0 m 609.9,0.1 c 1.4,0 2.1,0 3.5,0.1 -1,-0.1 -2.5,-0.1 -3.5,-0.1 m -617.5,0 c -0.7,0 -1.5,0 -2.1,0.1 0.7,-0.1 1.4,-0.1 2.1,-0.1 m 625.5,0.2 c 1,0 2.1,0 3.1,0 -1,0 -2.1,0 -3.1,0 m -633.5,0 c -0.6,0 -1.1,0 -1.7,0 0.6,0 1.1,0 1.7,0 m 641.4,0.1 c 1,0.1 2.1,0.1 3.1,0.1 -1,0 -2.1,0 -3.1,-0.1 m -649.3,0.1 c -0.6,0 -0.8,0 -1.4,0 0.6,0 0.8,0 1.4,0 m 656.9,0.1 c 1,0 2.4,0.1 3.4,0.1 -1,0 -2.4,-0.1 -3.4,-0.1 m -664.7,0 c -0.3,0 -1,0 -1.3,0.1 0.6,-0.1 0.6,-0.1 1.3,-0.1 m 672.5,0.2 c 1,0 2.4,0 3.4,0.1 -1.3,-0.1 -2.1,-0.1 -3.4,-0.1 m -680.3,0 c -0.3,0 -0.8,0 -1.2,0 0.4,0 0.9,0 1.2,0 m 688.3,0.2 c 1,0 2,0 3,0 -1,0 -2,0 -3,0 m -696.3,0 h -0.7 c 0.3,0 0.4,0 0.7,0 m 704.1,0.1 c 1.3,0.1 1.9,0.1 3.2,0.1 -1.3,0 -1.9,0 -3.2,-0.1 m -711.6,0.1 c -0.3,0 -0.7,0 -1.1,0 0.4,0 0.8,0 1.1,0 m 719.4,0.1 c 1,0.1 2.1,0.1 3,0.1 -0.9,0 -2,0 -3,-0.1 m -727.1,0.1 c -0.3,0 -0.7,0 -1.1,0 0.4,0 0.8,0 1.1,0 m 734.8,0.1 c 1,0.1 2.4,0.1 3.4,0.1 -1,0 -2.4,0 -3.4,-0.1 m -742.5,0 c -0.3,0.1 -0.7,0.1 -1,0.1 0.3,0 0.7,0 1,-0.1 m 750.4,0.2 c 1,0.1 2,0.1 3,0.1 -1,0 -2,0 -3,-0.1 m -758.3,0 -0.7,0.1 c 0.3,0 0.4,0 0.7,-0.1 m 766.3,0.2 c 1,0.1 1.6,0.1 2.6,0.1 -0.9,0 -1.7,0 -2.6,-0.1 m -774,0 -0.7,0.1 c 0.4,0 0.4,0 0.7,-0.1 m 781.7,0.2 c 0.7,0.1 2,0.1 2.7,0.1 -1,0 -1.7,0 -2.7,-0.1 m -789.6,0.1 h -0.3 c 0.3,0 0,0 0.3,0 m 797.4,0.2 c 0.7,0 2,0 2.7,0 -1,0 -1.7,0 -2.7,0 m -804.8,0 h -0.8 c 0.3,0 0.4,0 0.8,0 m 812.6,0.2 c 1,0 1.5,0 2.5,0 -1,0 -1.5,0 -2.5,0 m -820.6,0 h -0.3 c 0.3,0 0,0 0.3,0 m 828.5,0.2 c 1,0 1.3,0 2.3,0 -1,0 -1.4,0 -2.3,0 m -836.3,0 v 0 0 m 844,0.2 c 0.9,0 1.4,0 2.4,0.1 -0.9,-0.1 -1.5,-0.1 -2.4,-0.1 m 7.8,0.2 c 0.6,0 1.4,0.1 2,0.1 -0.6,0 -1.4,-0.1 -2,-0.1 m 7.9,0.3 c 0.3,0 0.3,0 0.6,0 -0.3,0 -0.3,0 -0.6,0 m 60.5,1.9 c 0.3,0 0.7,0 1,0 -0.3,0 -0.7,0 -1,0 m 8.1,0.3 c 0.3,0 0.1,0 0.5,0 h -0.5 m 7.3,0.2 c 0.3,0 0.6,0.1 0.9,0.1 -0.3,0 -0.6,-0.1 -0.9,-0.1 m 7.3,0.3 c 0.7,0 0.7,0 1.4,0 -0.3,0 -1.1,0 -1.4,0 m 7.7,0.3 c 0.4,0 1,0 1.4,0 -0.3,0 -1.1,0 -1.4,0 m 7.7,0.2 c 0.3,0.1 1,0.1 1.3,0.1 -0.3,0 -1,0 -1.3,-0.1 m 7.8,0.3 c 0.3,0.1 0.9,0.1 1.2,0.1 -0.3,0 -0.9,0 -1.2,-0.1 m 7.4,0.3 c 0.7,0 0.9,0.1 1.6,0.1 -0.6,0 -1,-0.1 -1.6,-0.1 m 7.7,0.3 c 0.6,0 0.9,0 1.6,0.1 -0.7,-0.1 -1,-0.1 -1.6,-0.1 m 7.7,0.3 c 0.3,0 1.2,0.1 1.5,0.1 -0.6,-0.1 -0.9,-0.1 -1.5,-0.1 m 7.7,0.3 c 0.4,0 1.2,0.1 1.5,0.1 -0.6,-0.1 -0.8,-0.1 -1.5,-0.1 m 7.6,0.3 c 0.6,0 1,0 1.6,0.1 -0.6,-0.1 -1,-0.1 -1.6,-0.1 m 7.8,0.3 c 0.7,0.1 0.7,0.1 1.3,0.1 -0.6,0 -0.6,0 -1.3,-0.1 m 7.7,0.3 c 0.3,0 1,0.1 1.3,0.1 -0.6,0 -0.7,0 -1.3,-0.1 m 7.7,0.4 c 0.3,0 1,0 1.3,0 -0.6,0 -0.7,0 -1.3,0 m 7.5,0.3 c 0.6,0 0.9,0 1.6,0 -0.6,0 -1,0 -1.6,0 m 7.8,0.3 c 0.7,0 0.4,0 1.1,0 -0.3,0 -0.8,0 -1.1,0 m 7.9,0.3 c 0.3,0.1 0,0 0.4,0.1 l -0.4,-0.1 m 15.3,0.7 v 0 0"
           style="fill:#000072;fill-opacity:1;fill-rule:nonzero;stroke:none"
           id="path172" />
        <path
           d="m 20010.3,14551.4 c 0.4,0 1.2,0 1.6,0 h -0.3 c -0.3,0 -0.9,0 -1.3,0 m 16.4,0 c 0.3,0 0.3,0 0.7,0 h -0.2 -0.5 m 6.6,0.1 c 0.9,0 1.4,0 2.3,0 -0.3,0 -0.3,0 -0.6,0 -0.6,0 -1.1,0 -1.7,0 m 7.7,0 c 0.9,0 1.9,0 2.9,0 -0.4,0 -0.4,0 -0.7,0 -1,0 -1.3,0 -2.2,0 m 8.4,0 c 0.9,0 1.5,0 2.5,0 -0.3,0 -0.3,0 -0.6,0 -0.6,0 -1.3,0 -1.9,0 m 7.6,0 c 1,0 1.5,0 2.5,0 h -0.6 c -0.7,0 -1.2,0 -1.9,0 m 8.1,0.1 c 0.9,0 1.5,0 2.5,0 h -0.6 c -0.7,0 -1.3,0 -1.9,0 m 7.7,0 c 0.9,0 1.8,0 2.7,0 -0.3,0 -0.4,0 -0.7,0 -0.6,0 -1.4,0 -2,0 m 7.5,0 c 1,0 2.3,0 3.3,0.1 -0.4,-0.1 -0.4,-0.1 -0.8,-0.1 -0.6,0 -1.8,0 -2.5,0 m 8.3,0.1 c 1,0 1.7,0 2.7,0 -0.4,0 -0.3,0 -0.6,0 -0.7,0 -1.5,0 -2.1,0 m 8.3,0 c 0.6,0 1.9,0 2.5,0 -0.3,0 -0.3,0 -0.6,0 -0.7,0 -1.3,0 -1.9,0 m 7.4,0.1 c 1.3,0 1.9,0 3.2,0 -0.4,0 -0.5,0 -0.9,0 -0.9,0 -1.3,0 -2.3,0 m 7.5,0 c 1.3,0 2.4,0.1 3.7,0.1 -0.3,0 -0.5,0 -0.8,0 -1,-0.1 -1.9,-0.1 -2.9,-0.1 m 7.9,0.1 c 1.3,0 2.2,0 3.6,0 -0.4,0 -0.6,0 -0.9,0 -1,0 -1.7,0 -2.7,0 m 8.3,0.1 c 1,0 2.4,0 3.4,0 -0.3,0 -0.4,0 -0.8,0 -0.6,0 -2,0 -2.6,0 m 7.6,0 c 1.3,0 2.5,0.1 3.8,0.1 -0.4,0 -0.7,0 -1,0 -1,-0.1 -1.8,-0.1 -2.8,-0.1 m 7.5,0.1 c 1.3,0 3,0 4.3,0 -0.4,0 -0.7,0 -1.1,0 -1.2,0 -1.9,0 -3.2,0 m 7.7,0.1 c 1.3,0 3.1,0 4.4,0 -0.3,0 -0.8,0 -1.1,0 -1.3,0 -2,0 -3.3,0 m 8,0.1 c 1.6,0 2.9,0 4.5,0 -0.6,0 -0.4,0 -1,0 -1.3,0 -2.2,0 -3.5,0 m 7.7,0 c 1.6,0.1 3,0.1 4.6,0.1 -0.3,0 -0.8,0 -1.2,0 -1.2,0 -2.2,0 -3.4,-0.1 m 7.8,0.1 c 1.6,0.1 3.2,0.1 4.9,0.1 -0.4,0 -0.8,0 -1.2,0 -1.3,0 -2.4,-0.1 -3.7,-0.1 m 7.8,0.1 c 1.6,0 3.3,0.1 4.9,0.1 -0.3,0 -0.9,0 -1.2,0 -1.3,0 -2.4,-0.1 -3.7,-0.1 m 7.9,0.1 c 1.6,0 3.6,0.1 5.2,0.1 -0.3,0 -0.9,0 -1.2,0 -1.7,0 -2.4,-0.1 -4,-0.1 m 7.7,0.1 c 1.6,0 3.7,0.1 5.3,0.1 -0.3,0 -0.9,0 -1.3,0 -1.6,0 -2.4,-0.1 -4,-0.1 m 7.8,0.1 c 1.6,0.1 3.9,0.1 5.5,0.1 -0.3,0 -1,0 -1.3,0 -1.7,0 -2.6,0 -4.2,-0.1 m 7.5,0.1 c 2.2,0.1 3.6,0.1 5.9,0.1 -0.7,0 -0.8,0 -1.5,0 -1.6,0 -2.8,0 -4.4,-0.1 m 7.7,0.1 c 2.3,0.1 3.9,0.1 6.1,0.1 -2.2,0 -3.9,0 -6.1,-0.1 m 7.6,0.2 c 2.3,0 4.1,0 6.4,0.1 -2.3,-0.1 -4.2,-0.1 -6.4,-0.1 m 7.7,0.1 c 2.3,0 4.2,0 6.5,0.1 -2.3,-0.1 -4.2,-0.1 -6.5,-0.1 m 7.6,0.1 c 2.3,0 4.4,0.1 6.7,0.1 -0.6,0 -0.9,0 -1.6,0 -1,0 -1.6,0 -2.6,-0.1 -0.7,0 -1.8,0 -2.5,0 m 7.9,0.1 c 2.3,0.1 4.3,0.1 6.6,0.1 -2.3,0 -4.4,0 -6.6,-0.1 m 7.6,0.2 c 2.3,0 4.6,0 6.9,0.1 -0.6,0 -1.1,0 -1.7,0 -0.7,-0.1 -1.4,-0.1 -2.1,-0.1 -1,0 -2.1,0 -3.1,0 m 7.6,0.1 c 2.6,0 4.6,0.1 7.2,0.1 -0.7,0 -1.2,0 -1.8,0 -0.7,0 -1.6,0 -2.3,0 -0.9,-0.1 -2.2,-0.1 -3.1,-0.1 m 7.5,0.1 c 2.6,0.1 4.8,0.1 7.4,0.2 -0.3,0 -1.2,0 -1.5,-0.1 -1,0 -2.1,0 -3.1,0 -0.7,0 -2.1,-0.1 -2.8,-0.1 m 7.9,0.2 c 2.6,0 4.7,0.1 7.3,0.1 -0.7,0 -1.1,0 -1.7,0 -1,0 -1.4,0 -2.4,-0.1 -1,0 -2.2,0 -3.2,0 m 7.9,0.1 c 2.6,0.1 4.7,0.1 7.2,0.2 -0.3,0 -1.2,0 -1.6,-0.1 -1,0 -1.6,0 -2.6,0 -1,0 -2,0 -3,-0.1 m 7.5,0.2 c 2858.9,57.2 5174.1,939.6 6438.8,2388.7 -1212.6,-1389.5 -3391.3,-2257.9 -6089,-2377.5 v 0 c -5.1,-0.2 -9.9,-0.4 -14.9,-0.6 -0.4,-0.1 -0.1,0 -0.4,-0.1 -2.2,-0.1 -4.6,-0.2 -6.8,-0.3 -0.7,0 -0.4,0 -1.1,0 -2.2,-0.1 -4,-0.2 -6.2,-0.3 -0.7,0 -1,0 -1.6,0 -2,-0.1 -4.3,-0.2 -6.2,-0.3 -0.3,0 -1,0 -1.3,0 -1.9,-0.1 -4.5,-0.2 -6.4,-0.3 -0.3,0 -1,-0.1 -1.3,-0.1 -1.9,0 -4.5,-0.1 -6.4,-0.2 -0.6,0 -0.6,0 -1.3,-0.1 -1.9,-0.1 -4.3,-0.1 -6.2,-0.2 -0.6,-0.1 -1,-0.1 -1.6,-0.1 -1.9,-0.1 -4.2,-0.2 -6.1,-0.2 -0.3,0 -1.1,-0.1 -1.5,-0.1 -1.9,-0.1 -4.3,-0.2 -6.2,-0.2 -0.3,0 -1.2,-0.1 -1.5,-0.1 -1.9,-0.1 -4.2,-0.2 -6.1,-0.2 -0.7,-0.1 -1,-0.1 -1.6,-0.1 -1.9,-0.1 -4.2,-0.1 -6.1,-0.2 -0.7,0 -0.9,-0.1 -1.6,-0.1 -2.2,-0.1 -4,-0.1 -6.2,-0.2 -0.3,0 -0.9,0 -1.2,-0.1 -2.2,0 -4.2,-0.1 -6.5,-0.2 -0.3,0 -1,0 -1.3,-0.1 -2.2,0 -4.1,-0.1 -6.3,-0.2 -0.4,0 -1,0 -1.4,0 -2.2,-0.1 -4.1,-0.2 -6.3,-0.3 -0.7,0 -0.7,0 -1.4,0 -2.2,-0.1 -4.1,-0.2 -6.4,-0.2 -0.3,0 -0.6,-0.1 -0.9,-0.1 -2.3,0 -4.6,-0.1 -6.8,-0.2 -0.4,0 -0.2,0 -0.5,0 -2.5,-0.1 -4.6,-0.2 -7.1,-0.3 -0.3,0 -0.7,0 -1,0 -19.8,-0.7 -40,-1.3 -59.9,-1.9 -0.3,0 -0.3,0 -0.6,0 -1.9,-0.1 -4,-0.2 -5.9,-0.2 -0.6,0 -1.4,-0.1 -2,-0.1 -1.9,0 -3.5,-0.1 -5.4,-0.1 -1,-0.1 -1.5,-0.1 -2.4,-0.1 -1.6,0 -3.8,-0.1 -5.4,-0.2 -1,0 -1.3,0 -2.3,0 -1.6,-0.1 -3.8,-0.1 -5.4,-0.2 -1,0 -1.5,0 -2.5,0 -1.6,-0.1 -3.5,-0.1 -5.1,-0.2 -0.7,0 -2,0 -2.7,0 -1.6,-0.1 -3.5,-0.1 -5.1,-0.2 -0.7,0 -2,0 -2.7,-0.1 -1.6,0 -3.5,-0.1 -5.1,-0.1 -1,0 -1.6,0 -2.6,-0.1 -1.6,0 -3.4,-0.1 -5,-0.1 -1,0 -2,0 -3,-0.1 -1.6,0 -2.9,0 -4.5,-0.1 -1,0 -2.4,0 -3.4,-0.1 -1.6,0 -3,0 -4.7,-0.1 -0.9,0 -2,0 -3,-0.1 -1.6,0 -3,0 -4.6,-0.1 -1.3,0 -1.9,0 -3.2,-0.1 -1.6,0 -3.2,0 -4.8,-0.1 -1,0 -2,0 -3,0 -1.3,-0.1 -3.3,-0.1 -4.6,-0.1 -1,-0.1 -2.4,-0.1 -3.4,-0.1 -1.6,-0.1 -2.8,-0.1 -4.4,-0.1 -1,0 -2.4,-0.1 -3.4,-0.1 -1.6,0 -2.9,-0.1 -4.5,-0.1 -1,0 -2.1,0 -3.1,-0.1 -1.6,0 -3.2,0 -4.8,-0.1 -1,0 -2.1,0 -3.1,0 -1.6,-0.1 -2.9,-0.1 -4.5,-0.1 -1.4,-0.1 -2.1,-0.1 -3.5,-0.1 -1.6,0 -2.9,-0.1 -4.5,-0.1 -1,0 -2,0 -3,-0.1 -1,0 -2,0 -3,0 m 6439.6,2389.6 c 0.8,0.9 1.6,1.8 2.5,2.8 -0.8,-0.8 -1.8,-2 -2.5,-2.8 m 4,4.6 c 0.6,0.7 1.1,1.2 1.6,1.9 -0.5,-0.7 -1,-1.2 -1.6,-1.9 m 4,4.5 c 0.2,0.4 0.6,0.8 0.9,1.1 -0.4,-0.5 -0.5,-0.6 -0.9,-1.1"
           style="fill:#af6c3e;fill-opacity:1;fill-rule:nonzero;stroke:none"
           id="path174" />
        <path
           d="m 19999.7,14551.4 c -2.7,0 -5.3,0 -7.9,0 -1.3,0 -2.7,0 -4,0 -1.3,0 -2.5,0 -3.8,0 -2.3,0 -4.3,0 -6.6,0 -0.3,0 -0.9,0 -1.2,0 -1.6,0 -3.1,0 -4.8,0 -0.9,0 -2.1,0 -3.1,0 -1.3,0.1 -2.8,0.1 -4.1,0.1 -1.3,0 -2.4,0 -3.7,0 -1,0 -2.2,0 -3.2,0 -1.6,0 -3.1,0 -4.7,0 -1,0 -1.7,0 -2.7,0 -1.6,0 -3.5,0 -5.1,0 -1.3,0 -2,0 -3.3,0 -1.7,0 -2.9,0 -4.5,0 -1.3,0.1 -2.6,0.1 -3.9,0.1 -1.3,0 -2.6,0 -4,0 -1.3,0 -2,0 -3.3,0 -1.7,0 -2.9,0 -4.6,0 -1.3,0 -2.2,0 -3.5,0 -1.7,0 -2.5,0.1 -4.2,0.1 -1.6,0 -2.7,0 -4.4,0 -1.3,0 -2,0 -3.3,0 -1.7,0 -2.8,0 -4.5,0 -1.3,0 -2.1,0.1 -3.4,0.1 -1.3,0 -2.4,0 -3.7,0 -1.7,0 -2.6,0 -4.2,0 -1,0 -2.7,0 -3.6,0 -1.4,0.1 -2.9,0.1 -4.2,0.1 -1.3,0 -2.6,0 -3.9,0 -1.3,0 -2.5,0 -3.8,0 -1.7,0.1 -2.8,0.1 -4.5,0.1 -0.9,0 -2.3,0 -3.3,0 -1.6,0 -2.9,0 -4.5,0 -1,0.1 -2.3,0.1 -3.3,0.1 -1.3,0 -3.5,0 -4.8,0 -0.9,0 -1.9,0 -2.9,0.1 -1.6,0 -3.1,0 -4.7,0 -1,0 -2.2,0 -3.2,0 -1.6,0 -3.2,0.1 -4.8,0.1 -1,0 -1.9,0 -2.9,0 -1.6,0 -3.2,0 -4.8,0.1 -1,0 -2,0 -3,0 -1.6,0 -3.3,0 -4.9,0.1 -1,0 -1.9,0 -2.9,0 -1.3,0 -3.3,0 -4.6,0 -1,0.1 -2.2,0.1 -3.2,0.1 -1.6,0 -3.2,0 -4.9,0 -0.9,0.1 -1.8,0.1 -2.8,0.1 -1.6,0 -3.3,0 -4.9,0.1 -1,0 -1.9,0 -2.9,0 -1.6,0 -3.4,0 -5,0.1 -1,0 -1.8,0 -2.8,0 -1.6,0 -3.2,0 -4.8,0.1 -0.9,0 -2,0 -3,0 -1.6,0 -3.3,0.1 -4.9,0.1 -1,0 -1.8,0 -2.8,0 -1.6,0 -3.4,0.1 -5,0.1 -0.9,0 -1.8,0 -2.7,0 -1.6,0.1 -3.7,0.1 -5.3,0.1 -1,0 -1.4,0 -2.4,0.1 -1.6,0 -3.6,0 -5.3,0.1 -0.9,0 -1.5,0 -2.5,0 -1.9,0 -3.8,0.1 -5.7,0.1 -0.7,0 -1.2,0 -1.9,0 -1.6,0.1 -4.1,0.1 -5.7,0.1 -0.7,0 -1.4,0 -2.1,0.1 -1.9,0 -3.8,0 -5.7,0.1 -0.6,0 -1.4,0 -2,0 -1.6,0 -3.9,0.1 -5.5,0.1 -0.7,0 -1.7,0 -2.3,0 -1.9,0.1 -4,0.1 -5.9,0.2 -0.6,0 -1,0 -1.7,0 -1.9,0 -4,0.1 -5.9,0.1 -0.7,0 -1.2,0 -1.9,0 -1.9,0.1 -3.9,0.1 -5.8,0.2 -0.7,0 -1.3,0 -1.9,0 -2,0 -3.8,0.1 -5.7,0.1 -0.7,0 -1.4,0 -2.1,0.1 -1.9,0 -3.9,0 -5.9,0.1 -0.6,0 -1.1,0 -1.7,0 -1.9,0.1 -4.2,0.1 -6.2,0.2 -0.6,0 -0.8,0 -1.4,0 -1.9,0 -4.5,0.1 -6.4,0.1 -0.7,0 -0.7,0 -1.3,0.1 -2.3,0 -4.2,0.1 -6.5,0.1 -0.3,0 -0.8,0 -1.2,0 -2.5,0.1 -4.2,0.1 -6.8,0.2 -0.3,0 -0.4,0 -0.7,0 -2.3,0.1 -4.5,0.1 -6.8,0.2 -0.3,0 -0.7,0 -1.1,0 -2.2,0 -4.3,0.1 -6.6,0.2 -0.3,0 -0.7,0 -1.1,0 -2.2,0 -4.3,0.1 -6.6,0.1 -0.3,0.1 -0.7,0.1 -1,0.1 -2.6,0 -4.3,0.1 -6.9,0.1 -0.3,0.1 -0.4,0.1 -0.7,0.1 -2.6,0 -4.5,0.1 -7,0.1 -0.3,0.1 -0.3,0.1 -0.7,0.1 -2.5,0 -4.6,0.1 -7.2,0.2 -0.3,0 0,0 -0.3,0 -2.6,0 -4.6,0.1 -7.1,0.2 -0.4,0 -0.5,0 -0.8,0 -2.5,0 -4.6,0.1 -7.2,0.2 -0.3,0 0,0 -0.3,0 -2.5,0.1 -5,0.1 -7.5,0.2 v 0 c -4200.2,118.8 -7198.7,2031 -7360.5,4901.6 22,400.1 96.5,816.5 228.1,1247.5 -76,-3070.1 3095.6,-5106.1 7550.7,-5106.1 4456,0 7627.5,2036.3 7550.3,5107.2 131.7,-430 206.6,-845.7 228.9,-1245 20.8,374.3 -6.5,764.6 -85.6,1169.5 280.7,-1434.2 -88.7,-2687.7 -947.3,-3677.8 -0.3,-0.3 -0.7,-0.7 -0.9,-1.1 -0.7,-0.8 -1.7,-1.8 -2.4,-2.6 -0.5,-0.7 -1,-1.2 -1.6,-1.9 -0.5,-0.6 -1,-1.1 -1.5,-1.8 -0.9,-1 -1.7,-1.9 -2.5,-2.8 -0.3,-0.4 -0.5,-0.6 -0.8,-0.9 -1264.7,-1449.1 -3579.9,-2331.5 -6438.8,-2388.7 -0.3,0 0.1,0 -0.3,0 -2.5,-0.1 -4.6,-0.1 -7.2,-0.2 -0.3,0 -0.3,0 -0.6,0 -2.6,0 -4.7,-0.1 -7.3,-0.1 -0.3,0 -0.2,0 -0.5,0 -2.6,-0.1 -4.8,-0.1 -7.4,-0.2 -0.3,0 0,0 -0.3,0 -2.6,0 -4.6,-0.1 -7.2,-0.1 -0.4,0 -0.4,0 -0.7,0 -2.3,-0.1 -4.6,-0.1 -6.9,-0.1 -0.3,0 -0.7,0 -1,-0.1 -2.3,0 -4.3,0 -6.6,-0.1 -0.3,0 -0.9,0 -1.2,0 -2.3,0 -4.4,-0.1 -6.7,-0.1 -0.3,0 -0.8,0 -1.1,0 -2.3,-0.1 -4.2,-0.1 -6.5,-0.1 -0.3,0 -1,0 -1.3,0 -2.3,-0.1 -4.1,-0.1 -6.4,-0.1 -0.3,0 -1.1,-0.1 -1.5,-0.1 -2.2,0 -3.8,0 -6.1,-0.1 -0.7,0 -1.1,0 -1.7,0 h -0.1 c -2.3,0 -3.7,0 -5.9,-0.1 -0.7,0 -1.2,0 -1.9,0 -0.3,0 0.3,0 -0.1,0 -1.6,0 -3.9,0 -5.5,-0.1 -0.7,0 -1.6,0 -2.2,0 -0.3,0 0,0 -0.3,0 -1.6,0 -3.7,-0.1 -5.3,-0.1 -0.7,0 -1.6,0 -2.2,0 -0.4,0 0,0 -0.3,0 -1.6,0 -3.6,-0.1 -5.2,-0.1 -0.7,0 -1.7,0 -2.3,0 -0.4,0 -0.3,0 -0.7,0 -1.6,0 -3.3,-0.1 -4.9,-0.1 -0.7,0 -1.6,0 -2.2,0 -0.4,0 -0.4,0 -0.7,0 -1.7,0 -3.3,0 -4.9,-0.1 -0.6,0 -1.6,0 -2.2,0 -0.3,0 -0.7,0 -1,0 -1.6,0 -3,0 -4.6,-0.1 -0.7,0 -1.6,0 -2.3,0 -0.3,0 -0.5,0 -0.9,0 -1.6,0 -2.9,0 -4.5,0 -0.7,0 -1.7,-0.1 -2.4,-0.1 -0.6,0 -0.5,0 -1.2,0 -1.3,0 -3.1,0 -4.4,0 -0.7,0 -1.5,0 -2.2,0 -0.6,-0.1 -0.6,-0.1 -1.2,-0.1 -1.3,0 -3,0 -4.3,0 -0.7,0 -1.6,0 -2.3,0 -0.6,0 -0.8,0 -1.4,0 -1.3,0 -2.5,-0.1 -3.8,-0.1 -0.6,0 -2.1,0 -2.7,0 -0.7,0 -0.8,0 -1.5,0 -1,0 -2.4,0 -3.4,0 -1,0 -1.9,-0.1 -2.9,-0.1 -0.6,0 -1.2,0 -1.8,0 -1.4,0 -2.3,0 -3.6,0 -0.7,0 -1.7,0 -2.4,0 -0.6,0 -1.1,0 -1.8,0 -1.3,0 -2.4,-0.1 -3.7,-0.1 -0.7,0 -1.6,0 -2.3,0 -0.6,0 -1.4,0 -2,0 -1.3,0 -1.9,0 -3.2,0 -0.6,0 -2,0 -2.7,0 -1,0 -1.2,0 -2.2,-0.1 -0.6,0 -1.9,0 -2.5,0 -1.3,0 -1.8,0 -3.1,0 -1,0 -1.5,0 -2.5,0 -1,0 -1.7,0 -2.7,0 -1,0 -1.6,0 -2.6,0 -1,0 -1.5,0 -2.4,0 -1,-0.1 -2.3,-0.1 -3.3,-0.1 -0.9,0 -1.1,0 -2.1,0 -1,0 -1.7,0 -2.7,0 -0.9,0 -1.8,0 -2.7,0 -1,0 -1.5,0 -2.5,0 -1,0 -1.7,0 -2.7,0 -1,0 -1.6,0 -2.5,0 -1,0 -1.6,0 -2.6,-0.1 -1,0 -2.1,0 -3,0 -1,0 -1.5,0 -2.5,0 -1,0 -1.4,0 -2.4,0 -0.9,0 -1.7,0 -2.7,0 -1,0 -1.6,0 -2.5,0 -1,0 -1.6,0 -2.6,0 -1,0 -1.9,0 -2.9,0 -1,0 -2,0 -2.9,0 -0.7,0 -1.4,0 -2,0 -1,0 -2.4,0 -3.4,0 -0.9,0 -1.4,0 -2.3,0 -0.7,0 -1.5,-0.1 -2.2,-0.1 -1.3,0 -2.4,0 -3.7,0 -0.4,0 -0.4,0 -0.7,0 -1.3,0 -2.2,0 -3.5,0 -1,0 -1.8,0 -2.8,0 -1.6,0 -3.4,0 -5.1,0 -1.3,0 -2.1,0 -3.4,0 -0.4,0 -1.2,0 -1.6,0 -0.9,0 -1.8,0 -2.8,0 -0.9,0 -2.1,0 -3.1,0 -1.7,0 -3.1,0 -4.7,0 v 0 m 7693.3,6082.3 c 0,0.2 -0.1,0.3 -0.1,0.5 l 0.1,-0.5"
           style="fill:#b2b2d4;fill-opacity:1;fill-rule:nonzero;stroke:none"
           id="path176" />
        <path
           d="m 18672.6,20756.8 c 372.1,277.5 1112.6,294.5 1288.8,294.5 24.7,0 38.3,-0.3 38.3,-0.3 0,0 13.6,0.3 38.2,0.3 176.1,0 914.7,-17 1287.4,-293.4 -428.1,108.2 -873.5,164.3 -1323.3,164.3 -451.3,0 -899,-56.5 -1329.4,-165.4"
           style="fill:#af6c3e;fill-opacity:1;fill-rule:nonzero;stroke:none"
           id="path178" />
        <path
           d="m 20002,15883.9 c -1730.1,0 -2505.7,1958.8 -2668.8,2435.4 -22.9,66.8 -61.7,126.4 -111.3,176.8 -582.3,592 -202.8,1302.2 -202.8,1302.2 0,0 274.1,-646 1066.3,-646 31.7,0 64.4,1 97.8,3.2 334.2,21.6 575.7,105.4 749.9,209.3 66.7,39.8 72.3,135.8 9.9,181.9 -355.9,263.3 -567,630 -464.8,953.1 32.9,104 102.4,188.5 194.4,257 430.4,108.9 878.1,165.4 1329.4,165.4 449.8,0 895.2,-56.1 1323.3,-164.3 92.7,-68.7 162.7,-153.5 195.8,-258.1 102,-322.5 -108.1,-688.4 -462.8,-951.6 -62.2,-46.1 -56.6,-141.8 9.8,-181.7 174.4,-104.7 416.8,-189.3 752.7,-211 33.5,-2.2 66.1,-3.2 97.9,-3.2 792,0 1066.3,646 1066.3,646 0,0 379.5,-710.2 -202.9,-1302.2 -49.5,-50.4 -88.3,-110 -111.2,-176.8 -163.1,-476.6 -938.8,-2435.4 -2668.9,-2435.4 m -260.4,183.7 c 82.8,-12.9 168.8,-19.6 258.1,-19.6 0.8,0 1.6,0 2.4,0 0.2,0 0.5,0 0.7,0 0.6,0 1.2,0 1.7,0 0.4,0 0.6,0 0.9,0 0.5,0 1,0 1.5,0 0.4,0 0.7,0 1,0 0.5,0 1,0 1.4,0 0.3,0 0.8,0 1.1,0 0.5,0 0.9,0 1.4,0 0.3,0 0.6,0 1,0 0.5,0 1,0 1.6,0 0.2,0 0.6,0 0.8,0 0.8,0 1.6,0.1 2.3,0.1 0.3,0 0.6,0 0.8,0 0.5,0 1.1,0 1.6,0 0.4,0 0.7,0 1.2,0 0.4,0 0.8,0 1.2,0 0.3,0 0.9,0 1.2,0 0.4,0 0.7,0 1.1,0.1 0.5,0 0.9,0 1.3,0 0.4,0 0.8,0 1.2,0 0.3,0 0.9,0 1.2,0 0.4,0 0.7,0 1.1,0 0.4,0 0.9,0 1.3,0 0.3,0.1 0.6,0.1 0.9,0.1 0.8,0 1.6,0 2.4,0 0.4,0 0.8,0 1.3,0 0.4,0 0.9,0.1 1.3,0.1 0.3,0 0.7,0 1,0 0.4,0 1,0 1.5,0 0.2,0 0.5,0 0.8,0 0.5,0 1,0.1 1.5,0.1 0.3,0 0.6,0 0.9,0 0.5,0 0.9,0 1.4,0 0.3,0 0.6,0 0.9,0 0.4,0.1 1.1,0.1 1.5,0.1 0.2,0 0.4,0 0.6,0 2,0.1 4,0.1 6,0.2 0,0 0.1,0 0.2,0 0.6,0 1.3,0 1.9,0 0.1,0 0.2,0 0.3,0.1 0.6,0 1.3,0 1.9,0 0.1,0 0.3,0 0.4,0 0.6,0 1.3,0.1 1.9,0.1 0.1,0 0.2,0 0.3,0 0.6,0 1.4,0 2,0.1 h 0.1 c 1704.2,60.6 2177.3,2608.2 2177.3,2608.2 0,0 -307.3,-134.7 -723.6,-134.7 -461.3,0 -1056.6,165.5 -1515.7,863.2 -459.2,-697.7 -1054.4,-863.2 -1515.8,-863.2 -416.2,0 -723.5,134.7 -723.5,134.7 0,0 154.9,-835.5 607.8,-1560.8 v 0 0 c 306.6,-491.5 749.7,-932.4 1373.4,-1028.9"
           style="fill:#b2b2d4;fill-opacity:1;fill-rule:nonzero;stroke:none"
           id="path180" />
        <path
           d="m 12546.7,21494.9 c 0.3,0.6 0.4,1.1 0.6,1.7 -0.1,-0.5 -0.4,-1.2 -0.6,-1.7 m 1.8,4.9 c 0.3,0.7 0.5,1.5 0.8,2.2 -0.3,-0.8 -0.5,-1.5 -0.8,-2.2 m 2.3,6.3 c 0.4,1.1 0.8,2.3 1.3,3.5 -0.5,-1.3 -0.9,-2.3 -1.3,-3.5 m 2,5.4 c 0.4,1.3 0.8,2.5 1.3,3.7 -0.5,-1.2 -0.9,-2.4 -1.3,-3.7 m 1.9,5.5 c 0.7,1.7 1.3,3.4 1.9,5.1 -0.6,-1.7 -1.2,-3.4 -1.9,-5.1 m 2.3,6.3 c 0.6,1.4 1.1,2.8 1.6,4.3 -0.5,-1.5 -1,-2.8 -1.6,-4.3 m 2.2,5.8 c 0.6,1.8 1.3,3.6 2,5.4 -0.7,-1.8 -1.4,-3.6 -2,-5.4 m 14831.6,130.5 c -0.3,0.8 -0.7,1.8 -1,2.5 0.3,-0.8 0.7,-1.6 1,-2.5 m -1.7,4.3 c -24.2,61.8 -49.4,123.5 -75.8,185.8 -24.6,57.5 -45.5,116.2 -63.2,176 17.7,-59.8 38.6,-118.5 63.2,-176 26.4,-62.2 51.7,-124.1 75.8,-185.8 M 12812,22309.1 c 34.6,173.6 90.6,417.9 177,709.8 v 0 c -86.4,-291.9 -142.4,-536.2 -177,-709.8"
           style="fill:#b9e4ff;fill-opacity:1;fill-rule:nonzero;stroke:none"
           id="path182" />
        <path
           d="m 12989,23018.9 v 0 c 119,401.4 295.4,892.4 553.2,1412.1 v 0 c -257.8,-519.7 -434.2,-1010.7 -553.2,-1412.1"
           style="fill:#9999c7;fill-opacity:1;fill-rule:nonzero;stroke:none"
           id="path184" />
        <path
           d="m 13853.2,25000.6 v 0 c 260.3,433.9 580.3,872.5 972.6,1282.2 l -0.1,-0.1 c -392.3,-409.7 -712.2,-848.2 -972.5,-1282.1"
           style="fill:#ffc3d9;fill-opacity:1;fill-rule:nonzero;stroke:none"
           id="path186" />
        <path
           d="m 13727.6,24783.5 v 0 c 40.3,72.2 82.1,144.5 125.6,217.1 v 0 c -43.5,-72.6 -85.3,-144.9 -125.6,-217.1"
           style="fill:#e0b6d3;fill-opacity:1;fill-rule:nonzero;stroke:none"
           id="path188" />
        <path
           d="m 15816.2,27128.7 c 195.1,134.8 402.5,261.8 622.6,378.9 v 0 c -220.1,-117.1 -427.4,-244 -622.4,-378.8 -0.1,0 -0.2,0 -0.2,-0.1"
           style="fill:#ffc3d9;fill-opacity:1;fill-rule:nonzero;stroke:none"
           id="path190" />
        <path
           d="m 16438.8,27507.6 v 0 c 60.6,32.3 122.2,63.8 184.8,94.5 v 0 c -62.6,-30.7 -124.2,-62.2 -184.8,-94.5"
           style="fill:#e0b6d3;fill-opacity:1;fill-rule:nonzero;stroke:none"
           id="path192" />
        <path
           d="m 22230.9,28037.4 c -655.9,183.8 -1395.9,289.3 -2231.2,289.3 -835,0 -1575.5,-105.6 -2231.2,-289.3 v 0 c 655.9,183.8 1395.8,289.3 2231.2,289.3 835.3,0 1575.3,-105.5 2231.2,-289.3 v 0"
           style="fill:#b9e4ff;fill-opacity:1;fill-rule:nonzero;stroke:none"
           id="path194" />
        <path
           d="m 16867.9,27715.8 v 0 c 280.8,123.6 580.9,232 900.6,321.6 v 0 c -320,-89.7 -619.6,-197.9 -900.6,-321.6"
           style="fill:#9999c7;fill-opacity:1;fill-rule:nonzero;stroke:none"
           id="path196" />
        <path
           d="m 13542.2,24431 v 0 c 57.6,116.2 119.4,234.2 185.4,352.5 v 0 c -66,-118.3 -127.8,-236.3 -185.4,-352.5 m 1283.5,1851.7 0.1,0.1 c 289.1,302 617.5,588.3 990.4,845.9 0,0.1 0.1,0.1 0.2,0.1 -372.9,-257.6 -701.6,-544.2 -990.7,-846.1 m 1797.9,1319.4 v 0 c 79.9,39.3 161.1,77.1 244.3,113.7 v 0 c -83.2,-36.6 -164.4,-74.4 -244.3,-113.7"
           style="fill:#9999c7;fill-opacity:1;fill-rule:nonzero;stroke:none"
           id="path198" />
        <path
           d="m 23131.5,27715.8 c -280.8,123.6 -580.9,232 -900.6,321.6 v 0 c 319.7,-89.6 619.8,-198 900.6,-321.6 v 0"
           style="fill:#9999c7;fill-opacity:1;fill-rule:nonzero;stroke:none"
           id="path200" />
        <path
           d="m 24183.2,27128.7 c -0.1,0 0,0 -0.1,0 -195.1,134.8 -402.4,261.8 -622.6,378.9 v 0 c 220.2,-117.1 427.6,-244.1 622.7,-378.9"
           style="fill:#ffc3d9;fill-opacity:1;fill-rule:nonzero;stroke:none"
           id="path202" />
        <path
           d="m 23560.5,27507.6 c -60.6,32.3 -122.2,63.8 -184.7,94.5 v 0 c 62.5,-30.7 124.1,-62.2 184.7,-94.5 v 0"
           style="fill:#e0b6d3;fill-opacity:1;fill-rule:nonzero;stroke:none"
           id="path204" />
        <path
           d="m 24799.8,26643.6 c -190.7,170 -395.8,332.6 -616.7,485.1 0.1,0 0,0 0.1,0 220.8,-152.6 425.9,-315.1 616.6,-485.1 m -1424,958.5 c -80,39.3 -161.2,77.1 -244.3,113.7 v 0 c 83.1,-36.6 164.3,-74.4 244.3,-113.7 v 0"
           style="fill:#9999c7;fill-opacity:1;fill-rule:nonzero;stroke:none"
           id="path206" />
        <path
           d="m 27487.9,21394.5 c -15.9,46.5 -32.5,93.2 -49.7,140 0,0 -9.8,0.8 -28,0.8 -30.5,0 -84.8,-2.4 -157,-15.2 -19,63.1 -34.4,127.3 -46.4,192.3 -189.3,1038 -1412.8,6119.1 -7207.1,6119.1 -262.8,0 -515.8,-10.8 -760,-30.8 6.1,-11.7 10.8,-23.7 13.1,-36.4 30.9,-176.6 -335.7,-388.3 -818.9,-472.8 -135.1,-23.6 -265,-34.8 -382.7,-34.8 -303.2,0 -525.7,74.3 -548,201.4 -0.2,1.1 0.1,2.1 -0.1,3.1 -3670.5,-1188 -4552.3,-4881 -4710.5,-5748.8 -12,-65 -27.4,-129.2 -46.5,-192.3 -72.1,12.8 -126.4,15.2 -157,15.2 -18.2,0 -27.9,-0.8 -27.9,-0.8 38.4,104.4 80.1,209.3 124.9,315.2 49,114.9 83.8,235.1 106.5,357.9 5.5,30.5 11.9,64.3 19.4,101.5 34.6,173.6 90.6,417.9 177,709.8 119,401.4 295.4,892.4 553.2,1412.1 57.6,116.2 119.4,234.2 185.4,352.5 40.3,72.2 82.1,144.5 125.6,217.1 260.3,433.9 580.2,872.4 972.5,1282.1 289.1,301.9 617.8,588.5 990.7,846.1 195,134.8 402.3,261.7 622.4,378.8 60.6,32.3 122.2,63.8 184.8,94.5 79.9,39.3 161.1,77.1 244.3,113.7 281,123.7 580.6,231.9 900.6,321.6 655.7,183.7 1396.2,289.3 2231.2,289.3 835.3,0 1575.3,-105.5 2231.2,-289.3 319.7,-89.6 619.8,-198 900.6,-321.6 83.1,-36.6 164.3,-74.4 244.3,-113.7 62.5,-30.7 124.1,-62.2 184.7,-94.5 220.2,-117.1 427.5,-244.1 622.6,-378.9 220.9,-152.5 426,-315.1 616.7,-485.1 1770.8,-1578.5 2289.2,-3790.1 2407,-4436 11.3,-61.4 25.7,-122.1 43.3,-181.9 17.7,-59.8 38.6,-118.5 63.2,-176 26.4,-62.3 51.6,-124 75.8,-185.8 0.2,-0.6 0.5,-1.2 0.7,-1.8 0.3,-0.7 0.7,-1.7 1,-2.5 34.7,-88.9 67.1,-177.3 97.1,-265.1"
           style="fill:#fdd7a9;fill-opacity:1;fill-rule:nonzero;stroke:none"
           id="path208" />
        <path
           d="m 12220.9,19458.6 c -35.8,635 66.4,1316.6 325.8,2036.3 0.2,0.5 0.5,1.2 0.6,1.7 0.4,1 0.8,2.1 1.2,3.2 0.3,0.7 0.5,1.4 0.8,2.2 0.5,1.4 1,2.7 1.5,4.1 0.4,1.2 0.8,2.2 1.3,3.5 0.2,0.6 0.4,1.3 0.7,1.9 0.4,1.3 0.8,2.5 1.3,3.7 0.2,0.6 0.4,1.2 0.6,1.8 0.7,1.7 1.3,3.4 1.9,5.1 0.2,0.5 0.3,0.8 0.4,1.2 0.6,1.5 1.1,2.8 1.6,4.3 0.2,0.5 0.4,1 0.6,1.5 0.6,1.8 1.3,3.6 2,5.4 v 0 0 c 0,0 9.7,0.8 27.9,0.8 30.6,0 84.9,-2.4 157,-15.2 -17,-56.2 -36.9,-111.5 -60,-165.6 -44.8,-106 -86.5,-210.9 -124.9,-315.3 -41.2,-111.9 -78.5,-222.8 -112.2,-332.8 5.9,235.4 30.8,476.9 75.7,724 -242.6,-695.9 -338.5,-1355.6 -303.8,-1971.5 0,-0.1 0,-0.2 0,-0.3 M 27693.3,20632 c -0.1,0.7 -0.2,1 -0.3,1.7 0.1,-0.5 0.2,-1.1 0.3,-1.7 m -0.4,2.2 c -51.3,261.3 -124.1,528.5 -219.5,801.3 45.5,-248.4 70.7,-491.4 76.6,-728 -64.9,212.3 -143.7,428 -236.7,647 -23.1,54.1 -43.1,109.4 -60.1,165.6 72.2,12.8 126.5,15.2 157,15.2 18.2,0 28,-0.8 28,-0.8 17.2,-46.8 33.8,-93.5 49.7,-140 88.4,-258.6 156.4,-512.1 205,-760.3"
           style="fill:#ffffff;fill-opacity:1;fill-rule:nonzero;stroke:none"
           id="path210" />
        <path
           d="m 12220.9,19458.9 c -34.7,615.9 61.2,1275.6 303.8,1971.5 -44.9,-247.1 -69.8,-488.6 -75.7,-724 -131.6,-431 -206.1,-847.4 -228.1,-1247.5 m 15558,3.6 c -22.3,399.3 -97.2,815 -228.9,1245 -5.9,236.6 -31.1,479.6 -76.6,728 95.4,-272.8 168.2,-540 219.5,-801.3 0,-0.2 0.1,-0.3 0.1,-0.5 0.1,-0.7 0.2,-1 0.3,-1.7 79.1,-404.9 106.4,-795.2 85.6,-1169.5"
           style="fill:#e0e0ee;fill-opacity:1;fill-rule:nonzero;stroke:none"
           id="path212" />
        <path
           d="m 17546.5,21243.9 -88.2,86.7 c -31.9,32 -66.1,62.8 -99.7,94.2 -68.2,61.8 -138.1,122.7 -210.7,180 -145.5,114.2 -298,220.5 -463,305.2 -82.9,41 -167.5,80.5 -255.5,111.9 -88.2,29.6 -178.4,59.3 -271.7,77.5 -186.2,41.1 -382.1,52.7 -585.4,46.1 l -3.1,-0.1 c -55.2,-1.8 -101.4,41.5 -103.2,96.8 -1.4,42.2 23.9,79.2 60.3,95 203.2,87.7 427.7,140.6 658.1,151.9 230.5,11.1 466.1,-18 690.8,-83.5 225.1,-64.7 440.6,-162.6 635.9,-289.5 97.6,-63.5 190.9,-133.4 278.3,-210.8 44.3,-38.1 86,-79.2 127.3,-121.6 20.6,-21.2 40.4,-43.4 60.5,-66.3 10.1,-11.2 19.8,-23.5 29.7,-35.5 l 33.1,-42.3 c 107.6,-137 83.8,-335.2 -53.2,-442.8 -126.2,-99.1 -304.5,-86.7 -415.9,23 l -24.4,24.1"
           style="fill:#000072;fill-opacity:1;fill-rule:nonzero;stroke:none"
           id="path214" />
        <path
           d="m 21959.3,21639.6 33.2,42.3 c 9.9,12 19.6,24.3 29.6,35.5 20.2,22.9 40,45.1 60.5,66.3 41.4,42.4 83,83.5 127.3,121.6 87.4,77.4 180.7,147.3 278.4,210.8 195.2,126.9 410.8,224.8 635.9,289.5 224.7,65.5 460.2,94.6 690.7,83.5 230.5,-11.3 454.9,-64.2 658.1,-151.9 50.7,-21.9 74.1,-80.7 52.2,-131.5 -16.7,-38.7 -55,-61.5 -94.8,-60.3 l -3.3,0.1 c -203.4,6.6 -399.2,-5 -585.5,-46.1 -93.3,-18.2 -183.4,-47.9 -271.6,-77.5 -88.1,-31.4 -172.6,-70.9 -255.5,-111.9 -165.1,-84.7 -317.6,-191 -463,-305.2 -72.6,-57.3 -142.5,-118.2 -210.8,-180 -33.6,-31.4 -67.7,-62.2 -99.6,-94.2 l -88.3,-86.7 -24.4,-24 c -124.2,-122.1 -323.9,-120.4 -446,3.8 -112.5,114.5 -119.8,293 -23.1,415.9"
           style="fill:#000072;fill-opacity:1;fill-rule:nonzero;stroke:none"
           id="path216" />
        <path
           d="m 19999.7,19386 c 822.7,0 1617.2,689 1442.1,1242.5 -175.1,553.5 -1442.1,522.5 -1442.1,522.5 0,0 -1267.1,31 -1442.1,-522.5 C 18382.5,20075 19177,19386 19999.7,19386"
           style="fill:#000072;fill-opacity:1;fill-rule:nonzero;stroke:none"
           id="path218" />
        <path
           d="m 20183.2,19415.9 c -12.7,-31.4 -21.3,-49.9 -32.4,-73.3 -10.5,-22.2 -21.4,-43.7 -32.6,-65 -22.4,-42.5 -46.3,-83.7 -72,-123.7 -51.6,-79.8 -107.8,-156.6 -170.6,-228.5 -125.7,-143.1 -272.4,-271.8 -440.5,-369.3 -333.8,-202.3 -739.7,-268.7 -1109.6,-223.8 -185.5,22.8 -365.1,63 -542.2,131.5 -175.5,68.7 -344.8,168.5 -485.5,302.7 -141.3,132.3 -252.7,301.5 -301.3,485.7 -49,182.7 -50.9,375.8 17.9,546.8 1.5,3.7 5.7,5.5 9.4,4 2.1,-0.9 3.6,-2.6 4.2,-4.7 l 0.2,-0.7 c 48.6,-170.9 109.9,-322.6 186.4,-457.8 77.6,-134 168.4,-252.7 284.9,-345.5 115.6,-93.1 252.6,-160.3 399.8,-204.2 145.7,-45.3 304.2,-72.5 459.3,-81.7 155.1,-8.3 307.7,2.4 453.4,35.2 72.8,16.8 143.8,38.9 212,67.6 69,26.8 135.1,60.4 198.1,99.4 126.4,77.3 241.6,175.3 342.3,288.5 50.3,56.6 97.9,116.3 140.7,179.2 21,31.6 42.3,63.3 61.3,95.6 9.7,16 19,32.3 27.6,48.3 8.2,14.8 18.1,34.8 22.2,42.9 l 6.4,12.8 c 48.6,97.9 167.4,137.7 265.2,89.1 92.9,-46.2 133.3,-156.4 95.4,-251.1"
           style="fill:#000072;fill-opacity:1;fill-rule:nonzero;stroke:none"
           id="path220" />
        <path
           d="m 20183.2,19565.1 c 4,-8.1 13.9,-28.1 22.1,-42.9 8.7,-16 18,-32.3 27.6,-48.3 19.1,-32.3 40.4,-64 61.4,-95.6 42.8,-62.9 90.3,-122.6 140.7,-179.2 100.6,-113.2 215.8,-211.2 342.2,-288.5 63,-39 129.2,-72.6 198.1,-99.4 68.2,-28.7 139.3,-50.8 212,-67.6 145.8,-32.8 298.4,-43.5 453.4,-35.2 155.1,9.2 313.7,36.4 459.4,81.7 147.1,43.9 284.1,111.1 399.7,204.2 116.5,92.8 207.4,211.5 285,345.5 76.4,135.2 137.7,286.9 186.3,457.8 l 0.2,0.7 c 1.1,3.8 5.1,6 8.9,4.9 2.2,-0.6 3.9,-2.2 4.8,-4.2 68.7,-171 66.8,-364.1 17.9,-546.8 -48.6,-184.2 -160,-353.4 -301.3,-485.7 -140.8,-134.2 -310.1,-234 -485.5,-302.7 -177.2,-68.5 -356.8,-108.7 -542.2,-131.5 -370,-44.9 -775.8,21.5 -1109.7,223.8 -168.1,97.5 -314.8,226.2 -440.5,369.3 -62.7,71.9 -119,148.7 -170.6,228.5 -25.7,40 -49.6,81.2 -71.9,123.7 -11.3,21.3 -22.2,42.8 -32.7,65 -11.1,23.4 -19.7,41.9 -32.3,73.3 -40.9,101.3 8.1,216.6 109.5,257.4 96.2,38.9 205.1,-3.5 250.8,-94.7 l 6.7,-13.5"
           style="fill:#000072;fill-opacity:1;fill-rule:nonzero;stroke:none"
           id="path222" />
        <path
           d="m 22239,18657.3 c 0,0 -484.5,-2609.3 -2239.3,-2609.3 -761.7,0 -1284.1,491.8 -1631.5,1048.5 -452.9,725.3 -607.8,1560.8 -607.8,1560.8 0,0 1365.8,-598.8 2239.3,728.5 873.4,-1327.3 2239.3,-728.5 2239.3,-728.5"
           style="fill:#000072;fill-opacity:1;fill-rule:nonzero;stroke:none"
           id="path224" />
        <path
           d="m 19999.7,17991 c -1320,0 -1631.5,-894.5 -1631.5,-894.5 347.4,-556.7 869.8,-1048.5 1631.5,-1048.5 761.7,0 1284.1,491.8 1631.5,1048.5 0,0 -311.6,894.5 -1631.5,894.5"
           style="fill:#ff4a94;fill-opacity:1;fill-rule:nonzero;stroke:none"
           id="path226" />
        <path
           d="m 21631.2,17096.5 c 0,0 -0.2,0.6 -0.6,1.6 0.4,-1.1 0.6,-1.6 0.6,-1.6 v 0 m -3263,0 v 0 c 0,0 0.2,0.5 0.6,1.6 -0.4,-1 -0.6,-1.6 -0.6,-1.6"
           style="fill:#000072;fill-opacity:1;fill-rule:nonzero;stroke:none"
           id="path228" />
        <path
           d="m 19999.7,16048 c -89.3,0 -175.3,6.7 -258.1,19.6 -623.7,96.5 -1066.8,537.4 -1373.4,1028.9 0,0 0.2,0.6 0.6,1.6 6.4,17.4 66,171.6 223.2,347.1 361.8,-358 823.7,-609.8 1407.7,-609.8 583.9,0 1045.8,251.8 1407.7,609.8 157.1,-175.5 216.8,-329.7 223.2,-347.1 0.4,-1 0.6,-1.6 0.6,-1.6 -306.7,-491.5 -749.8,-932.4 -1373.5,-1028.9 -82.8,-12.9 -168.8,-19.6 -258,-19.6"
           style="fill:#b2348a;fill-opacity:1;fill-rule:nonzero;stroke:none"
           id="path230" />
        <path
           d="m 17999.6,18406.3 c 179.9,-648.2 739.7,-2184.9 2000.1,-2184.9 1260.2,0 1820,1536.6 2000.1,2184.9 -457,-99.4 -1331,-145.8 -2000.1,685.3 -669.1,-831.1 -1543.1,-784.6 -2000.1,-685.3 z m 2000.1,-2531.6 c -1877.2,0 -2389.1,2638.8 -2410,2751.1 -11.7,63.1 12.4,127.6 62.7,167.5 50.3,39.9 118.5,48.8 177.3,22.9 50.1,-21.6 1245.2,-520.1 2025.2,665.1 32.1,48.7 86.5,78 144.8,78 58.3,0 112.7,-29.3 144.8,-78 779.9,-1185.2 1975.1,-686.7 2025.6,-664.9 58.7,25.4 126.9,16.4 177,-23.5 50,-40 74.2,-104.1 62.5,-167.1 -20.9,-112.3 -532.8,-2751.1 -2409.9,-2751.1"
           style="fill:#000072;fill-opacity:1;fill-rule:nonzero;stroke:none"
           id="path232" />
        <path
           d="m 20601,20786.1 c 0,-75.2 -268.2,-136.1 -599,-136.1 -330.8,0 -598.9,60.9 -598.9,136.1 0,75.2 268.1,136.1 598.9,136.1 330.8,0 599,-60.9 599,-136.1"
           style="fill:#ffffff;fill-opacity:1;fill-rule:nonzero;stroke:none"
           id="path234" />
        <path
           d="m 18352.5,22890.3 c -136.9,-192.5 -513,-159.9 -840.1,72.7 -327.1,232.6 -481.4,577.1 -344.6,769.6 136.8,192.4 512.9,159.8 840.1,-72.8 327.1,-232.6 481.4,-577.1 344.6,-769.5"
           style="fill:#ffffff;fill-opacity:1;fill-rule:nonzero;stroke:none"
           id="path236" />
        <path
           d="m 21646.9,22890.3 c 136.8,-192.5 512.9,-159.9 840,72.7 327.2,232.6 481.5,577.1 344.6,769.6 -136.8,192.4 -463.4,159.8 -790.5,-72.8 -327.1,-232.6 -530.9,-577.1 -394.1,-769.5"
           style="fill:#ffffff;fill-opacity:1;fill-rule:nonzero;stroke:none"
           id="path238" />
        <path
           d="m 19999.7,28153.4 c -5659.2,0 -6854.6,-4979 -7036.7,-5977.1 -25.1,-137.5 -64.6,-270.2 -117.3,-394.4 -671.8,-1580.7 -604.2,-3055 195.4,-4263.7 1157.3,-1749.2 3758.6,-2793.5 6958.6,-2793.5 3199.9,0 5801.3,1044.3 6958.5,2793.5 799.6,1208.7 867.2,2683 195.5,4263.7 -52.7,124 -92.2,256.7 -117.3,394.4 -182.2,998.1 -1377.5,5977.1 -7036.7,5977.1 z m 0,-13775.4 c -3316.7,0 -6026.1,1102.4 -7247.7,2949 -866.9,1310.3 -944.8,2897.7 -225.4,4590.4 42.8,100.7 74.8,208.7 95.3,321.1 190.9,1045.6 1443.4,6261.6 7377.8,6261.6 5934.4,0 7186.9,-5216 7377.7,-6261.6 20.5,-112.5 52.6,-220.5 95.3,-321.1 719.5,-1692.7 641.5,-3280.1 -225.4,-4590.4 -1221.6,-1846.6 -3931,-2949 -7247.6,-2949"
           style="fill:#ffffff;fill-opacity:1;fill-rule:nonzero;stroke:none"
           id="path240" />
      </g>
    </g>
    <text
       xml:space="preserve"
       style="font-size:500px;font-family:'Work Sans';-inkscape-font-specification:'Work Sans';opacity:0.8;fill:#ffffff;fill-opacity:1;fill-rule:evenodd;stroke:#ffffff;stroke-width:75;stroke-opacity:1"
       x="1969.827"
       y="67.154083"
       id="text8145"
       transform="scale(1,-1)"><tspan
         id="tspan8143"
         style="font-weight:bold;font-size:500px;fill:#ffffff;stroke:none;stroke-width:75;stroke-opacity:1"
         x="1969.827"
         y="67.154083">X</tspan></text>
  </g>
</svg>
