<?xml version="1.0" encoding="UTF-8" standalone="no"?>
<!-- Created with Inkscape (http://www.inkscape.org/) -->

<svg
   version="1.1"
   id="svg2"
   width="5333.3335"
   height="5333.3335"
   viewBox="0 0 5333.3335 5333.3335"
   xmlns="http://www.w3.org/2000/svg"
   xmlns:svg="http://www.w3.org/2000/svg">
  <defs
     id="defs6" />
  <g
     id="g8"
     transform="matrix(1.3333333,0,0,-1.3333333,0,5333.3333)">
    <g
       id="g2216"
       transform="translate(-8.4277341e-5,-3.6035157e-5)">
      <circle
         style="opacity:0.8;fill:#e1b303;fill-opacity:1;fill-rule:evenodd;stroke:#000000;stroke-width:0"
         id="path2212"
         cx="20000.002"
         cy="-20000"
         r="15169.493"
         transform="scale(0.1,-0.1)" />
    </g>
    <g
       id="g10"
       transform="matrix(0.1,0,0,0.1,-8.4277341e-5,-3.6035157e-5)">
      <path
         d="m 20000.498,34122.6 c 6203,0 11231,-5027.9 11231,-11234.9 0,-6203 -5028,-11231 -11231,-11231 -6203,0 -11234.9199,5028 -11234.9199,11231 0,6207 5031.9199,11234.9 11234.9199,11234.9 v 0"
         style="fill:#e1b303;fill-opacity:1;fill-rule:evenodd;stroke:none"
         id="path14" />
      <path
         d="m 16079.698,6672.6996 c -551.6,123.9 -1103.1,239.9 -1654.7,367.8 -443.6,103.9 -811.3,359.7 -1087.1,711.4 -1514.8,299.7 -2821.7,739.4 -4060.7299,1718.6 -1314.94,1043.2004 -2338.12,2585.9004 -2821.73,4196.6004 -511.58,1706.6 -483.61,3733 255.8,5379.7 -307.76,359.7 -479.62,807.3 -459.63,1290.9 19.98,443.7 203.83,867.3 515.58,1183.1 107.91,1514.8 1658.66,2246.2 2937.63,2713.8 -39.97,555.5 239.81,1059.1 787.3799,1271 235.8,91.9 467.6,183.8 703.4,267.7 195.9,72 395.7,143.9 595.5,203.9 147.9,43.9 335.8,95.9 491.6,99.9 295.8,8 691.5,-95.9 1015.2,-183.9 919.3,1263 2202.3,2234.2 3677.1,2753.8 399.6,1151.1 1974.4,1338.9 3025.5,1338.9 1047.2,0 2621.9,-187.8 3025.6,-1338.9 1470.8,-519.6 2757.8,-1490.8 3673,-2753.8 323.8,88 719.4,191.9 1019.2,183.9 155.9,-4 339.7,-56 487.6,-99.9 203.8,-60 399.7,-131.9 599.5,-203.9 235.8,-83.9 467.6,-175.8 699.5,-267.7 551.5,-211.9 831.3,-715.5 787.3,-1271 1279,-467.6 2833.7,-1199 2941.6,-2713.8 307.8,-315.8 491.6,-739.4 511.6,-1183.1 24,-483.6 -151.8,-931.2 -459.6,-1290.9 743.4,-1646.7 771.4,-3673.1 255.8,-5379.7 -483.6,-1610.7 -1502.8,-3153.4 -2821.7,-4196.6004 -1235,-979.2 -2542,-1418.9 -4060.7,-1718.6 -275.8,-351.7 -639.5,-607.5 -1083.2,-711.4 -551.5,-127.9 -1107.1,-243.9 -1658.6,-367.8 -1119.1,-603.5 -2665.9,-795.3 -3916.9,-795.3 -1255,0 -2797.7,191.8 -3920.8,795.3 v 0"
         style="fill:#ba98fc;fill-opacity:1;fill-rule:evenodd;stroke:none"
         id="path16" />
      <path
         d="m 20000.498,29742.1 c 951.3,0 2538,-159.8 2825.7,-1286.9 1526.8,-507.6 2853.7,-1518.8 3773,-2849.7 331.7,95.9 819.3,231.8 1111.1,223.8 319.7,-8 1199,-355.7 1706.6,-555.6 507.6,-195.8 719.4,-687.4 603.5,-1203 1223,-435.6 2929.7,-1131.1 2969.6,-2661.8 599.6,-543.6 755.4,-1570.8 4,-2318.2 787.4,-1622.7 819.4,-3665 311.8,-5355.6 -471.6,-1562.8 -1466.8,-3065.6 -2737.8,-4072.8004 -1322.9,-1047.1 -2709.8,-1426.8 -4048.7,-1682.6 -247.8,-347.7 -579.6,-599.5 -999.2,-695.4 -563.6,-131.9 -1127.1,-247.8 -1690.7,-375.7 -1131.1,-623.5 -2721.8,-783.4 -3828.9,-783.4 -1111.1,0 -2701.8,159.9 -3832.9,783.4 -559.5,127.9 -1127.1,243.8 -1686.6,375.7 -419.7,95.9 -755.4,347.7 -999.2,695.4 -1342.9,255.8 -2725.8,635.5 -4048.7599,1682.6 -1270.97,1007.2004 -2270.17,2510.0004 -2737.79,4072.8004 -511.59,1690.6 -475.62,3732.9 311.75,5355.6 -755.39,747.4 -599.52,1774.6 0,2318.2 43.96,1530.7 1746.59,2226.2 2969.6,2661.8 -111.91,515.6 95.8999,1007.2 607.4999,1203 503.6,199.9 1382.9,547.6 1702.6,555.6 291.8,8 779.4,-127.9 1111.1,-223.8 919.3,1330.9 2246.2,2342.1 3777,2849.7 287.8,1127.1 1870.5,1286.9 2825.7,1286.9 v 0"
         style="fill:#04072d;fill-opacity:1;fill-rule:evenodd;stroke:none"
         id="path18" />
      <path
         d="m 26563.198,19610.3 c 76,323.8 195.9,2102.3 -247.8,2585.9 143.9,-59.9 287.8,-123.9 431.7,-183.8 191.8,-539.6 75.9,-1886.5 -183.9,-2402.1 v 0"
         style="fill:#6151d1;fill-opacity:1;fill-rule:evenodd;stroke:none"
         id="path20" />
      <path
         d="m 27186.698,21580.7 c 80,-35.9 159.9,-71.9 239.8,-107.9 171.9,-419.6 32,-1670.6 -183.8,-2282.1 -127.9,-32 -259.8,-68 -387.7,-100 0,0 439.6,883.3 331.7,2490 v 0"
         style="fill:#6151d1;fill-opacity:1;fill-rule:evenodd;stroke:none"
         id="path22" />
      <path
         d="m 24293.098,12843.8 c 75.9,-123.9 211.8,-383.7 287.7,-659.5 0,0 959.2,44 1594.7,-767.4 951.3,543.6 2050.4,1558.8 2617.9,2510 -495.6,959.2 -1103.1,1219 -1446.8,1287 -719.4,-1091.2 -1818.5,-1858.5 -3053.5,-2370.1 v 0"
         style="fill:#6151d1;fill-opacity:1;fill-rule:evenodd;stroke:none"
         id="path24" />
      <path
         d="m 27706.298,15857.3 c 411.7,-131.9 951.2,-427.6 1422.9,-1099.1 527.5,1630.7 383.6,3525.2 -635.5,5067.9 0,0 -255.8,88 -491.6,-8 271.7,-1179 351.7,-2561.9 -295.8,-3960.8 v 0"
         style="fill:#6151d1;fill-opacity:1;fill-rule:evenodd;stroke:none"
         id="path26" />
      <path
         d="m 27882.198,9330.5996 c -387.7,-127.9 -791.4,-227.8 -1223,-295.8 0,0 99.9,263.8 67.9,755.4 263.8,127.9 515.6,271.8004 759.4,427.7004 -44,575.5 -271.8,1019.2 -271.8,1019.2 255.8,-319.8 695.4,-999.2 667.5,-1906.5004 v 0"
         style="fill:#6151d1;fill-opacity:1;fill-rule:evenodd;stroke:none"
         id="path28" />
      <path
         d="m 29624.798,10209.9 c -415.7,-291.8004 -871.3,-539.6004 -1366.9,-739.4004 -8,427.6 -104,803.3004 -235.9,1123.1004 251.8,187.8 487.7,391.7 715.5,603.5 -259.8,543.6 -627.5,787.4 -627.5,787.4 387.7,-191.9 1219,-715.5 1514.8,-1774.6 v 0"
         style="fill:#6151d1;fill-opacity:1;fill-rule:evenodd;stroke:none"
         id="path30" />
      <path
         d="m 30907.698,11380.9 c -287.7,-335.7 -607.5,-651.4 -963.2,-931.2 -171.9,515.6 -455.6,915.3 -751.4,1211 203.8,223.8 395.7,459.7 571.5,699.5 -375.7,443.6 -747.4,723.4 -747.4,723.4 479.7,-187.9 1394.9,-663.5 1890.5,-1702.7 v 0"
         style="fill:#6151d1;fill-opacity:1;fill-rule:evenodd;stroke:none"
         id="path32" />
      <path
         d="m 31778.998,12659.9 c -175.8,-331.7 -379.7,-655.5 -611.5,-959.2 -287.8,527.6 -667.4,911.3 -1043.1,1191 135.8,215.9 259.7,435.7 371.7,655.5 -435.7,531.6 -847.4,775.4 -847.4,775.4 475.7,-135.9 1534.8,-547.6 2130.3,-1662.7 v 0"
         style="fill:#6151d1;fill-opacity:1;fill-rule:evenodd;stroke:none"
         id="path34" />
      <path
         d="m 32346.598,14026.8 c -100,-327.7 -219.9,-651.5 -363.7,-963.2 -339.8,531.6 -771.4,899.3 -1183.1,1155.1 72,183.8 139.9,367.7 195.8,555.5 -519.5,407.7 -1059.1,599.5 -1059.1,599.5 463.6,-51.9 1626.7,-287.7 2410.1,-1346.9 v 0"
         style="fill:#6151d1;fill-opacity:1;fill-rule:evenodd;stroke:none"
         id="path36" />
      <path
         d="m 32646.298,15817.4 c -16,-447.7 -75.9,-895.3 -179.8,-1338.9 -399.7,459.6 -867.3,751.3 -1299,943.2 52,235.8 87.9,475.6 111.9,711.4 -667.4,351.7 -1243,355.7 -1243,355.7 479.6,64 1618.7,111.9 2609.9,-671.4 v 0"
         style="fill:#6151d1;fill-opacity:1;fill-rule:evenodd;stroke:none"
         id="path38" />
      <path
         d="m 32494.398,17504 c 92,-395.7 143.9,-807.3 155.9,-1223 -447.6,295.8 -915.2,459.6 -1334.9,539.6 -4,227.8 -20,455.6 -48,679.4 -711.4,203.9 -1314.9,68 -1314.9,68 499.6,175.8 1494.8,399.6 2541.9,-64 v 0"
         style="fill:#6151d1;fill-opacity:1;fill-rule:evenodd;stroke:none"
         id="path40" />
      <path
         d="m 31778.998,19202.6 c 251.8,-383.6 447.7,-803.3 591.5,-1246.9 -431.6,147.8 -847.3,199.8 -1223,199.8 -55.9,207.8 -123.9,419.6 -203.8,623.5 -707.4,4 -1211,-259.8 -1211,-259.8 403.6,291.8 1123.1,687.4 2046.3,683.4 v 0"
         style="fill:#6151d1;fill-opacity:1;fill-rule:evenodd;stroke:none"
         id="path42" />
      <path
         d="m 30539.998,20481.6 c 375.7,-263.8 699.5,-567.5 971.2,-911.3 -311.7,-23.9 -603.5,-83.9 -867.3,-171.8 -115.9,207.8 -251.8,407.7 -399.6,599.5 -619.5,-123.9 -939.3,-351.7 -939.3,-351.7 287.8,295.7 695.4,623.5 1235,835.3 v 0"
         style="fill:#6151d1;fill-opacity:1;fill-rule:evenodd;stroke:none"
         id="path44" />
      <path
         d="m 29364.998,21077.1 c 279.7,-99.9 543.5,-219.8 787.3,-355.7 -131.9,-63.9 -255.8,-131.9 -371.7,-207.8 -135.9,131.9 -279.7,259.8 -435.6,383.7 -307.8,-171.9 -463.6,-435.7 -463.6,-435.7 0,0 171.8,591.6 483.6,615.5 v 0"
         style="fill:#6151d1;fill-opacity:1;fill-rule:evenodd;stroke:none"
         id="path46" />
      <path
         d="m 28385.798,24114.7 c 167.8,0 267.7,-299.8 215.8,-671.5 -48,-371.7 -223.8,-671.4 -391.7,-671.4 -167.9,0 -263.8,299.7 -215.8,671.4 47.9,371.7 223.8,671.5 391.7,671.5 z m -799.4,-1390.9 c 139.9,799.4 303.8,2070.3 303.8,2070.3 387.6,-151.8 775.3,-303.7 1163,-451.6 -267.8,-1219 -531.6,-2538 -907.3,-3745 -195.8,1243 -559.5,2126.3 -559.5,2126.3 v 0"
         style="fill:#6151d1;fill-opacity:1;fill-rule:evenodd;stroke:none"
         id="path48" />
      <path
         d="m 26874.998,24642.3 c 0,0 183.8,-279.8 291.7,-863.3 l 151.9,971.2 -443.6,-107.9"
         style="fill:#3421a2;fill-opacity:1;fill-rule:evenodd;stroke:none"
         id="path50" />
      <path
         d="m 29568.798,23167.4 -95.9,-571.5 c 0,0 2426,-335.7 2426,-1662.7 527.6,1327 -1562.7,1962.5 -2330.1,2234.2 v 0"
         style="fill:#6151d1;fill-opacity:1;fill-rule:evenodd;stroke:none"
         id="path52" />
      <path
         d="m 32266.598,20709.4 -139.9,-227.8 c 0,0 287.8,-235.8 299.8,-559.5 83.9,251.8 83.9,623.5 -159.9,787.3 v 0"
         style="fill:#6151d1;fill-opacity:1;fill-rule:evenodd;stroke:none"
         id="path54" />
      <path
         d="m 20440.198,14310.6 c 99.9,4 199.8,8 303.7,16 v 1043.1 c -103.9,-8 -203.8,-12 -303.7,-16 z m -591.6,-4 c 48,-4 100,-4 151.9,-4 48,0 99.9,0 151.9,4 v 1039.2 c -52,0 -103.9,0 -151.9,0 -51.9,0 -103.9,0 -151.9,0 z m -591.5,20 c 99.9,-8 203.9,-12 303.8,-16 v 1043.1 c -99.9,4 -203.9,8 -303.8,16 z m 743.4,1263 c -687.4,4 -1350.9,67.9 -1990.4,183.8 60,-383.7 80,-843.3 -111.9,-1494.8 591.5,-143.9 1346.9,-219.8 2102.3,-219.8 755.4,0 1510.8,75.9 2102.3,219.8 -191.8,651.5 -171.8,1111.1 -115.9,1494.8 -639.5,-115.9 -1298.9,-179.8 -1986.4,-183.8 v 0"
         style="fill:#6151d1;fill-opacity:1;fill-rule:evenodd;stroke:none"
         id="path56" />
      <path
         d="m 13433.798,19610.3 c -71.9,323.8 -191.8,2102.3 247.8,2585.9 -143.9,-59.9 -283.8,-123.9 -427.6,-183.8 -195.9,-539.6 -76,-1886.5 179.8,-2402.1 v 0"
         style="fill:#6151d1;fill-opacity:1;fill-rule:evenodd;stroke:none"
         id="path58" />
      <path
         d="m 12810.298,21580.7 c -79.9,-35.9 -159.9,-71.9 -235.8,-107.9 -171.9,-419.6 -32,-1670.6 183.9,-2282.1 127.9,-32 255.8,-68 387.6,-100 0,0 -443.6,883.3 -335.7,2490 v 0"
         style="fill:#6151d1;fill-opacity:1;fill-rule:evenodd;stroke:none"
         id="path60" />
      <path
         d="m 12118.898,9330.5996 c 383.7,-127.9 791.3,-227.8 1219,-295.8 0,0 -99.9,263.8 -68,755.4 -259.7,127.9 -511.5,271.8004 -755.3,427.7004 43.9,575.5 271.7,1019.2 271.7,1019.2 -259.8,-319.8 -699.4,-999.2 -667.4,-1906.5004 v 0"
         style="fill:#6151d1;fill-opacity:1;fill-rule:evenodd;stroke:none"
         id="path62" />
      <path
         d="m 10376.298,10209.9 c 411.6,-291.8004 871.3,-539.6004 1366.9,-739.4004 4,427.6 103.9,803.3004 231.8,1123.1004 -247.8,187.8 -487.6,391.7 -711.4,603.5 259.8,543.6 623.5,787.4 623.5,787.4 -387.7,-191.9 -1219.1,-715.5 -1510.8,-1774.6 v 0"
         style="fill:#6151d1;fill-opacity:1;fill-rule:evenodd;stroke:none"
         id="path64" />
      <path
         d="m 9089.3181,11380.9 c 287.77,-335.7 611.51,-651.4 967.1799,-931.2 167.9,515.6 451.7,915.3 751.4,1211 -203.8,223.8 -395.6,459.7 -575.5,699.5 379.7,443.6 747.4,723.4 747.4,723.4 -479.6,-187.9 -1390.8799,-663.5 -1890.4799,-1702.7 v 0"
         style="fill:#6151d1;fill-opacity:1;fill-rule:evenodd;stroke:none"
         id="path66" />
      <path
         d="m 8218.0181,12659.9 c 179.86,-331.7 383.69,-655.5 615.5,-959.2 283.78,527.6 667.47,911.3 1039.17,1191 -135.89,215.9 -259.79,435.7 -371.7,655.5 439.64,531.6 851.3099,775.4 851.3099,775.4 -475.6199,-135.9 -1534.7599,-547.6 -2134.2799,-1662.7 v 0"
         style="fill:#6151d1;fill-opacity:1;fill-rule:evenodd;stroke:none"
         id="path68" />
      <path
         d="m 7654.4781,14026.8 c 95.92,-327.7 219.82,-651.5 363.7,-963.2 335.73,531.6 771.38,899.3 1179.05,1155.1 -71.94,183.8 -135.89,367.7 -195.84,555.5 519.58,407.7 1059.1099,599.5 1059.1099,599.5 -459.5899,-51.9 -1626.6499,-287.7 -2406.0199,-1346.9 v 0"
         style="fill:#6151d1;fill-opacity:1;fill-rule:evenodd;stroke:none"
         id="path70" />
      <path
         d="m 7350.7181,15817.4 c 19.98,-447.7 79.94,-895.3 183.85,-1338.9 399.68,459.6 863.31,751.3 1298.95,943.2 -51.95,235.8 -87.92,475.6 -115.9,711.4 667.46,351.7 1243,355.7 1243,355.7 -479.62,64 -1614.7,111.9 -2609.9,-671.4 v 0"
         style="fill:#6151d1;fill-opacity:1;fill-rule:evenodd;stroke:none"
         id="path72" />
      <path
         d="m 7506.5881,17504 c -91.92,-395.7 -143.88,-807.3 -155.87,-1223 447.64,295.8 911.27,459.6 1334.92,539.6 0,227.8 15.99,455.6 43.97,679.4 711.42,203.9 1318.8899,68 1318.8899,68 -499.5499,175.8 -1494.7499,399.6 -2541.9099,-64 v 0"
         style="fill:#6151d1;fill-opacity:1;fill-rule:evenodd;stroke:none"
         id="path74" />
      <path
         d="m 8222.0181,19202.6 c -251.8,-383.6 -451.64,-803.3 -591.52,-1246.9 427.65,147.8 847.31,199.8 1223.01,199.8 51.96,207.8 119.9,419.6 199.84,623.5 711.42,4 1211.0499,-259.8 1211.0499,-259.8 -399.7099,291.8 -1123.1199,687.4 -2042.3799,683.4 v 0"
         style="fill:#6151d1;fill-opacity:1;fill-rule:evenodd;stroke:none"
         id="path76" />
      <path
         d="m 9461.0181,20481.6 c -375.7,-263.8 -699.44,-567.5 -975.21,-911.3 315.74,-23.9 603.51,-83.9 867.3,-171.8 119.9,207.8 251.79,407.7 403.67,599.5 619.5199,-123.9 935.2199,-351.7 935.2199,-351.7 -283.7,295.7 -691.4,623.5 -1230.9799,835.3 v 0"
         style="fill:#6151d1;fill-opacity:1;fill-rule:evenodd;stroke:none"
         id="path78" />
      <path
         d="m 10632.098,21077.1 c -279.8,-99.9 -539.6,-219.8 -783.3899,-355.7 131.89,-63.9 251.7899,-131.9 367.6899,-207.8 135.9,131.9 283.8,259.8 439.7,383.7 303.7,-171.9 463.6,-435.7 463.6,-435.7 0,0 -175.9,591.6 -487.6,615.5 v 0"
         style="fill:#6151d1;fill-opacity:1;fill-rule:evenodd;stroke:none"
         id="path80" />
      <path
         d="m 11611.298,24114.7 c -167.9,0 -263.8,-299.8 -215.8,-671.5 47.9,-371.7 223.8,-671.4 395.6,-671.4 167.9,0 263.8,299.7 215.9,671.4 -52,371.7 -227.9,671.5 -395.7,671.5 z m 799.3,-1390.9 c -139.8,799.4 -299.7,2070.3 -299.7,2070.3 -387.7,-151.8 -775.4,-303.7 -1167.1,-451.6 271.8,-1219 535.6,-2538 907.3,-3745 195.8,1243 559.5,2126.3 559.5,2126.3 v 0"
         style="fill:#6151d1;fill-opacity:1;fill-rule:evenodd;stroke:none"
         id="path82" />
      <path
         d="m 13122.098,24642.3 c 0,0 -183.9,-279.8 -291.8,-863.3 l -147.9,971.2 439.7,-107.9"
         style="fill:#3421a2;fill-opacity:1;fill-rule:evenodd;stroke:none"
         id="path84" />
      <path
         d="m 10428.198,23167.4 96,-571.5 c 0,0 -2422.0899,-335.7 -2422.0899,-1662.7 -531.57,1327 1558.75,1962.5 2326.0899,2234.2 v 0"
         style="fill:#6151d1;fill-opacity:1;fill-rule:evenodd;stroke:none"
         id="path86" />
      <path
         d="m 7734.4081,20709.4 139.89,-227.8 c 0,0 -291.77,-235.8 -303.76,-559.5 -79.93,251.8 -83.93,623.5 163.87,787.3 v 0"
         style="fill:#6151d1;fill-opacity:1;fill-rule:evenodd;stroke:none"
         id="path88" />
      <path
         d="m 20000.498,28739 c -879.3,0 -1762.6,-179.9 -1854.5,-535.6 56,16 115.9,32 171.9,43.9 l 783.3,-819.3 c 319.8,16 611.5,16 899.3,12 287.8,4 579.6,4 899.3,-12 24,571.5 -411.7,999.2 -743.4,1071.1 499.6,100 1526.8,12 1698.6,-295.7 -95.9,355.7 -975.2,535.6 -1854.5,535.6 v 0"
         style="fill:#6151d1;fill-opacity:1;fill-rule:evenodd;stroke:none"
         id="path90" />
      <path
         d="m 20000.498,26936.4 c -879.3,0 -1754.6,-36 -2553.9,-103.9 375.7,223.8 1195,343.7 1195,343.7 -183.8,163.9 -367.7,331.7 -551.5,495.6 -1966.5,-443.6 -3333.4,-1734.6 -4076.8,-2961.6 771.4,471.6 1798.6,919.3 3081.6,1123.1 0,0 -2226.2,-811.4 -3701.1,-2625.9 -4,-20 -7.9,-40 -11.9,-63.9 3341.3,2134.2 6618.6,2038.3 6618.6,2038.3 0,0 3277.4,95.9 6618.7,-2038.3 -4,23.9 -8,43.9 -12,63.9 -1474.8,1814.5 -3705,2625.9 -3705,2625.9 1282.9,-203.8 2310.1,-651.5 3085.5,-1123.1 -743.4,1227 -2114.3,2518 -4080.7,2961.6 -183.9,-163.9 -367.7,-331.7 -547.6,-495.6 0,0 815.4,-119.9 1195.1,-343.7 -799.4,67.9 -1678.7,103.9 -2554,103.9 v 0"
         style="fill:#6151d1;fill-opacity:1;fill-rule:evenodd;stroke:none"
         id="path92" />
      <path
         d="m 24137.198,25909.2 c -1231,463.7 -3349.3,527.6 -4136.7,527.6 -787.3,0 -2909.6,-63.9 -4140.6,-527.6 787.3,195.9 2146.2,403.7 1834.5,-331.7 35.9,8 75.9,16 111.9,24 675.4,131.9 1498.8,247.8 2194.2,227.8 691.5,20 1518.8,-95.9 2190.3,-227.8 39.9,-8 75.9,-16 115.9,-24 -315.8,735.4 1043.1,527.6 1830.5,331.7 v 0"
         style="fill:#3421a2;fill-opacity:1;fill-rule:evenodd;stroke:none"
         id="path94" />
      <path
         d="m 20000.498,17220.2 c 0,0 -551.5,-15.9 -907.3,363.7 0,0 -807.3,-755.3 -2166.2,-635.4 1271,-495.6 1962.4,-691.5 3073.5,-735.4 1111.1,43.9 1798.6,239.8 3069.5,735.4 -1354.9,-119.9 -2166.2,635.4 -2166.2,635.4 -355.7,-379.6 -903.3,-363.7 -903.3,-363.7 v 0"
         style="fill:#f7e1a4;fill-opacity:1;fill-rule:evenodd;stroke:none"
         id="path96" />
      <path
         d="m 19980.498,13511.2 c -3405.2,0 -6778.5,1646.7 -7386,4944 -375.7,-3732.9 3537.1,-5803.3 7426,-5803.3 3892.9,0 7761.7,2070.4 7382,5803.3 -607.5,-3297.3 -4020.7,-4944 -7422,-4944 v 0"
         style="fill:#6151d1;fill-opacity:1;fill-rule:evenodd;stroke:none"
         id="path98" />
      <path
         d="m 22302.698,22999.6 c 415.6,-84 695.4,-463.6 639.4,-859.3 -147.8,207.8 -407.6,371.7 -719.4,435.6 -315.7,60 -619.5,4 -835.3,-131.9 99.9,387.7 499.6,635.5 915.3,555.6 z m -4608.3,0 c -415.7,-84 -691.5,-463.6 -635.5,-859.3 143.9,207.8 403.7,371.7 719.4,435.6 315.8,60 615.5,4 831.3,-131.9 -99.9,387.7 -499.6,635.5 -915.2,555.6 z m 2306.1,-1470.8 c 503.6,75.9 611.5,-379.7 1151.1,-379.7 383.7,0 315.7,-419.7 315.7,-419.7 -767.3,215.8 -819.3,-915.2 -1111.1,-927.2 -291.7,-1734.6 1918.5,-2669.9 3353.3,-2262.2 431.7,119.9 775.4,295.7 1035.2,503.6 587.5,-68 1215,-343.7 1239,-355.7 -1295,859.3 -2557.9,823.3 -2561.9,823.3 -100,-4 -183.9,75.9 -183.9,175.9 -4,103.9 75.9,187.8 179.9,187.8 0,0 775.3,24 1754.5,-359.7 175.9,279.8 259.8,591.5 263.8,907.3 427.7,79.9 907.3,31.9 923.3,27.9 -1666.7,455.7 -2973.6,-111.9 -2977.6,-115.9 -95.9,-35.9 -199.8,4 -239.8,100 -40,91.9 4,199.8 95.9,239.8 4,0 879.3,379.7 2122.3,307.7 -67.9,239.8 -175.9,475.6 -323.7,699.5 247.8,115.9 543.5,211.8 731.4,267.7 -1686.7,-4 -2781.8,-859.3 -2785.8,-863.3 -79.9,-59.9 -191.8,-43.9 -255.8,36 -59.9,79.9 -43.9,195.8 36,255.8 4,4 707.4,551.6 1858.5,807.3 -255.8,255.8 -571.5,475.7 -935.3,643.5 603.6,-115.9 1111.2,-431.6 1111.2,-431.6 -36,679.4 11.9,1422.8 -367.8,2026.3 -2014.3,1015.2 -4428.4,979.3 -4428.4,979.3 0,0 -2414,35.9 -4432.4,-979.3 -379.7,-603.5 -327.7,-1346.9 -363.7,-2026.3 0,0 503.6,315.7 1107.1,431.6 -359.7,-167.8 -675.5,-387.7 -935.3,-643.5 1151.1,-255.7 1858.5,-803.3 1862.5,-807.3 80,-60 92,-175.9 32,-255.8 -59.9,-79.9 -175.8,-95.9 -255.8,-36 -4,4 -1099.1,859.3 -2781.7,863.3 183.8,-55.9 479.6,-151.8 727.4,-267.7 -147.9,-223.9 -255.8,-459.7 -319.8,-699.5 1239,72 2114.3,-307.7 2118.3,-307.7 96,-40 139.9,-147.9 100,-239.8 -40,-96 -147.9,-135.9 -239.9,-100 -4,4 -1314.9,571.6 -2981.5,115.9 19.9,4 495.5,52 923.2,-27.9 4,-315.8 87.9,-627.5 263.8,-907.3 979.2,383.7 1754.6,359.7 1758.6,359.7 99.9,0 179.8,-83.9 179.8,-187.8 -4,-100 -87.9,-179.9 -187.8,-175.9 -4,0 -1263,36 -2562,-823.3 28,12 651.5,287.7 1239,355.7 263.8,-207.9 603.6,-383.7 1035.2,-503.6 1438.9,-407.7 3645.1,527.6 3357.3,2262.2 -291.8,12 -347.7,1143 -1111.1,927.2 0,0 -67.9,419.7 311.7,419.7 539.6,0 647.5,455.6 1155.1,379.7 v 0"
         style="fill:#f7e1a4;fill-opacity:1;fill-rule:evenodd;stroke:none"
         id="path100" />
      <path
         d="m 24660.798,22879.7 c -48,187.8 -123.9,371.7 -231.9,543.5 -2014.3,1015.2 -4428.4,979.3 -4428.4,979.3 0,0 -2414,35.9 -4432.4,-979.3 -107.9,-171.8 -179.9,-355.7 -231.8,-543.5 1374.9,627.5 2965.6,983.2 4664.2,983.2 1694.7,0 3285.4,-355.7 4660.3,-983.2 v 0"
         style="fill:#edb76e;fill-opacity:1;fill-rule:evenodd;stroke:none"
         id="path102" />
      <path
         d="m 23465.698,15677.5 c 84,36 167.9,55.9 239.8,59.9 -91.9,-47.9 -167.8,-107.9 -215.8,-163.8 60,4 111.9,-24 131.9,-68 16,-43.9 -4,-95.9 -44,-135.9 72,-8 163.9,4 263.8,36 -51.9,-48 -127.9,-91.9 -207.8,-127.9 -223.8,-91.9 -439.7,-75.9 -483.6,36 -44,111.9 95.9,275.8 315.7,363.7 z m -711.4,263.8 c 1362.9,347.7 2609.9,947.2 3745,1750.6 -563.6,-1335 -1918.5,-2562 -3713,-3205.5 -211.9,739.5 -99.9,1215.1 -32,1454.9 v 0"
         style="fill:#6151d1;fill-opacity:1;fill-rule:evenodd;stroke:none"
         id="path104" />
      <path
         d="m 16531.298,15677.5 c -83.9,36 -167.8,55.9 -239.8,59.9 95.9,-47.9 171.9,-107.9 215.8,-163.8 -59.9,4 -111.9,-24 -127.9,-68 -19.9,-43.9 0,-95.9 44,-135.9 -71.9,-8 -167.9,4 -267.8,36 56,-48 127.9,-91.9 211.8,-127.9 219.9,-91.9 435.7,-75.9 483.7,36 43.9,111.9 -100,275.8 -319.8,363.7 z m 711.4,263.8 c -1358.9,347.7 -2605.9,947.2 -3740.9,1750.6 563.5,-1335 1918.4,-2562 3709,-3205.5 215.8,739.5 99.9,1215.1 31.9,1454.9 v 0"
         style="fill:#6151d1;fill-opacity:1;fill-rule:evenodd;stroke:none"
         id="path106" />
      <path
         d="m 22230.698,10721.5 c 363.7,0 659.5,-419.7 659.5,-935.3004 0,-515.5 -295.8,-931.2 -659.5,-931.2 -55.9,0 -111.9,12 -167.8,28 287.7,103.9 495.6,471.6 495.6,903.2 0,435.7004 -207.9,799.4004 -495.6,903.3004 55.9,20 111.9,32 167.8,32 v 0"
         style="fill:#3421a2;fill-opacity:1;fill-rule:evenodd;stroke:none"
         id="path108" />
      <path
         d="m 17770.298,10721.5 c -367.7,0 -663.4,-419.7 -663.4,-935.3004 0,-515.5 295.7,-931.2 663.4,-931.2 56,0 111.9,12 163.9,28 -283.8,103.9 -495.6,471.6 -495.6,903.2 0,435.7004 211.8,799.4004 495.6,903.3004 -52,20 -107.9,32 -163.9,32 v 0"
         style="fill:#3421a2;fill-opacity:1;fill-rule:evenodd;stroke:none"
         id="path110" />
      <path
         d="m 16499.298,12568 c -911.2,-1962.4 -1031.1,-3497.2004 -479.6,-4256.6004 571.6,-791.3 2274.2,-1183 3980.8,-1183 1702.6,0 3409.3,391.7 3980.8,1183 547.6,755.4 427.7,2290.2004 -475.6,4248.6004 -1151.1,-359.7 -2370.1,-519.6 -3485.2,-519.6 -1123.1,0 -2358.1,163.9 -3521.2,527.6 z m 4728.2,-2781.8004 c 0,731.4004 447.7,1323.0004 1003.2,1323.0004 551.6,0 1003.2,-591.6 1003.2,-1323.0004 0,-727.4 -451.6,-1318.9 -1003.2,-1318.9 -555.5,0 -1003.2,591.5 -1003.2,1318.9 z m -2458,0 c 0,-727.4 -447.6,-1318.9 -999.2,-1318.9 -555.5,0 -1003.2,591.5 -1003.2,1318.9 0,731.4004 447.7,1323.0004 1003.2,1323.0004 551.6,0 999.2,-591.6 999.2,-1323.0004 v 0"
         style="fill:#6151d1;fill-opacity:1;fill-rule:evenodd;stroke:none"
         id="path112" />
      <path
         d="m 19057.298,8099.5996 c 315.7,-28 635.5,-44 943.2,-44 307.8,0 623.5,16 943.3,44 -415.7,435.6 -643.5,1071.1 -643.5,1686.6 0,471.7004 131.9,947.3004 375.7,1339.0004 -219.9,-8 -435.7,-16 -655.5,-16 -231.8,0 -463.6,8 -699.4,20 247.8,-395.7 379.7,-871.3 379.7,-1343.0004 0,-615.5 -231.9,-1251 -643.5,-1686.6 v 0"
         style="fill:#3421a2;fill-opacity:1;fill-rule:evenodd;stroke:none"
         id="path114" />
      <path
         d="m 27882.198,9458.4996 c -391.7,-175.9 -799.4,-315.7 -1223,-423.7 431.6,68 835.3,167.9 1223,295.8 0,44 0,83.9 0,127.9 v 0"
         style="fill:#ba98fc;fill-opacity:1;fill-rule:evenodd;stroke:none"
         id="path116" />
      <path
         d="m 28249.898,9634.3996 c 4,-56 8,-108 8,-163.9 495.6,199.8 951.2,447.6 1366.9,739.4004 -24,83.9 -52,167.9 -84,247.8 -399.7,-315.7 -831.3,-591.5004 -1290.9,-823.3004 v 0"
         style="fill:#ba98fc;fill-opacity:1;fill-rule:evenodd;stroke:none"
         id="path118" />
      <path
         d="m 29844.598,10709.5 c 35.9,-83.9 71.9,-167.9 99.9,-259.8 355.7,279.8 675.5,595.5 963.2,931.2 -43.9,96 -95.9,187.9 -147.9,271.8 -275.7,-339.7 -583.5,-655.4 -915.2,-943.2 v 0"
         style="fill:#ba98fc;fill-opacity:1;fill-rule:evenodd;stroke:none"
         id="path120" />
      <path
         d="m 31003.598,11968.5 c 60,-84 112,-175.9 163.9,-267.8 231.8,303.7 435.7,627.5 611.5,959.2 -51.9,99.9 -107.9,191.9 -167.8,283.8 -175.9,-339.7 -379.7,-667.5 -607.6,-975.2 v 0"
         style="fill:#ba98fc;fill-opacity:1;fill-rule:evenodd;stroke:none"
         id="path122" />
      <path
         d="m 31794.998,13327.4 c 64,-84 127.9,-171.9 187.9,-263.8 143.8,311.7 263.7,635.5 363.7,963.2 -64,87.9 -131.9,167.9 -199.9,243.8 -95.9,-323.7 -211.8,-639.5 -351.7,-943.2 v 0"
         style="fill:#ba98fc;fill-opacity:1;fill-rule:evenodd;stroke:none"
         id="path124" />
      <path
         d="m 32254.598,14698.3 c 72,-68 143.9,-143.9 211.9,-219.8 103.9,443.6 163.8,891.2 179.8,1338.9 -75.9,59.9 -151.9,111.9 -227.8,163.8 -16,-435.6 -71.9,-867.3 -163.9,-1282.9 v 0"
         style="fill:#ba98fc;fill-opacity:1;fill-rule:evenodd;stroke:none"
         id="path126" />
      <path
         d="m 32422.498,16416.9 c 75.9,-40 151.9,-87.9 227.8,-135.9 -12,415.7 -63.9,827.3 -155.9,1223 -67.9,28 -135.9,56 -203.8,79.9 75.9,-391.6 119.9,-779.3 131.9,-1167 v 0"
         style="fill:#ba98fc;fill-opacity:1;fill-rule:evenodd;stroke:none"
         id="path128" />
      <path
         d="m 32194.698,18011.6 c 55.9,-16 115.9,-36 175.8,-55.9 -143.8,443.6 -339.7,863.3 -591.5,1246.9 175.9,-395.6 311.8,-795.3 415.7,-1191 v 0"
         style="fill:#ba98fc;fill-opacity:1;fill-rule:evenodd;stroke:none"
         id="path130" />
      <path
         d="m 20000.498,7468.0996 c -1694.6,0 -3393.2,379.7 -3960.8,1135.1 -259.8,347.7 -367.7,867.3 -311.7,1518.8004 -104,-787.4004 0,-1406.9004 291.7,-1810.6004 571.6,-791.3 2274.2,-1183 3980.8,-1183 1702.6,0 3409.3,391.7 3980.8,1183 291.8,403.7 395.7,1023.2 291.8,1810.6004 55.9,-651.5004 -56,-1171.1004 -315.8,-1518.8004 -567.5,-755.4 -2262.1,-1135.1 -3956.8,-1135.1 v 0"
         style="fill:#ba98fc;fill-opacity:1;fill-rule:evenodd;stroke:none"
         id="path132" />
      <path
         d="m 17770.298,11109.2 c 535.6,0 971.2,-555.6 999.2,-1251.0004 4,51.9 8,107.9 8,163.9004 0,699.4 -447.6,1266.9 -995.2,1266.9 -547.6,0 -987.2,-555.5 -999.2,-1247 91.9,607.5 499.6,1067.2 987.2,1067.2 v 0"
         style="fill:#ba98fc;fill-opacity:1;fill-rule:evenodd;stroke:none"
         id="path134" />
      <path
         d="m 22218.698,11289 c -551.5,0 -999.2,-567.5 -999.2,-1266.9 0,-56.0004 4,-112.0004 12,-163.9004 24,695.4004 463.7,1251.0004 999.2,1251.0004 487.6,0 891.3,-459.7 983.2,-1067.2 -8,691.5 -451.6,1247 -995.2,1247 v 0"
         style="fill:#ba98fc;fill-opacity:1;fill-rule:evenodd;stroke:none"
         id="path136" />
      <path
         d="m 16499.298,12568 c 611.5,-383.7 1890.5,-995.2 3521.2,-995.2 1602.7,0 2865.7,587.5 3489.2,975.2 0,4 -4,8 -4,12 -1151.1,-359.7 -2370.1,-519.6 -3485.2,-519.6 -1123.1,0 -2358.1,163.9 -3521.2,527.6 v 0"
         style="fill:#3421a2;fill-opacity:1;fill-rule:evenodd;stroke:none"
         id="path138" />
      <path
         d="m 12294.698,15857.3 c -415.6,-131.9 -951.2,-427.6 -1426.8,-1099.1 -527.6,1630.7 -383.7,3525.2 639.5,5067.9 0,0 255.8,88 491.6,-8 -275.8,-1179 -355.7,-2561.9 295.7,-3960.8 v 0"
         style="fill:#6151d1;fill-opacity:1;fill-rule:evenodd;stroke:none"
         id="path140" />
      <path
         d="m 28653.498,14178.7 c 0,0 -1203,-1722.6 -2889.6,-2370.1 143.9,-99.9 283.7,-227.8 411.6,-391.7 951.3,543.6 2050.4,1558.8 2617.9,2510 -47.9,91.9 -91.9,171.9 -139.9,251.8 z m 303.8,803.3 c 59.9,-71.9 115.9,-143.8 171.9,-223.8 391.6,1207.1 415.6,2558 -12,3801 395.6,-1227 311.7,-2466 -159.9,-3577.2 v 0"
         style="fill:#ba98fc;fill-opacity:1;fill-rule:evenodd;stroke:none"
         id="path142" />
      <path
         d="m 15711.998,12843.8 c -72,-123.9 -207.9,-383.7 -283.8,-659.5 0,0 -959.2,44 -1594.7,-767.4 -955.2,543.6 -2050.4,1558.8 -2617.9,2510 491.6,959.2 1103.1,1219 1442.8,1287 719.5,-1091.2 1818.6,-1858.5 3053.6,-2370.1 v 0"
         style="fill:#6151d1;fill-opacity:1;fill-rule:evenodd;stroke:none"
         id="path144" />
      <path
         d="m 11355.498,14178.7 c 0,0 1199,-1722.6 2885.7,-2370.1 -139.9,-99.9 -283.8,-227.8 -407.7,-391.7 -955.2,543.6 -2050.4,1558.8 -2617.9,2510 44,91.9 91.9,171.9 139.9,251.8 z m -307.8,803.3 c -55.9,-71.9 -115.9,-143.8 -171.8,-223.8 -387.7,1207.1 -411.7,2558 16,3801 -395.7,-1227 -311.8,-2466 155.8,-3577.2 v 0"
         style="fill:#ba98fc;fill-opacity:1;fill-rule:evenodd;stroke:none"
         id="path146" />
      <path
         d="m 12118.898,9458.4996 c 391.7,-175.9 799.3,-315.7 1219,-423.7 -427.7,68 -835.3,167.9 -1219,295.8 0,44 -4,83.9 0,127.9 v 0"
         style="fill:#ba98fc;fill-opacity:1;fill-rule:evenodd;stroke:none"
         id="path148" />
      <path
         d="m 11747.198,9634.3996 c -4,-56 -4,-108 -4,-163.9 -495.6,199.8 -955.3,447.6 -1366.9,739.4004 24,83.9 51.9,167.9 79.9,247.8 399.7,-315.7 835.3,-591.5004 1291,-823.3004 v 0"
         style="fill:#ba98fc;fill-opacity:1;fill-rule:evenodd;stroke:none"
         id="path150" />
      <path
         d="m 10152.498,10709.5 c -36,-83.9 -68,-167.9 -96,-259.8 -355.6699,279.8 -679.4099,595.5 -967.1799,931.2 47.96,96 95.92,187.9 147.88,271.8 279.77,-339.7 583.53,-655.4 915.2999,-943.2 v 0"
         style="fill:#ba98fc;fill-opacity:1;fill-rule:evenodd;stroke:none"
         id="path152" />
      <path
         d="m 8993.3981,11968.5 c -55.96,-84 -111.91,-175.9 -159.88,-267.8 -231.81,303.7 -435.64,627.5 -615.5,959.2 51.96,99.9 111.91,191.9 171.86,283.8 175.86,-339.7 379.7,-667.5 603.52,-975.2 v 0"
         style="fill:#ba98fc;fill-opacity:1;fill-rule:evenodd;stroke:none"
         id="path154" />
      <path
         d="m 8202.0281,13327.4 c -63.94,-84 -123.9,-171.9 -183.85,-263.8 -143.88,311.7 -267.78,635.5 -363.7,963.2 63.94,87.9 131.89,167.9 199.83,243.8 91.93,-323.7 211.83,-639.5 347.72,-943.2 v 0"
         style="fill:#ba98fc;fill-opacity:1;fill-rule:evenodd;stroke:none"
         id="path156" />
      <path
         d="m 7742.3981,14698.3 c -71.94,-68 -139.88,-143.9 -207.83,-219.8 -103.91,443.6 -163.87,891.2 -183.85,1338.9 75.94,59.9 151.88,111.9 227.82,163.8 15.98,-435.6 71.94,-867.3 163.86,-1282.9 v 0"
         style="fill:#ba98fc;fill-opacity:1;fill-rule:evenodd;stroke:none"
         id="path158" />
      <path
         d="m 7578.5381,16416.9 c -75.94,-40 -151.88,-87.9 -227.82,-135.9 11.99,415.7 63.95,827.3 155.87,1223 67.95,28 131.9,56 199.84,79.9 -75.93,-391.6 -119.9,-779.3 -127.89,-1167 v 0"
         style="fill:#ba98fc;fill-opacity:1;fill-rule:evenodd;stroke:none"
         id="path160" />
      <path
         d="m 7802.3581,18011.6 c -55.96,-16 -115.91,-36 -171.86,-55.9 139.88,443.6 339.72,863.3 591.52,1246.9 -175.86,-395.6 -315.75,-795.3 -419.66,-1191 v 0"
         style="fill:#ba98fc;fill-opacity:1;fill-rule:evenodd;stroke:none"
         id="path162" />
      <path
         d="m 27346.598,15213.9 c -719.4,-1091.2 -1818.5,-1858.5 -3053.5,-2370.1 75.9,-123.9 211.8,-383.7 287.7,-659.5 1622.7,899.3 2581.9,1922.5 3129.5,2905.7 -135.9,67.9 -263.8,103.9 -363.7,123.9 v 0"
         style="fill:#3421a2;fill-opacity:1;fill-rule:evenodd;stroke:none"
         id="path164" />
      <path
         d="m 28085.998,19414.5 c 195.8,-1087.2 195.8,-2314.2 -379.7,-3557.2 95.9,-31.9 199.8,-71.9 311.8,-123.9 787.3,1990.4 67.9,3681.1 67.9,3681.1 v 0"
         style="fill:#3421a2;fill-opacity:1;fill-rule:evenodd;stroke:none"
         id="path166" />
      <path
         d="m 12658.398,15213.9 c 719.5,-1091.2 1818.6,-1858.5 3053.6,-2370.1 -72,-123.9 -207.9,-383.7 -283.8,-659.5 -1622.7,899.3 -2581.9,1922.5 -3133.5,2905.7 139.9,67.9 263.8,103.9 363.7,123.9 v 0"
         style="fill:#3421a2;fill-opacity:1;fill-rule:evenodd;stroke:none"
         id="path168" />
      <path
         d="m 11922.998,19414.5 c -199.8,-1087.2 -199.8,-2314.2 379.7,-3557.2 -99.9,-31.9 -203.8,-71.9 -311.7,-123.9 -791.4,1990.4 -68,3681.1 -68,3681.1 v 0"
         style="fill:#3421a2;fill-opacity:1;fill-rule:evenodd;stroke:none"
         id="path170" />
      <path
         d="m 12594.498,18455.2 c 607.5,-3445.2 3980.8,-5171.8 7386,-5167.8 3401.3,-4 6814.5,1722.6 7422,5167.8 -607.5,-3297.3 -4020.7,-4944 -7422,-4944 -3405.2,0 -6778.5,1646.7 -7386,4944 v 0"
         style="fill:#3421a2;fill-opacity:1;fill-rule:evenodd;stroke:none"
         id="path172" />
      <path
         d="m 29520.798,22871.7 c 627.5,-135.9 2458.1,-615.5 2462.1,-1574.7 55.9,1083.1 -1718.7,1622.6 -2414.1,1870.4 l -48,-295.7"
         style="fill:#ba98fc;fill-opacity:1;fill-rule:evenodd;stroke:none"
         id="path174" />
      <path
         d="m 32218.698,20633.5 c 119.9,-111.9 291.7,-347.7 207.8,-711.4 83.9,251.8 83.9,623.5 -159.9,787.3 l -47.9,-75.9"
         style="fill:#ba98fc;fill-opacity:1;fill-rule:evenodd;stroke:none"
         id="path176" />
      <path
         d="m 10480.198,22871.7 c -627.4999,-135.9 -2458.0199,-615.5 -2462.0199,-1574.7 -59.95,1083.1 1718.62,1622.6 2410.0199,1870.4 l 52,-295.7"
         style="fill:#ba98fc;fill-opacity:1;fill-rule:evenodd;stroke:none"
         id="path178" />
      <path
         d="m 7778.3781,20633.5 c -119.91,-111.9 -291.77,-347.7 -207.84,-711.4 -79.93,251.8 -83.93,623.5 163.87,787.3 l 43.97,-75.9"
         style="fill:#ba98fc;fill-opacity:1;fill-rule:evenodd;stroke:none"
         id="path180" />
      <path
         d="m 27070.798,19146.7 c 103.9,255.8 375.7,1071.1 299.8,2354.1 -60,24 -119.9,52 -183.9,79.9 107.9,-1606.7 -331.7,-2490 -331.7,-2490 71.9,20 143.9,36 215.8,56 v 0"
         style="fill:#3421a2;fill-opacity:1;fill-rule:evenodd;stroke:none"
         id="path182" />
      <path
         d="m 26563.198,19610.3 c 92,303.8 303.8,1890.5 -8,2486 -79.9,32 -159.8,68 -239.8,99.9 443.7,-483.6 323.8,-2262.1 247.8,-2585.9 v 0"
         style="fill:#3421a2;fill-opacity:1;fill-rule:evenodd;stroke:none"
         id="path184" />
      <path
         d="m 12926.198,19146.7 c -103.9,255.8 -375.7,1071.1 -295.7,2354.1 59.9,24 119.9,52 179.8,79.9 -107.9,-1606.7 335.7,-2490 335.7,-2490 -75.9,20 -147.8,36 -219.8,56 v 0"
         style="fill:#3421a2;fill-opacity:1;fill-rule:evenodd;stroke:none"
         id="path186" />
      <path
         d="m 13433.798,19610.3 c -87.9,303.8 -303.7,1890.5 12,2486 79.9,32 159.9,68 235.8,99.9 -439.6,-483.6 -319.7,-2262.1 -247.8,-2585.9 v 0"
         style="fill:#3421a2;fill-opacity:1;fill-rule:evenodd;stroke:none"
         id="path188" />
      <path
         d="m 28433.698,21616.7 c -475.6,223.8 -847.3,1107.1 -847.3,1107.1 0,0 363.7,-883.3 559.5,-2126.3 104,331.8 199.9,675.5 287.8,1019.2 v 0"
         style="fill:#3421a2;fill-opacity:1;fill-rule:evenodd;stroke:none"
         id="path190" />
      <path
         d="m 11567.298,21616.7 c 471.6,223.8 843.3,1107.1 843.3,1107.1 0,0 -363.7,-883.3 -559.5,-2126.3 -99.9,331.8 -195.9,675.5 -283.8,1019.2 v 0"
         style="fill:#3421a2;fill-opacity:1;fill-rule:evenodd;stroke:none"
         id="path192" />
      <path
         d="m 26619.198,23143.5 c -3341.3,2486 -6618.7,2370.1 -6618.7,2370.1 0,0 -3277.3,115.9 -6618.6,-2370.1 3341.3,2134.2 6618.6,2038.3 6618.6,2038.3 0,0 3277.4,95.9 6618.7,-2038.3 v 0"
         style="fill:#ba98fc;fill-opacity:1;fill-rule:evenodd;stroke:none"
         id="path194" />
      <path
         d="m 19241.098,28515.1 c 747.4,-191.8 795.4,-771.3 279.8,-999.2 163.9,0 323.7,0 479.6,-4 287.8,4 579.6,4 899.3,-11.9 v 11.9 c -16,531.6 -427.7,919.3 -743.4,987.2 459.6,92 1366.9,28 1642.7,-223.8 -547.6,575.6 -2558,239.8 -2558,239.8 v 0"
         style="fill:#3421a2;fill-opacity:1;fill-rule:evenodd;stroke:none"
         id="path196" />
      <path
         d="m 25528.098,25133.9 c 0,0 -1486.8,591.5 -2625.9,699.4 1282.9,-203.8 2310.1,-651.5 3085.5,-1123.1 -635.5,1047.2 -1730.6,2146.3 -3261.4,2717.8 1187.1,-511.6 2589.9,-1874.5 2801.8,-2294.1 v 0"
         style="fill:#ba98fc;fill-opacity:1;fill-rule:evenodd;stroke:none"
         id="path198" />
      <path
         d="m 14468.998,25133.9 c 0,0 1486.8,591.5 2625.9,699.4 -1283,-203.8 -2310.2,-651.5 -3081.6,-1123.1 635.5,1047.2 1726.7,2146.3 3261.4,2717.8 -1191,-511.6 -2593.9,-1874.5 -2805.7,-2294.1 v 0"
         style="fill:#ba98fc;fill-opacity:1;fill-rule:evenodd;stroke:none"
         id="path200" />
      <path
         d="m 31699.098,16333 c -691.5,235.8 -1330.9,199.8 -1662.7,155.8 0,0 575.6,-4 1243,-355.7 -24,-235.8 -59.9,-475.6 -111.9,-711.4 127.9,-56 255.8,-119.9 387.7,-195.8 79.9,367.7 131.9,739.4 143.9,1107.1 v 0"
         style="fill:#3421a2;fill-opacity:1;fill-rule:evenodd;stroke:none"
         id="path202" />
      <path
         d="m 30643.898,19398.5 c 36,12 72,24 107.9,32 -151.8,199.8 -319.7,387.6 -507.5,567.5 147.8,-191.8 283.7,-391.7 399.6,-599.5 v 0"
         style="fill:#3421a2;fill-opacity:1;fill-rule:evenodd;stroke:none"
         id="path204" />
      <path
         d="m 30979.698,19106.7 c -539.6,-135.9 -967.3,-387.7 -1247,-587.5 0,0 503.6,263.8 1211,259.8 79.9,-203.9 147.9,-415.7 203.8,-623.5 95.9,0 191.9,-4 295.8,-12 -115.9,331.7 -271.8,655.5 -463.6,963.2 v 0"
         style="fill:#3421a2;fill-opacity:1;fill-rule:evenodd;stroke:none"
         id="path206" />
      <path
         d="m 31555.198,17755.8 c -671.5,79.9 -1259,-63.9 -1602.7,-187.8 0,0 603.5,135.9 1314.9,-68 28,-223.8 44,-451.6 48,-679.4 123.9,-24 251.8,-56 383.7,-96 -12,351.8 -60,695.5 -143.9,1031.2 v 0"
         style="fill:#3421a2;fill-opacity:1;fill-rule:evenodd;stroke:none"
         id="path208" />
      <path
         d="m 31455.298,14846.2 c -603.5,379.7 -1215,491.6 -1518.8,527.5 0,0 539.6,-191.8 1059.1,-599.5 -55.9,-187.8 -123.8,-371.7 -195.8,-555.5 111.9,-72 227.8,-147.9 339.7,-235.8 123.9,283.7 231.8,571.5 315.8,863.3 v 0"
         style="fill:#3421a2;fill-opacity:1;fill-rule:evenodd;stroke:none"
         id="path210" />
      <path
         d="m 30975.698,13635.1 c -499.6,407.7 -1027.2,603.5 -1327,687.5 0,0 411.7,-243.8 847.4,-775.4 -112,-219.8 -235.9,-439.6 -371.7,-655.5 91.9,-67.9 183.8,-143.9 275.7,-223.8 215.9,311.8 407.7,635.5 575.6,967.2 v 0"
         style="fill:#3421a2;fill-opacity:1;fill-rule:evenodd;stroke:none"
         id="path212" />
      <path
         d="m 30176.298,12364.2 c -419.6,387.6 -867.3,603.5 -1159.1,719.4 0,0 371.7,-279.8 747.4,-723.4 -175.8,-239.8 -367.7,-475.7 -571.5,-699.5 60,-59.9 119.9,-127.9 179.9,-195.8 291.7,279.8 559.5,583.5 803.3,899.3 v 0"
         style="fill:#3421a2;fill-opacity:1;fill-rule:evenodd;stroke:none"
         id="path214" />
      <path
         d="m 29097.198,11209.1 c -343.7,415.7 -747.4,655.5 -987.2,775.4 0,0 367.7,-243.8 627.5,-787.4 -227.8,-211.8 -463.7,-415.7 -715.5,-603.5 20,-48 40,-95.9 56,-143.9 359.7,227.8 703.4,479.6 1019.2,759.4 v 0"
         style="fill:#3421a2;fill-opacity:1;fill-rule:evenodd;stroke:none"
         id="path216" />
      <path
         d="m 27750.298,10253.9 c -143.9,447.6 -375.7,783.3 -535.6,983.2 0,0 227.8,-443.7 271.8,-1019.2 -243.8,-155.9 -495.6,-299.8004 -759.4,-427.7004 0,-4 0,-4 0,-4 355.7,127.9 695.4,287.8004 1023.2,467.7004 v 0"
         style="fill:#3421a2;fill-opacity:1;fill-rule:evenodd;stroke:none"
         id="path218" />
      <path
         d="m 9353.1081,19398.5 c -35.98,12 -67.95,24 -103.92,32 147.88,199.8 319.74,387.6 507.59,567.5 -151.88,-191.8 -283.77,-391.7 -403.67,-599.5 v 0"
         style="fill:#3421a2;fill-opacity:1;fill-rule:evenodd;stroke:none"
         id="path220" />
      <path
         d="m 9021.3681,19106.7 c 539.57,-135.9 967.22,-387.7 1243.0299,-587.5 0,0 -499.6299,263.8 -1211.0499,259.8 -79.94,-203.9 -147.88,-415.7 -199.84,-623.5 -95.92,0 -195.84,-4 -295.76,-12 115.9,331.7 267.78,655.5 463.62,963.2 v 0"
         style="fill:#3421a2;fill-opacity:1;fill-rule:evenodd;stroke:none"
         id="path222" />
      <path
         d="m 8441.8381,17755.8 c 675.46,79.9 1258.99,-63.9 1606.6599,-187.8 0,0 -607.4699,135.9 -1318.8899,-68 -27.98,-223.8 -43.97,-451.6 -43.97,-679.4 -127.89,-24 -255.79,-56 -387.68,-96 11.99,351.8 59.95,695.5 143.88,1031.2 v 0"
         style="fill:#3421a2;fill-opacity:1;fill-rule:evenodd;stroke:none"
         id="path224" />
      <path
         d="m 8541.7581,14846.2 c 607.51,379.7 1215.02,491.6 1518.7399,527.5 0,0 -539.5299,-191.8 -1059.1099,-599.5 59.95,-187.8 123.9,-371.7 195.84,-555.5 -111.91,-72 -223.82,-147.9 -339.72,-235.8 -123.9,283.7 -227.82,571.5 -315.75,863.3 v 0"
         style="fill:#3421a2;fill-opacity:1;fill-rule:evenodd;stroke:none"
         id="path226" />
      <path
         d="m 9021.3681,13635.1 c 503.6,407.7 1031.1299,603.5 1330.9299,687.5 0,0 -411.6699,-243.8 -851.3099,-775.4 111.91,-219.8 235.81,-439.6 371.7,-655.5 -91.93,-67.9 -183.86,-143.9 -271.78,-223.8 -219.83,311.8 -411.67,635.5 -579.54,967.2 v 0"
         style="fill:#3421a2;fill-opacity:1;fill-rule:evenodd;stroke:none"
         id="path228" />
      <path
         d="m 9820.7281,12364.2 c 419.6699,387.6 871.2699,603.5 1159.0699,719.4 0,0 -367.7,-279.8 -747.4,-723.4 179.9,-239.8 371.7,-475.7 575.5,-699.5 -63.9,-59.9 -123.9,-127.9 -183.8,-195.8 -287.8,279.8 -559.6,583.5 -803.3699,899.3 v 0"
         style="fill:#3421a2;fill-opacity:1;fill-rule:evenodd;stroke:none"
         id="path230" />
      <path
         d="m 10899.898,11209.1 c 347.7,415.7 751.4,655.5 987.2,775.4 0,0 -363.7,-243.8 -623.5,-787.4 223.8,-211.8 463.6,-415.7 711.4,-603.5 -20,-48 -36,-95.9 -52,-143.9 -363.7,227.8 -703.4,479.6 -1023.1,759.4 v 0"
         style="fill:#3421a2;fill-opacity:1;fill-rule:evenodd;stroke:none"
         id="path232" />
      <path
         d="m 12250.798,10253.9 c 143.9,447.6 375.7,783.3 535.5,983.2 0,0 -227.8,-443.7 -271.7,-1019.2 243.8,-155.9 495.6,-299.8004 755.3,-427.7004 0,-4 0,-4 0,-4 -351.7,127.9 -691.4,287.8004 -1019.1,467.7004 v 0"
         style="fill:#3421a2;fill-opacity:1;fill-rule:evenodd;stroke:none"
         id="path234" />
      <path
         d="m 27958.098,24766.2 c 1191,-471.7 931.2,-831.4 627.5,-2522 167.9,707.4 315.7,1418.8 467.6,2098.3 -363.7,139.9 -731.4,283.8 -1095.1,423.7 v 0"
         style="fill:#ba98fc;fill-opacity:1;fill-rule:evenodd;stroke:none"
         id="path236" />
      <path
         d="m 27994.098,23443.2 c 47.9,371.7 223.8,671.5 391.7,671.5 139.8,0 231.8,-207.8 227.8,-491.6 20,315.7 -76,559.5 -231.8,559.5 -175.9,0 -359.8,-299.7 -411.7,-671.4 -24,-195.9 -8,-371.7 36,-495.6 -28,115.9 -36,263.8 -12,427.6 v 0"
         style="fill:#ba98fc;fill-opacity:1;fill-rule:evenodd;stroke:none"
         id="path238" />
      <path
         d="m 12042.898,24766.2 c -1195,-471.7 -931.2,-831.4 -631.5,-2522 -167.8,707.4 -315.7,1418.8 -467.6,2098.3 367.7,139.9 731.4,283.8 1099.1,423.7 v 0"
         style="fill:#ba98fc;fill-opacity:1;fill-rule:evenodd;stroke:none"
         id="path240" />
      <path
         d="m 12006.998,23443.2 c -52,371.7 -227.9,671.5 -395.7,671.5 -139.9,0 -231.8,-207.8 -227.8,-491.6 -20,315.7 79.9,559.5 235.8,559.5 175.8,0 355.7,-299.7 407.6,-671.4 28,-195.9 12,-371.7 -35.9,-495.6 28,115.9 35.9,263.8 16,427.6 v 0"
         style="fill:#ba98fc;fill-opacity:1;fill-rule:evenodd;stroke:none"
         id="path242" />
      <path
         d="m 20020.498,12851.8 c -3681,0 -7378,1850.5 -7450,5207.8 -71.9,-3485.2 3701,-5407.7 7450,-5407.7 3749,0 7482,1922.5 7410,5403.7 -71.9,-3357.3 -3733,-5203.8 -7410,-5203.8 v 0"
         style="fill:#ba98fc;fill-opacity:1;fill-rule:evenodd;stroke:none"
         id="path244" />
      <path
         d="m 17242.698,15941.3 c -975.2,247.8 -1890.4,627.5 -2749.7,1115.1 671.4,-575.6 1646.6,-1039.2 2801.7,-1323 -16,80 -36,151.9 -52,207.9 v 0"
         style="fill:#3421a2;fill-opacity:1;fill-rule:evenodd;stroke:none"
         id="path246" />
      <path
         d="m 20000.498,15589.6 c -687.4,4 -1350.9,67.9 -1990.4,183.8 12,-63.9 20,-127.9 28,-195.8 619.5,-107.9 1279,-163.9 1962.4,-163.9 683.5,0 1342.9,56 1962.4,163.9 8,67.9 16,131.9 24,195.8 -639.5,-115.9 -1298.9,-179.8 -1986.4,-183.8 v 0"
         style="fill:#3421a2;fill-opacity:1;fill-rule:evenodd;stroke:none"
         id="path248" />
      <path
         d="m 22754.298,15941.3 c -16,-56 -32,-127.9 -48,-207.9 1155.1,283.8 2126.3,747.4 2801.8,1323 -859.3,-487.6 -1778.6,-867.3 -2753.8,-1115.1 v 0"
         style="fill:#3421a2;fill-opacity:1;fill-rule:evenodd;stroke:none"
         id="path250" />
      <path
         d="m 17446.598,26832.5 h 5107.9 c -799.4,67.9 -1678.7,103.9 -2554,103.9 -879.3,0 -1754.6,-36 -2553.9,-103.9 v 0"
         style="fill:#ba98fc;fill-opacity:1;fill-rule:evenodd;stroke:none"
         id="path252" />
      <path
         d="m 18145.998,28203.4 c 399.7,515.6 2550,551.5 3157.5,379.7 -351.7,103.9 -827.4,155.9 -1303,155.9 -879.3,0 -1762.6,-179.9 -1854.5,-535.6 v 0"
         style="fill:#ba98fc;fill-opacity:1;fill-rule:evenodd;stroke:none"
         id="path254" />
      <path
         d="m 19093.198,17152.3 c 355.8,-375.7 907.3,-359.7 907.3,-359.7 0,0 547.6,-16 903.3,359.7 503.6,-311.8 1562.7,-415.7 2166.2,-203.8 -1354.9,-119.9 -2166.2,635.4 -2166.2,635.4 -355.7,-379.6 -903.3,-363.7 -903.3,-363.7 0,0 -551.5,-15.9 -907.3,363.7 0,0 -807.3,-755.3 -2166.2,-635.4 607.5,-211.9 1666.7,-108 2166.2,203.8 v 0"
         style="fill:#edb76e;fill-opacity:1;fill-rule:evenodd;stroke:none"
         id="path256" />
      <path
         d="m 20388.198,19054.8 c 555.6,-1331 2557.9,-1710.7 3321.3,-1514.8 -1211,-343.7 -2977.6,267.8 -3321.3,1514.8 v 0"
         style="fill:#fefbe1;fill-opacity:1;fill-rule:evenodd;stroke:none"
         id="path258" />
      <path
         d="m 18833.498,21680.6 c 799.3,375.7 819.3,1830.6 339.7,2681.9 -883.3,-72 -2322.1,-295.8 -3605.1,-939.3 -323.7,-515.5 -335.7,-1135 -351.7,-1726.6 1690.6,1075.2 2370.1,-607.5 3617.1,-16 z m -1782.6,571.6 c 0,399.7 263.8,763.4 643.5,847.3 415.6,91.9 815.3,-183.9 915.2,-619.5 -4,4 -8,4 -12,8 4,-16 8,-28 12,-44 v 0 c -215.8,135.9 -515.5,191.9 -831.3,131.9 -315.7,-63.9 -575.5,-227.8 -719.4,-435.6 -8,35.9 -8,71.9 -8,107.9 0,0 0,0 0,4 v 0"
         style="fill:#e68b28;fill-opacity:1;fill-rule:evenodd;stroke:none"
         id="path260" />
      <path
         d="m 19384.998,23846.9 c -1466.8,-75.9 -2841.7,-415.7 -4048.7,-967.2 51.9,187.8 123.9,371.7 231.8,543.5 1283,643.5 2721.8,867.3 3605.1,939.3 87.9,-151.9 155.9,-327.8 211.8,-515.6 v 0"
         style="fill:#c27319;fill-opacity:1;fill-rule:evenodd;stroke:none"
         id="path262" />
      <path
         d="m 21163.598,21680.6 c -799.4,375.7 -819.4,1830.6 -335.7,2681.9 879.2,-72 2322.1,-295.8 3601,-939.3 323.8,-515.5 335.8,-1135 355.8,-1726.6 -1694.7,1075.2 -2374.1,-607.5 -3621.1,-16 z m 1786.5,571.6 c 0,399.7 -263.7,763.4 -647.4,847.3 -415.7,91.9 -815.4,-183.9 -915.3,-619.5 8,4 12,4 16,8 -8,-16 -12,-28 -16,-44 v 0 c 215.8,135.9 519.6,191.9 835.3,131.9 311.8,-63.9 571.6,-227.8 719.4,-435.6 4,35.9 8,71.9 8,107.9 0,0 0,0 0,4 v 0"
         style="fill:#e68b28;fill-opacity:1;fill-rule:evenodd;stroke:none"
         id="path264" />
      <path
         d="m 24660.798,22879.7 c -1207.1,551.5 -2582,891.3 -4044.8,967.2 52,187.8 123.9,363.7 211.9,515.6 879.2,-72 2322.1,-295.8 3601,-939.3 108,-171.8 183.9,-355.7 231.9,-543.5 v 0"
         style="fill:#c27319;fill-opacity:1;fill-rule:evenodd;stroke:none"
         id="path266" />
      <path
         d="m 19608.798,19054.8 c -555.5,-1331 -2553.9,-1710.7 -3321.3,-1514.8 1215,-343.7 2977.6,267.8 3321.3,1514.8 v 0"
         style="fill:#fefbe1;fill-opacity:1;fill-rule:evenodd;stroke:none"
         id="path268" />
      <path
         d="m 18533.698,20729.4 c 615.5,167.9 343.7,-723.4 799.4,-979.2 211.8,-123.9 339.7,-91.9 335.7,-339.7 4,127.9 -4,255.8 -24,391.7 -291.8,12 -347.7,1143 -1111.1,927.2 v 0"
         style="fill:#edb76e;fill-opacity:1;fill-rule:evenodd;stroke:none"
         id="path270" />
      <path
         d="m 21467.298,20729.4 c -615.5,167.9 -343.7,-723.4 -799.3,-979.2 -215.8,-123.9 -339.7,-91.9 -335.8,-339.7 -7.9,127.9 0,255.8 24,391.7 291.8,12 343.8,1143 1111.1,927.2 v 0"
         style="fill:#edb76e;fill-opacity:1;fill-rule:evenodd;stroke:none"
         id="path272" />
      <path
         d="m 15236.398,11520.8 c -1682.7,-343.7 -1482.8,-3037.5004 -331.8,-3261.3004 -375.7,255.8 -1231,2102.3004 331.8,3261.3004 v 0"
         style="fill:#3421a2;fill-opacity:1;fill-rule:evenodd;stroke:none"
         id="path274" />
      <path
         d="m 15236.398,11520.8 c -1434.9,-323.7 -1410.9,-2893.6004 -331.8,-3261.3004 -1151,223.8 -1350.9,2917.6004 331.8,3261.3004 v 0"
         style="fill:#6151d1;fill-opacity:1;fill-rule:evenodd;stroke:none"
         id="path276" />
      <path
         d="m 24760.698,11520.8 c 1682.6,-343.7 1482.8,-3037.5004 335.7,-3261.3004 371.7,255.8 1227,2102.3004 -335.7,3261.3004 v 0"
         style="fill:#3421a2;fill-opacity:1;fill-rule:evenodd;stroke:none"
         id="path278" />
      <path
         d="m 24760.698,11520.8 c 1434.8,-323.7 1410.8,-2893.6004 335.7,-3261.3004 1147.1,223.8 1346.9,2917.6004 -335.7,3261.3004 v 0"
         style="fill:#6151d1;fill-opacity:1;fill-rule:evenodd;stroke:none"
         id="path280" />
      <text
         xml:space="preserve"
         style="font-size:28900px;font-family:Metropolis;-inkscape-font-specification:Metropolis;opacity:0.8;fill:#ffffff;fill-rule:evenodd;stroke:#000000;stroke-width:0"
         x="10376.301"
         y="-10463"
         id="text308"
         transform="scale(1,-1)"><tspan
           id="tspan306"
           x="10376.301"
           y="-10463"
           style="font-style:normal;font-variant:normal;font-weight:bold;font-stretch:normal;font-size:28900px;font-family:'Work Sans';-inkscape-font-specification:'Work Sans';fill:#ffffff;stroke-width:0">X</tspan></text>
    </g>
  </g>
</svg>
